SplineFontDB: 3.0
FontName: SPAphaimanee
FullName: SP Aphaimanee
FamilyName: SP Aphaimanee
Weight: Book
Copyright: Copyright (c) 2006 by Department of Intellectual Property (DIP), Ministry of Commerce and Software Industry Promotion Agency (Public Organization) (SIPA). All rights reserved.
Version: 2.2
ItalicAngle: 0
UnderlinePosition: -35
UnderlineWidth: 30
Ascent: 800
Descent: 200
LayerCount: 2
Layer: 0 0 "Back"  1
Layer: 1 0 "Fore"  0
NeedsXUIDChange: 1
XUID: [1021 375 425136265 5461045]
FSType: 0
OS2Version: 3
OS2_WeightWidthSlopeOnly: 0
OS2_UseTypoMetrics: 1
CreationTime: 1158666720
ModificationTime: 1241004557
PfmFamily: 17
TTFWeight: 400
TTFWidth: 5
LineGap: 30
VLineGap: 0
Panose: 2 0 5 6 0 0 0 2 0 4
OS2TypoAscent: 0
OS2TypoAOffset: 1
OS2TypoDescent: 0
OS2TypoDOffset: 1
OS2TypoLinegap: 0
OS2WinAscent: -43
OS2WinAOffset: 1
OS2WinDescent: -196
OS2WinDOffset: 1
HheadAscent: -43
HheadAOffset: 1
HheadDescent: 196
HheadDOffset: 1
OS2SubXSize: 700
OS2SubYSize: 650
OS2SubXOff: 0
OS2SubYOff: 140
OS2SupXSize: 700
OS2SupYSize: 650
OS2SupXOff: 0
OS2SupYOff: 477
OS2StrikeYSize: 30
OS2StrikeYPos: 250
OS2FamilyClass: 773
OS2Vendor: 'IPTH'
Lookup: 4 0 0 "'frac' Diagonal Fractions in Latin lookup 0"  {"'frac' Diagonal Fractions in Latin lookup 0 subtable"  } ['frac' ('latn' <'dflt' > ) ]
Lookup: 6 0 0 "'liga' Standard Ligatures in Latin lookup 1"  {"'liga' Standard Ligatures in Latin lookup 1 subtable"  } ['liga' ('latn' <'dflt' > ) ]
Lookup: 6 0 0 "'liga' Standard Ligatures in Latin lookup 2"  {"'liga' Standard Ligatures in Latin lookup 2 subtable"  } ['liga' ('latn' <'dflt' > ) ]
Lookup: 6 0 0 "'liga' Standard Ligatures in Latin lookup 3"  {"'liga' Standard Ligatures in Latin lookup 3 subtable"  } ['liga' ('latn' <'dflt' > ) ]
Lookup: 6 0 0 "'liga' Standard Ligatures in Latin lookup 4"  {"'liga' Standard Ligatures in Latin lookup 4 subtable"  } ['liga' ('latn' <'dflt' > ) ]

StartChar: .notdef
Encoding: 65536 -1 0
Width: 733
VWidth: 1467
Flags: W
HStem: 0 51<142 590> 968 52<142 590>
VStem: 92 50<51 968> 590 50<51 968>
LayerCount: 2
Fore
SplineSet
590 51 m 1
 590 968 l 1
 142 968 l 1
 142 51 l 1
 590 51 l 1
640 0 m 1
 92 0 l 1
 92 1020 l 1
 640 1020 l 1
 640 0 l 1
EndSplineSet
Validated: 1
EndChar

StartChar: numbersign
Encoding: 35 35 4
Width: 528
VWidth: 1467
Flags: W
HStem: 0 21G<123 162.374 295 334.466> 219 30<41 150 192 323 364 465> 427 32<62 176 217 349 390 486>
LayerCount: 2
Fore
SplineSet
355 459 m 1
 367 549 367 572 380 685 c 1
 417 685 l 1
 390 459 l 1
 486 459 l 1
 486 427 l 1
 384 427 l 1
 377 356 371 320 364 249 c 1
 465 249 l 1
 465 219 l 1
 359 219 l 1
 332 0 l 1
 295 0 l 1
 323 219 l 1
 186 219 l 1
 160 0 l 1
 123 0 l 1
 150 219 l 1
 41 219 l 1
 41 249 l 1
 156 249 l 1
 163 320 169 356 176 427 c 1
 62 427 l 1
 62 459 l 1
 182 459 l 1
 197 572 196 595 210 685 c 1
 244 685 l 1
 217 459 l 1
 355 459 l 1
329 249 m 1
 336 320 342 356 349 427 c 1
 211 427 l 1
 208 391 194 267 192 249 c 1
 329 249 l 1
EndSplineSet
Validated: 1
EndChar

StartChar: dollar
Encoding: 36 36 5
Width: 669
VWidth: 1467
Flags: W
HStem: -26 35<232.8 323 368 433.805> 330 41<370 448.581> 339 40<240.135 323> 690 30<249.331 323 370 419.594>
VStem: 73 49<90.5527 132> 94 48<450.166 608.696> 323 47<-139 -26 9 330 379 688 720 828> 519 47<571 616.595> 552 44<100.028 251.696>
LayerCount: 2
Fore
SplineSet
370 371 m 1xd7
 497 349 596 315 596 171 c 0
 596 38 475 -16 368 -26 c 1
 368 -139 l 1
 323 -139 l 1
 323 -26 l 1
 228 -24 98 11 73 132 c 1
 122 132 l 1
 150 32 265 11 323 9 c 1
 323 339 l 1xba80
 223 355 94 377 94 528 c 0
 94 658 219 718 323 720 c 1
 323 828 l 1
 370 828 l 1
 370 719 l 1
 459 711 548 662 566 571 c 1
 519 571 l 1
 497 658 415 682 370 688 c 1
 370 371 l 1xd7
323 690 m 1
 260 688 142 657 142 523 c 0xb6
 142 437 201 396 323 379 c 1
 323 690 l 1
368 9 m 1
 452 18 552 70 552 180 c 0
 552 300 418 320 370 330 c 1xd280
 368 9 l 1
EndSplineSet
Validated: 1
EndChar

StartChar: percent
Encoding: 37 37 6
Width: 852
VWidth: 1467
Flags: W
HStem: 1 21G<188 249.938> 20 40<601.226 694.221> 305 40<164.507 256.141> 384 41<598.964 690.464> 669 41<166.224 256.231>
VStem: 57 51<406.904 597.202> 310 51<407.891 597.002> 494 55<122.674 324.641> 746 52<119.195 314.331>
LayerCount: 2
Fore
SplineSet
208 710 m 0x3f80
 300 710 361 612 361 508 c 0
 361 397 299 305 207 305 c 0
 122 305 57 395 57 508 c 256
 57 622 127 710 208 710 c 0x3f80
108 497 m 0
 108 409 162 345 213 345 c 0
 266 345 310 423 310 502 c 0
 310 560 276 669 211 669 c 0
 156 669 108 587 108 497 c 0
494 223 m 256
 494 318 549 425 646 425 c 0
 737 425 798 331 798 223 c 0
 798 106 739 20 650 20 c 0x7f80
 556 20 494 114 494 223 c 256
549 226 m 0
 550 150 582 64 646 60 c 0
 715 60 746 151 746 210 c 0
 746 301 702 384 643 384 c 0
 591 384 549 309 549 226 c 0
663 713 m 1
 238 1 l 1
 188 1 l 1xbf80
 613 713 l 1
 663 713 l 1
EndSplineSet
Validated: 1
EndChar

StartChar: ampersand
Encoding: 38 38 7
Width: 642
VWidth: 1467
Flags: W
HStem: -13 44<166.758 360.965> 0 21G<535 625> 685 38<222.062 344.11>
VStem: 31 47<115.661 272.199> 116 45<477.349 625.387> 390 46<511.596 641.539> 560 49<281.078 376>
LayerCount: 2
Fore
SplineSet
478 150 m 1xbe
 533 223 549 312 560 376 c 1
 609 376 l 1
 586 251 552 163 509 114 c 1
 570 54 l 2
 590 33 608 15 625 0 c 1
 560 0 l 1x7e
 510 45 523 43 481 81 c 1
 421 30 349 -13 242 -13 c 0
 122 -13 31 79 31 188 c 0
 31 271 70 340 179 395 c 1
 137 450 116 502 116 550 c 0
 116 636 173 723 289 723 c 0
 378 723 436 665 436 580 c 0
 436 540 422 460 254 381 c 1
 408 216 430 192 478 150 c 1xbe
224 412 m 1
 310 454 390 500 390 574 c 0
 390 623 358 685 283 685 c 256
 211 685 161 617 161 556 c 0
 161 518 168 490 224 412 c 1
450 113 m 1
 427 139 310 245 208 364 c 1
 178 348 78 296 78 195 c 0
 78 103 154 31 255 31 c 0xbe
 343 31 411 72 450 113 c 1
EndSplineSet
Validated: 1
EndChar

StartChar: quotesingle
Encoding: 39 39 8
Width: 190
VWidth: 1467
Flags: W
HStem: 496 236<75 114>
VStem: 75 39<496 606.133>
LayerCount: 2
Fore
SplineSet
114 496 m 1
 75 496 l 1
 60 732 l 1
 128 732 l 1
 114 496 l 1
EndSplineSet
Validated: 1
EndChar

StartChar: parenleft
Encoding: 40 40 9
Width: 284
VWidth: 1467
Flags: W
VStem: 81 41<180.565 510.628>
LayerCount: 2
Fore
SplineSet
122 343 m 0
 122 180 171 49 285 -85 c 1
 244 -85 l 1
 213 -51 81 89 81 343 c 0
 81 544 153 669 242 781 c 1
 286 781 l 1
 167 644 122 506 122 343 c 0
EndSplineSet
Validated: 1
EndChar

StartChar: parenright
Encoding: 41 41 10
Width: 284
VWidth: 1467
Flags: W
VStem: 163 41<185.489 512.067>
LayerCount: 2
Fore
SplineSet
41 781 m 1
 125 688 204 545 204 348 c 256
 204 189 156 44 41 -85 c 1
 0 -85 l 1
 85 22 163 150 163 348 c 256
 163 547 86 673 0 781 c 1
 41 781 l 1
EndSplineSet
Validated: 1
EndChar

StartChar: asterisk
Encoding: 42 42 11
Width: 422
VWidth: 1467
Flags: W
HStem: 512 21G<18 169 260 408> 567 20G<18 160 257 408>
LayerCount: 2
Fore
SplineSet
408 587 m 1
 408 512 l 1
 260 522 l 1
 345 409 l 1
 282 368 l 1
 214 493 l 1
 157 359 l 1
 89 393 l 1
 169 522 l 1
 18 512 l 1
 18 587 l 1
 160 578 l 1
 72 697 l 1
 135 737 l 1
 208 602 l 1
 268 741 l 1
 335 706 l 1
 257 577 l 1
 408 587 l 1
EndSplineSet
Validated: 1
EndChar

StartChar: plus
Encoding: 43 43 12
Width: 629
VWidth: 1467
Flags: W
HStem: 332 48<41 288 339 585>
VStem: 288 51<73 332 380 635>
LayerCount: 2
Fore
SplineSet
339 332 m 1
 339 73 l 1
 288 73 l 1
 288 332 l 1
 41 332 l 1
 41 380 l 1
 288 380 l 1
 288 635 l 1
 339 635 l 1
 339 380 l 1
 585 380 l 1
 585 332 l 1
 339 332 l 1
EndSplineSet
Validated: 1
EndChar

StartChar: comma
Encoding: 44 44 13
Width: 184
VWidth: 1467
Flags: W
HStem: -12 99<64.4982 109.485>
VStem: 46 107<-3.6996 69.0883>
LayerCount: 2
Fore
SplineSet
110 87 m 0
 135 87 153 62 153 40 c 0
 153 3 144 -28 126 -54 c 0
 109 -78 91 -97 73 -109 c 1
 40 -109 l 1
 72 -86 104 -50 110 -4 c 1
 99 -10 89 -12 80 -12 c 0
 61 -12 46 0 46 22 c 0
 46 58 80 87 110 87 c 0
EndSplineSet
Validated: 1
EndChar

StartChar: hyphen
Encoding: 45 45 14
Width: 316
VWidth: 1467
Flags: W
HStem: 273 51<29 286>
VStem: 29 257<273 324>
LayerCount: 2
Fore
SplineSet
29 273 m 1
 29 324 l 1
 286 324 l 1
 286 273 l 1
 29 273 l 1
EndSplineSet
Validated: 1
EndChar

StartChar: period
Encoding: 46 46 15
Width: 193
VWidth: 1467
Flags: W
HStem: -15 115<66.0565 132.992>
VStem: 57 85<-7.59033 93.2646>
LayerCount: 2
Fore
SplineSet
57 43 m 0
 57 81 78 100 100 100 c 0
 121 100 142 81 142 43 c 0
 142 13 125 -15 100 -15 c 0
 73 -15 57 12 57 43 c 0
EndSplineSet
Validated: 1
EndChar

StartChar: slash
Encoding: 47 47 16
Width: 394
VWidth: 1467
Flags: W
HStem: 703 20G<344.209 399>
LayerCount: 2
Fore
SplineSet
26 -43 m 1
 -21 -43 l 1
 354 723 l 1
 399 723 l 1
 26 -43 l 1
EndSplineSet
Validated: 1
EndChar

StartChar: zero
Encoding: 48 48 17
Width: 698
VWidth: 1467
Flags: W
HStem: -3 29<282.041 424.828> 690 29<282.854 427.985>
VStem: 103 39<196.369 508.465> 558 41<184.281 525.553>
LayerCount: 2
Fore
SplineSet
103 346 m 0
 103 661 252 719 352 719 c 0
 577 719 599 492 599 334 c 0
 599 72 457 -3 362 -3 c 0
 295 -3 103 30 103 346 c 0
362 26 m 0
 440 26 558 91 558 328 c 0
 558 603 477 690 355 690 c 0
 185 690 142 501 142 347 c 0
 142 69 274 26 362 26 c 0
EndSplineSet
Validated: 1
EndChar

StartChar: one
Encoding: 49 49 18
Width: 698
VWidth: 1467
Flags: W
HStem: 0 21G<335 384>
VStem: 335 49<0 654>
LayerCount: 2
Fore
SplineSet
336 654 m 1
 271 616 l 1
 271 654 l 1
 346 697 l 1
 384 697 l 1
 384 0 l 1
 335 0 l 1
 336 654 l 1
EndSplineSet
Validated: 1
EndChar

StartChar: two
Encoding: 50 50 19
Width: 698
VWidth: 1467
Flags: W
HStem: -1 35<162 563> 681 33<294.425 478.024>
VStem: 541 40<492.309 630.656>
LayerCount: 2
Fore
SplineSet
142 615 m 1
 219 677 285 714 381 714 c 0
 504 714 581 655 581 566 c 0
 581 507 569 437 339 207 c 2
 162 34 l 1
 565 33 l 1
 563 -1 l 1
 110 -1 l 1
 112 35 l 1
 125 50 143 68 166 90 c 2
 333 252 l 2
 470 385 541 497 541 565 c 0
 541 611 519 681 389 681 c 0
 339 681 278 679 142 572 c 1
 142 615 l 1
EndSplineSet
Validated: 1
EndChar

StartChar: three
Encoding: 51 51 20
Width: 698
VWidth: 1467
Flags: W
HStem: -4 29<201.885 392.108> 352 31<235 399.237> 673 30<220.205 426.068>
VStem: 514 45<474.073 610.768> 537 45<127.152 282.408>
LayerCount: 2
Fore
SplineSet
286 352 m 2xe8
 255 352 276 349 235 349 c 1
 235 384 l 1
 248 383 259 383 267 383 c 2
 285 383 l 2
 458 385 514 489 514 530 c 0
 514 638 433 673 329 673 c 0
 261 673 216 658 158 640 c 1
 161 676 l 1
 244 694 277 703 331 703 c 0
 449 703 559 659 559 546 c 0xf0
 559 478 538 405 387 376 c 1
 387 373 l 1
 551 373 580 280 582 214 c 0
 582 39 393 -4 305 -4 c 0
 297 -4 193 4 148 25 c 1
 142 59 l 1
 204 37 239 25 304 25 c 0
 417 25 537 92 537 196 c 0
 537 291 485 354 327 354 c 0
 303 354 286 352 286 352 c 2xe8
EndSplineSet
Validated: 1
EndChar

StartChar: four
Encoding: 52 52 21
Width: 698
VWidth: 1467
Flags: W
HStem: 1 21G<449 496> 197 30<163 449 494 585> 683 20G<389 496>
VStem: 449 45<3 197 227 668>
LayerCount: 2
Fore
SplineSet
496 703 m 1
 496 597 494 570 494 438 c 2
 494 227 l 1
 585 227 l 1
 585 197 l 1
 494 197 l 1
 494 126 l 2
 494 76 496 52 496 3 c 1
 449 1 l 1
 449 197 l 1
 126 197 l 1
 126 236 l 1
 126 236 350 575 428 703 c 1
 496 703 l 1
449 227 m 1
 449 668 l 1
 163 227 l 1
 449 227 l 1
EndSplineSet
Validated: 1
EndChar

StartChar: five
Encoding: 53 53 22
Width: 698
VWidth: 1467
Flags: W
HStem: -9 31<153.818 385.281> 374 31<195.638 434.43> 666 37<380.647 581> 675 28<227 515.202>
VStem: 547 44<141.221 301.329>
LayerCount: 2
Fore
SplineSet
547 230 m 0xd8
 547 288 515 374 315 374 c 0
 258 374 202 370 148 361 c 1
 186 703 l 1xd8
 581 703 l 1
 581 666 l 1xe8
 500 672 413 675 321 675 c 2
 227 675 l 1
 194 393 l 1
 264 402 307 405 335 405 c 0
 556 405 591 300 591 230 c 0
 591 93 471 -9 277 -9 c 0
 231 -9 181 -3 128 9 c 1
 120 45 l 1
 199 25 250 22 282 22 c 0
 414 22 547 87 547 230 c 0xd8
EndSplineSet
Validated: 1
EndChar

StartChar: six
Encoding: 54 54 23
Width: 698
VWidth: 1467
Flags: W
HStem: -4 29<266.741 433.081> 375 36<281.472 477.385> 689 20G<318 434>
VStem: 107 46<116.986 290.03> 559 43<127.471 303.094>
LayerCount: 2
Fore
SplineSet
370 411 m 0
 468 411 602 372 602 214 c 0
 602 124 536 -4 358 -4 c 0
 247 -4 107 36 107 197 c 0
 107 384 260 562 376 709 c 1
 434 709 l 1
 362 633 260 513 191 361 c 1
 218 378 286 411 370 411 c 0
559 220 m 0
 559 287 525 375 391 375 c 0
 320 375 228 351 166 289 c 1
 157 258 153 229 153 202 c 0
 153 99 228 25 348 25 c 0
 495 25 559 121 559 220 c 0
EndSplineSet
Validated: 1
EndChar

StartChar: seven
Encoding: 55 55 24
Width: 698
VWidth: 1467
Flags: W
HStem: -1 21G<189 250> 665 36<141 538>
LayerCount: 2
Fore
SplineSet
538 671 m 1
 385 671 355 665 233 665 c 0
 203 665 172 665 141 666 c 1
 141 701 l 1
 577 701 l 1
 575 662 l 1
 402 330 l 1
 316 162 l 2
 288 106 262 52 238 -1 c 1
 189 -1 l 1
 358 320 l 1
 538 671 l 1
EndSplineSet
Validated: 1
EndChar

StartChar: eight
Encoding: 56 56 25
Width: 698
VWidth: 1467
Flags: W
HStem: -2 28<262.51 434.832> 348 30<260.136 428.318> 691 28<278.441 435.42>
VStem: 98 45<113.457 265.64> 122 47<445.214 609.307> 537 43<461.817 613.345> 564 43<119.622 267.878>
LayerCount: 2
Fore
SplineSet
260 364 m 1xf2
 219 372 122 411 122 525 c 0
 122 603 181 719 353 719 c 0
 490 719 580 643 580 545 c 0xec
 580 468 554 416 450 367 c 1
 599 335 607 222 607 190 c 0
 607 36 444 -2 340 -2 c 0
 209 -2 98 58 98 190 c 0
 98 281 152 339 260 364 c 1xf2
359 691 m 0
 290 691 169 659 169 531 c 0
 169 445 217 378 338 378 c 0
 490 378 537 473 537 536 c 0
 537 629 464 691 359 691 c 0
348 26 m 0
 481 26 564 108 564 189 c 0
 564 253 528 348 359 348 c 0
 192 348 143 258 143 198 c 0xf2
 143 61 270 26 348 26 c 0
EndSplineSet
Validated: 1
EndChar

StartChar: nine
Encoding: 57 57 26
Width: 698
VWidth: 1467
Flags: W
HStem: -1 21G<276 351.044> 295 37<232.721 428.797> 681 31<274.488 445.872>
VStem: 107 44<400.011 576.306> 558 45<416.604 588.444>
LayerCount: 2
Fore
SplineSet
337 295 m 0
 245 295 107 334 107 492 c 0
 107 599 187 712 352 712 c 0
 460 712 603 671 603 509 c 0
 603 341 470 170 408 90 c 2
 335 -1 l 1
 276 -1 l 1
 364 92 433 185 484 276 c 2
 503 312 l 2
 509 323 514 334 519 345 c 1
 488 326 420 295 337 295 c 0
151 487 m 0
 151 416 185 332 319 332 c 0
 383 332 482 355 543 417 c 1
 553 447 558 476 558 505 c 0
 558 611 474 681 362 681 c 0
 221 681 151 587 151 487 c 0
EndSplineSet
Validated: 1
EndChar

StartChar: colon
Encoding: 58 58 27
Width: 201
VWidth: 1467
Flags: W
HStem: 3 115<69.3903 135.366> 381 115<69.0918 135.992>
VStem: 60 85<10.4037 111.195 388.439 489.024>
LayerCount: 2
Fore
SplineSet
103 118 m 0
 128 118 145 93 145 60 c 0
 145 31 127 3 103 3 c 0
 77 3 60 28 60 59 c 0
 60 90 76 118 103 118 c 0
103 496 m 0
 128 496 145 470 145 439 c 0
 145 409 128 381 103 381 c 0
 77 381 60 406 60 438 c 0
 60 469 76 496 103 496 c 0
EndSplineSet
Validated: 1
EndChar

StartChar: semicolon
Encoding: 59 59 28
Width: 203
VWidth: 1467
Flags: W
HStem: -12 99<64.161 109.485> 381 115<69.0918 135.992>
VStem: 46 107<-3.12305 68.749> 60 85<388.439 489.024>
LayerCount: 2
Fore
SplineSet
110 87 m 0xe0
 135 87 153 64 153 39 c 0
 153 2 144 -29 126 -54 c 0
 109 -78 91 -97 73 -109 c 1
 40 -109 l 1
 72 -86 104 -50 110 -4 c 1
 99 -10 89 -12 80 -12 c 0
 62 -12 46 -0 46 22 c 0
 46 54 76 87 110 87 c 0xe0
103 496 m 0
 128 496 145 470 145 439 c 0
 145 409 128 381 103 381 c 0
 77 381 60 406 60 438 c 0xd0
 60 469 76 496 103 496 c 0
EndSplineSet
Validated: 1
EndChar

StartChar: less
Encoding: 60 60 29
Width: 517
VWidth: 1467
Flags: W
HStem: -7 21G<408.5 467>
LayerCount: 2
Fore
SplineSet
132 283 m 1
 281 238 414 107 467 48 c 1
 467 -7 l 1
 350 146 165 248 50 280 c 1
 195 332 363 441 467 574 c 1
 467 516 l 1
 321 370 206 308 132 283 c 1
EndSplineSet
Validated: 1
EndChar

StartChar: equal
Encoding: 61 61 30
Width: 629
VWidth: 1467
Flags: W
HStem: 180 47<41 585> 346 47<41 585>
LayerCount: 2
Fore
SplineSet
41 346 m 1
 41 393 l 1
 585 393 l 1
 585 346 l 1
 41 346 l 1
41 180 m 1
 41 227 l 1
 585 227 l 1
 585 180 l 1
 41 180 l 1
EndSplineSet
Validated: 1
EndChar

StartChar: greater
Encoding: 62 62 31
Width: 535
VWidth: 1467
Flags: W
HStem: -10 21G<75 123.5>
LayerCount: 2
Fore
SplineSet
409 280 m 1
 304 312 161 413 75 515 c 1
 75 571 l 1
 169 439 345 327 492 283 c 1
 347 234 172 118 75 -10 c 1
 75 47 l 1
 185 164 322 252 409 280 c 1
EndSplineSet
Validated: 1
EndChar

StartChar: question
Encoding: 63 63 32
Width: 478
VWidth: 1467
Flags: W
HStem: 3 115<184.008 250.585> 441 26<89.9378 133.766> 689 37<174.777 320.163>
VStem: 43 36<471.638 601.486> 174 34<519.319 641.914> 175 85<10.1777 111.039> 196 40<182 294.753> 384 44<470.041 629.538>
LayerCount: 2
Fore
SplineSet
208 582 m 0xf9
 208 508 159 441 111 441 c 0
 63 441 43 491 43 537 c 0
 43 630 129 726 252 726 c 0
 337 726 428 658 428 542 c 0
 428 526 426 447 346 392 c 0
 301 361 236 314 236 196 c 2
 236 180 l 1
 198 182 l 1
 197 188 196 194 196 201 c 0xf3
 196 214 198 257 214 304 c 0
 235 357 298 405 326 425 c 0
 364 460 384 502 384 554 c 0
 384 626 334 689 250 689 c 0
 216 689 190 679 167 668 c 1
 194 653 208 616 208 582 c 0xf9
110 467 m 0
 147 467 174 553 174 587 c 0xf9
 174 620 161 649 143 649 c 0
 116 649 79 587 79 526 c 0
 79 489 92 467 110 467 c 0
217 118 m 0
 243 118 260 93 260 60 c 0
 260 30 242 3 217 3 c 0
 192 3 175 27 175 58 c 0xf5
 175 89 190 118 217 118 c 0
EndSplineSet
Validated: 1
EndChar

StartChar: at
Encoding: 64 64 33
Width: 886
VWidth: 1467
Flags: W
HStem: -153 37<322.379 548.386> 2 32<338.873 489.198 603.891 647.998> 393 31<336.59 505.038> 547 35<361.958 574.794>
VStem: 79 37<91.6747 305.317> 268 36<63.9668 157.395> 562 38<97 251 271.896 345.305> 770 37<164.38 359.432>
LayerCount: 2
Fore
SplineSet
406 2 m 0
 349 2 268 24 268 114 c 0
 268 224 393 217 472 238 c 0
 550 259 559 289 559 302 c 0
 559 336 531 393 430 393 c 0
 381 393 323 377 282 357 c 1
 289 393 l 1
 329 414 377 424 424 424 c 0
 499 424 600 399 600 301 c 2
 600 92 l 2
 600 72 602 48 607 38 c 1
 693 44 770 146 770 251 c 0
 770 429 640 547 468 547 c 256
 294 547 116 413 116 192 c 0
 116 24 256 -116 421 -116 c 0
 465 -116 539 -111 597 -75 c 1
 618 -104 l 1
 562 -136 499 -153 418 -153 c 0
 239 -153 79 -17 79 189 c 0
 79 377 211 582 475 582 c 0
 686 582 807 434 807 257 c 0
 807 115 700 6 609 6 c 0
 581 6 565 39 562 57 c 1
 538 35 472 2 406 2 c 0
562 251 m 1
 539 234 510 216 472 210 c 2
 416 200 l 2
 304 179 304 127 304 114 c 0
 304 50 357 34 414 34 c 0
 449 34 495 44 531 72 c 2
 562 97 l 1
 562 251 l 1
EndSplineSet
Validated: 1
EndChar

StartChar: A
Encoding: 65 65 34
Width: 649
VWidth: 1467
Flags: W
HStem: 0 21G<48 99.2402 547.76 599> 229 39<164 483> 680 44<280.38 365.383>
LayerCount: 2
Fore
SplineSet
493 229 m 1
 154 229 l 1
 94 0 l 1
 48 0 l 1
 185 544 l 2
 203 608 223 724 323 724 c 0
 426 724 446 595 462 544 c 2
 599 0 l 1
 553 0 l 1
 493 229 l 1
483 268 m 1
 418 519 l 2
 391 627 371 680 322 680 c 0
 266 680 254 605 229 519 c 2
 164 268 l 1
 483 268 l 1
EndSplineSet
Validated: 1
EndChar

StartChar: B
Encoding: 66 66 35
Width: 660
VWidth: 1467
Flags: W
HStem: 0 38<148 457.702> 408 41<282 407.558> 675 37<147 427.064>
VStem: 103 44<38 675> 472 43<504.479 634.239> 546 47<119.473 298.311>
LayerCount: 2
Fore
SplineSet
515 569 m 0
 515 523 486 451 406 427 c 1
 502 406 593 343 593 213 c 0
 593 43 460 -0 358 0 c 2
 103 0 l 1
 103 712 l 1
 376 712 l 2
 453 712 515 655 515 569 c 0
147 522 m 2
 147 387 148 319 148 184 c 2
 148 38 l 1
 368 38 l 2
 446 38 546 74 546 217 c 0
 546 332 438 399 355 408 c 2
 282 408 l 1
 282 449 l 1
 355 449 l 2
 416 449 472 509 472 566 c 0
 472 624 432 675 370 675 c 2
 147 675 l 1
 147 522 l 2
EndSplineSet
Validated: 1
EndChar

StartChar: C
Encoding: 67 67 36
Width: 632
VWidth: 1467
Flags: W
HStem: -9 35<248.508 451.587> 599 21G<517 575> 687 34<249.875 450.616>
VStem: 103 47<101.819 608.856>
LayerCount: 2
Fore
SplineSet
150 164 m 2
 150 115 198 26 350 26 c 0
 372 26 498 29 536 114 c 1
 575 98 l 1
 539 25 437 -9 339 -9 c 0
 182 -9 103 76 103 145 c 2
 103 568 l 2
 103 640 187 721 342 721 c 0
 440 721 540 687 575 615 c 1
 536 599 l 1
 498 684 372 687 350 687 c 0
 185 687 150 584 150 549 c 2
 150 164 l 2
EndSplineSet
Validated: 1
EndChar

StartChar: D
Encoding: 68 68 37
Width: 669
VWidth: 1467
Flags: W
HStem: 0 36<148 355.551> 681 36<148 296.701>
VStem: 104 44<37 681> 544 44<196.526 501.357>
LayerCount: 2
Fore
SplineSet
104 0 m 1
 104 717 l 1
 332 717 588 709 588 359 c 0
 588 65 441 -0 224 0 c 2
 104 0 l 1
544 359 m 0
 544 621 393 681 148 681 c 1
 148 37 l 1
 166 36 183 36 199 36 c 0
 475 36 544 144 544 359 c 0
EndSplineSet
Validated: 1
EndChar

StartChar: E
Encoding: 69 69 38
Width: 642
VWidth: 1467
Flags: W
HStem: -6 37<254.625 563> 321 40<150 452> 675 38<255.993 563>
VStem: 103 47<129.277 321 361 579.266>
LayerCount: 2
Fore
SplineSet
103 450 m 2
 103 660 190 710 364 713 c 2
 563 713 l 1
 563 675 l 1
 361 675 l 2
 199 675 150 586 150 467 c 2
 150 361 l 1
 452 361 l 1
 452 321 l 1
 150 321 l 1
 150 241 l 2
 150 122 199 31 361 31 c 2
 563 31 l 1
 563 -6 l 1
 364 -6 l 2
 201 -0 103 34 103 257 c 2
 103 450 l 2
EndSplineSet
Validated: 1
EndChar

StartChar: F
Encoding: 70 70 39
Width: 627
VWidth: 1467
Flags: W
HStem: -1 21G<104 150.062> 324 40<151 452> 678 38<252.922 565>
VStem: 104 47<-1 324 364 577.393>
LayerCount: 2
Fore
SplineSet
104 453 m 2
 104 667 197 713 364 716 c 2
 565 716 l 1
 565 678 l 1
 362 678 l 2
 193 678 151 584 151 463 c 2
 151 364 l 1
 452 364 l 1
 452 324 l 1
 151 324 l 1
 150 -1 l 1
 104 -1 l 1
 104 453 l 2
EndSplineSet
Validated: 1
EndChar

StartChar: G
Encoding: 71 71 40
Width: 689
VWidth: 1467
Flags: W
HStem: -7 39<253.839 480.202> 358 40<428 514.369> 597 21G<525 584> 685 34<251.099 457.007>
VStem: 104 47<131.779 607.995> 575 49<120.781 303.981>
LayerCount: 2
Fore
SplineSet
575 217 m 0
 575 343 492 351 428 358 c 1
 428 398 l 1
 585 398 624 311 624 215 c 0
 624 75 531 -7 389 -7 c 0
 170 -7 104 70 104 257 c 2
 104 566 l 2
 104 665 230 719 355 719 c 0
 452 719 549 686 584 613 c 1
 543 597 l 1
 507 682 373 685 354 685 c 0
 271 685 213 663 172 608 c 0
 158 590 151 569 151 548 c 2
 151 255 l 2
 151 125 194 32 364 32 c 2
 399 32 l 2
 466 32 575 67 575 217 c 0
EndSplineSet
Validated: 1
EndChar

StartChar: H
Encoding: 72 72 41
Width: 658
VWidth: 1467
Flags: W
HStem: -3 21G<103 150 518 565> 323 39<150 518> 695 20G<103 150 518 565>
VStem: 103 47<-3 323 362 715> 518 47<-3 323 362 715>
LayerCount: 2
Fore
SplineSet
518 715 m 1
 565 715 l 1
 565 -3 l 1
 518 -3 l 1
 518 323 l 1
 150 323 l 1
 150 -3 l 1
 103 -3 l 1
 103 715 l 1
 150 715 l 1
 150 362 l 1
 518 362 l 1
 518 715 l 1
EndSplineSet
Validated: 1
EndChar

StartChar: I
Encoding: 73 73 42
Width: 214
VWidth: 1467
Flags: W
HStem: 0 21G<82 128.028> 697 20G<82 129>
VStem: 82 46<0 717>
LayerCount: 2
Fore
SplineSet
129 717 m 1
 128 0 l 1
 82 0 l 1
 82 717 l 1
 129 717 l 1
EndSplineSet
Validated: 1
EndChar

StartChar: J
Encoding: 74 74 43
Width: 491
VWidth: 1467
Flags: W
HStem: -13 38<172.714 291.365> 690 20G<352 399>
VStem: 73 46<76.9028 145> 352 47<82.9781 710>
LayerCount: 2
Fore
SplineSet
234 -13 m 0
 157 -13 73 33 73 145 c 1
 119 145 l 1
 124 71 174 25 234 25 c 0
 281 25 352 62 352 172 c 2
 352 710 l 1
 399 710 l 1
 399 148 l 2
 399 43 316 -13 234 -13 c 0
EndSplineSet
Validated: 1
EndChar

StartChar: K
Encoding: 75 75 44
Width: 685
VWidth: 1467
Flags: W
HStem: 0 20G<104 151 544 591> 696 20G<104 151 495.379 580>
VStem: 104 47<0 291 359 716> 546 45<-1 330.649>
LayerCount: 2
Fore
SplineSet
349 486 m 1
 502 470 591 396 591 227 c 2
 591 -1 l 1
 544 -1 l 1
 546 224 l 2
 546 230 l 0
 546 404 410 442 310 447 c 1
 151 291 l 1
 151 0 l 1
 104 0 l 1
 104 716 l 1
 151 716 l 1
 151 359 l 1
 516 713 l 1
 580 713 l 1
 349 486 l 1
EndSplineSet
Validated: 1
EndChar

StartChar: L
Encoding: 76 76 45
Width: 616
VWidth: 1467
Flags: W
HStem: -1 38<255.993 565> 696 20G<103 150>
VStem: 103 47<133.734 716>
LayerCount: 2
Fore
SplineSet
150 246 m 2
 150 79 246 37 361 37 c 2
 565 37 l 1
 565 -1 l 1
 464 -1 l 2
 404 -1 384 0 364 0 c 0
 190 3 103 53 103 263 c 2
 103 716 l 1
 150 716 l 1
 150 246 l 2
EndSplineSet
Validated: 1
EndChar

StartChar: M
Encoding: 77 77 46
Width: 836
VWidth: 1467
Flags: W
HStem: 0 21G<103 147 700 744> 695 20G<103 177 658.5 744>
VStem: 103 44<0 668> 700 44<0 669>
LayerCount: 2
Fore
SplineSet
145 479 m 2
 145 366 147 309 147 196 c 2
 147 0 l 1
 103 0 l 1
 103 715 l 1
 147 715 l 1
 207 686 345 586 424 465 c 1
 503 584 623 677 694 715 c 1
 744 715 l 1
 744 0 l 1
 700 0 l 1
 700 669 l 1
 649 655 450 461 423 387 c 1
 345 528 212 639 145 668 c 1
 145 479 l 2
EndSplineSet
Validated: 1
EndChar

StartChar: N
Encoding: 78 78 47
Width: 721
VWidth: 1467
Flags: W
HStem: 0 14G<103 154.066 512.765 546.5> 695 20G<103 159.084 582 628>
VStem: 103 51<0 603> 582 46<53.3932 715>
LayerCount: 2
Fore
SplineSet
550 48 m 1
 572 54 582 68 582 150 c 2
 582 715 l 1
 628 715 l 1
 628 134 l 2
 628 18 568 -5 525 -7 c 1
 254 436 l 2
 194 536 164 585 156 603 c 1
 154 0 l 1
 103 0 l 1
 103 715 l 1
 147 715 l 1
 550 48 l 1
EndSplineSet
Validated: 1
EndChar

StartChar: O
Encoding: 79 79 48
Width: 705
VWidth: 1467
Flags: W
HStem: -16 37<258.415 450.532> 691 38<259.093 454.172>
VStem: 103 45<112.825 599.175> 563 47<111.966 600.034>
LayerCount: 2
Fore
SplineSet
354 -16 m 0
 237 -16 103 42 103 172 c 2
 103 541 l 2
 103 671 237 729 354 729 c 0
 473 729 610 674 610 541 c 2
 610 172 l 2
 610 38 472 -16 354 -16 c 0
356 691 m 0
 254 691 148 634 148 521 c 2
 148 191 l 2
 148 78 253 21 353 21 c 0
 456 21 563 76 563 191 c 2
 563 521 l 2
 563 636 457 691 356 691 c 0
EndSplineSet
Validated: 1
EndChar

StartChar: P
Encoding: 80 80 49
Width: 669
VWidth: 1467
Flags: W
HStem: 0 21G<103 147> 274 40<148 441.609> 673 39<148 439.15>
VStem: 103 45<0 274 314 673> 544 44<396.692 569.416>
LayerCount: 2
Fore
SplineSet
148 274 m 1
 148 137 147 110 147 0 c 1
 103 0 l 1
 103 712 l 1
 359 712 l 2
 432 712 585 668 588 477 c 0
 588 343 474 274 355 274 c 2
 148 274 l 1
355 314 m 2
 370 314 544 328 544 472 c 0
 544 628 424 673 364 673 c 2
 148 673 l 1
 148 314 l 1
 355 314 l 2
EndSplineSet
Validated: 1
EndChar

StartChar: Q
Encoding: 81 81 50
Width: 705
VWidth: 1467
Flags: W
HStem: -101 39<513.954 613> -14 36<264.955 419.404> 693 36<266.894 453.345>
VStem: 104 47<113.825 598.586> 566 47<112.966 603.357>
LayerCount: 2
Fore
SplineSet
601 -62 m 0
 613 -62 l 1
 613 -101 l 1
 524 -101 452 -72 412 -10 c 1
 394 -13 375 -14 357 -14 c 0
 221 -14 104 56 104 173 c 2
 104 543 l 2
 104 673 239 729 358 729 c 0
 478 729 613 673 613 543 c 2
 613 173 l 2
 613 69 527 20 461 0 c 1
 477 -21 514 -62 601 -62 c 0
358 693 m 0
 258 693 151 635 151 522 c 2
 151 192 l 2
 151 79 256 22 356 22 c 0
 459 22 566 77 566 192 c 2
 566 522 l 2
 566 642 453 693 358 693 c 0
EndSplineSet
Validated: 1
EndChar

StartChar: R
Encoding: 82 82 51
Width: 642
VWidth: 1467
Flags: W
HStem: -3 21G<103 148 514 560> 343 40<148 370.81> 672 38<150 427.075>
VStem: 103 45<-1 343 383 672> 508 43<437.151 601.206> 515 45<-3 228.953>
LayerCount: 2
Fore
SplineSet
551 515 m 0xf8
 551 429 507 379 423 357 c 1
 542 311 560 205 560 123 c 2
 560 -3 l 1
 514 -3 l 1
 514 -3 515 120 515 125 c 0xf4
 515 292 392 339 239 343 c 2
 148 343 l 1
 148 -1 l 1
 103 -1 l 1
 103 710 l 1
 321 710 l 2
 440 710 551 671 551 515 c 0xf8
150 540 m 2
 150 488 148 457 148 383 c 1
 318 383 l 2
 406 391 508 393 508 509 c 0xf8
 508 648 410 672 326 672 c 2
 150 672 l 1
 150 540 l 2
EndSplineSet
Validated: 1
EndChar

StartChar: S
Encoding: 83 83 52
Width: 695
VWidth: 1467
Flags: W
HStem: -16 35<241.428 446.006> 582 21G<515 575> 701 31<257.064 429.607>
VStem: 82 49<96.4602 144> 102 49<461.336 615.96> 528 47<582 625.895> 560 45<110.151 263.966>
LayerCount: 2
Fore
SplineSet
439 328 m 0xf2
 355 352 307 347 224 375 c 0
 130 407 102 467 102 536 c 0
 102 671 229 732 346 732 c 0
 434 732 549 697 575 582 c 1
 528 582 l 1
 502 677 411 701 340 701 c 0
 230 701 151 635 151 535 c 0xec
 151 483 170 431 271 404 c 0
 353 381 405 386 484 358 c 0
 580 323 605 257 605 190 c 0
 605 25 440 -16 343 -16 c 0
 221 -16 105 33 82 144 c 1
 131 144 l 1
 151 55 254 19 349 19 c 0
 466 19 560 86 560 187 c 0
 560 269 508 307 439 328 c 0xf2
EndSplineSet
Validated: 1
EndChar

StartChar: T
Encoding: 84 84 53
Width: 689
VWidth: 1467
Flags: W
HStem: 0 21G<320 367> 669 46<79 320 367 610>
VStem: 320 47<0 669>
LayerCount: 2
Fore
SplineSet
610 715 m 1
 610 668 l 1
 367 669 l 1
 367 0 l 1
 320 0 l 1
 320 669 l 1
 79 669 l 1
 79 715 l 1
 610 715 l 1
EndSplineSet
Validated: 1
EndChar

StartChar: U
Encoding: 85 85 54
Width: 705
VWidth: 1467
Flags: W
HStem: -15 37<261.224 453.301> 695 20G<104 151 566 613>
VStem: 104 47<113.825 715> 566 47<112.966 715>
LayerCount: 2
Fore
SplineSet
356 22 m 0
 459 22 566 77 566 192 c 2
 566 715 l 1
 613 715 l 1
 613 173 l 2
 613 41 473 -15 358 -15 c 0
 239 -15 104 41 104 173 c 2
 104 715 l 1
 151 715 l 1
 151 192 l 2
 151 79 256 22 356 22 c 0
EndSplineSet
Validated: 1
EndChar

StartChar: V
Encoding: 86 86 55
Width: 685
VWidth: 1467
Flags: W
HStem: -10 48<304.606 390.855> 695 20G<70 121.231 569.775 621>
LayerCount: 2
Fore
SplineSet
484 170 m 2
 478 142 456 -10 345 -10 c 0
 239 -10 219 121 207 170 c 2
 70 715 l 1
 116 715 l 1
 252 195 l 2
 277 99 295 38 348 38 c 0
 379 38 403 58 424 137 c 2
 575 715 l 1
 621 715 l 1
 484 170 l 2
EndSplineSet
Validated: 1
EndChar

StartChar: W
Encoding: 87 87 56
Width: 872
VWidth: 1467
Flags: W
HStem: -1 21G<188.662 277 583 671.647> 692 20G<73 120.62 741.5 798>
VStem: 753 45<673.608 712>
LayerCount: 2
Fore
SplineSet
434 437 m 1
 424 265 319 37 235 -1 c 1
 192 -1 l 1
 73 712 l 1
 117 712 l 1
 235 60 l 1
 368 193 397 442 431 566 c 1
 486 425 555 97 624 62 c 1
 676 322 730 581 753 712 c 1
 798 712 l 1
 668 -1 l 1
 625 -1 l 1
 541 34 456 292 434 437 c 1
EndSplineSet
Validated: 1
EndChar

StartChar: X
Encoding: 88 88 57
Width: 786
VWidth: 1467
Flags: W
HStem: -1 21G<100.389 147 641 687.5> 696 20G<87 163.457 622.543 700>
LayerCount: 2
Fore
SplineSet
703 -1 m 1
 641 0 l 1
 393 320 l 1
 147 0 l 1
 85 -1 l 1
 362 359 l 1
 87 716 l 1
 148 716 l 1
 393 399 l 1
 638 716 l 1
 700 716 l 1
 424 359 l 1
 703 -1 l 1
EndSplineSet
Validated: 1
EndChar

StartChar: Y
Encoding: 89 89 58
Width: 679
VWidth: 1467
Flags: W
HStem: -3 21G<313 359> 692 20G<62 124.994 550.506 612>
VStem: 313 46<-3 309.252>
LayerCount: 2
Fore
SplineSet
612 712 m 1
 402 340 l 2
 390 321 376 306 359 296 c 1
 359 -3 l 1
 313 -3 l 1
 313 295 l 1
 290 306 283 316 267 345 c 2
 62 712 l 1
 114 712 l 1
 302 370 l 2
 315 346 324 335 333 335 c 0
 342 335 351 345 362 364 c 2
 562 712 l 1
 612 712 l 1
EndSplineSet
Validated: 1
EndChar

StartChar: Z
Encoding: 90 90 59
Width: 752
VWidth: 1467
Flags: W
HStem: -1 49<177.997 654> 666 47<98 581>
LayerCount: 2
Fore
SplineSet
153 106 m 1
 169 58 207 48 246 48 c 2
 654 48 l 1
 654 -1 l 1
 230 -1 l 2
 125 -1 89 70 89 117 c 1
 102 130 581 666 581 666 c 1
 98 668 l 1
 98 713 l 1
 654 713 l 1
 654 669 l 1
 153 106 l 1
EndSplineSet
Validated: 1
EndChar

StartChar: bracketleft
Encoding: 91 91 60
Width: 286
VWidth: 1467
Flags: W
HStem: -117 30<141 288> 694 29<141 288>
VStem: 103 38<-87 694>
LayerCount: 2
Fore
SplineSet
103 -117 m 1
 103 723 l 1
 288 723 l 1
 288 694 l 1
 141 694 l 1
 141 -87 l 1
 288 -87 l 1
 288 -117 l 1
 103 -117 l 1
EndSplineSet
Validated: 1
EndChar

StartChar: backslash
Encoding: 92 92 61
Width: 390
VWidth: 1467
Flags: W
HStem: 702 20G<-7 47.765>
LayerCount: 2
Fore
SplineSet
-7 722 m 1
 38 722 l 1
 412 -44 l 1
 371 -44 l 1
 -7 722 l 1
EndSplineSet
Validated: 1
EndChar

StartChar: bracketright
Encoding: 93 93 62
Width: 284
VWidth: 1467
Flags: W
HStem: -117 30<0 147> 694 29<0 147>
VStem: 147 38<-87 694>
LayerCount: 2
Fore
SplineSet
0 -117 m 1
 0 -87 l 1
 147 -87 l 1
 147 694 l 1
 0 694 l 1
 0 723 l 1
 185 723 l 1
 185 -117 l 1
 0 -117 l 1
EndSplineSet
Validated: 1
EndChar

StartChar: asciicircum
Encoding: 94 94 63
Width: 629
VWidth: 1467
Flags: W
HStem: 697 20G<302.5 327>
LayerCount: 2
Fore
SplineSet
318 588 m 1
 287 429 202 292 139 210 c 1
 85 210 l 1
 204 341 290 578 315 717 c 1
 339 611 409 375 547 210 c 1
 492 210 l 1
 351 412 325 555 318 588 c 1
EndSplineSet
Validated: 1
EndChar

StartChar: underscore
Encoding: 95 95 64
Width: 528
VWidth: 1467
Flags: W
HStem: -248 32<0 528>
LayerCount: 2
Fore
SplineSet
0 -248 m 1
 0 -216 l 1
 528 -216 l 1
 528 -248 l 1
 0 -248 l 1
EndSplineSet
Validated: 1
EndChar

StartChar: grave
Encoding: 96 96 65
Width: 316
VWidth: 1467
Flags: W
HStem: 527 207<180 182>
VStem: 107 119
LayerCount: 2
Fore
SplineSet
107 734 m 1
 182 734 l 1
 226 527 l 1
 180 527 l 1
 107 734 l 1
EndSplineSet
Validated: 1
EndChar

StartChar: a
Encoding: 97 97 66
Width: 560
VWidth: 1467
Flags: W
HStem: -13 39<144.774 328.885> -6 21G<455.5 473> 478 37<144.404 348.09>
VStem: 54 44<64.9502 182.16> 421 47<106 299 329.203 417.498>
LayerCount: 2
Fore
SplineSet
421 299 m 1xb8
 386 274 355 256 308 248 c 2
 239 234 l 2
 127 212 98 171 98 129 c 0
 98 67 138 26 238 26 c 0
 286 26 341 44 382 76 c 2
 421 106 l 1
 421 299 l 1xb8
227 -13 m 0
 157 -13 54 12 54 129 c 0
 54 263 202 258 308 283 c 0
 366 296 417 332 417 364 c 0
 417 409 377 478 258 478 c 0
 201 478 130 460 70 431 c 1
 79 478 l 1
 125 500 181 515 245 515 c 0
 341 515 468 486 468 362 c 2
 468 101 l 2
 468 61 473 46 502 23 c 1
 490 10 478 3 468 -6 c 1x78
 443 3 425 26 421 56 c 1
 382 23 305 -13 227 -13 c 0
EndSplineSet
Validated: 1
Substitution2: "Single Substitution lookup 22 subtable" uni0E38
Substitution2: "Single Substitution lookup 22 subtable" uni0E38
EndChar

StartChar: b
Encoding: 98 98 67
Width: 630
VWidth: 1467
Flags: W
HStem: -6 37<249.022 408.373> 479 35<257.713 401.607> 684 20G<120 166>
VStem: 120 46<88.4902 413.521 446 704> 518 46<145.012 360.375>
LayerCount: 2
Fore
SplineSet
329 514 m 0
 451 514 564 413 564 252 c 0
 564 160 521 -6 348 -6 c 0
 311 -6 248 2 200 34 c 2
 166 57 l 1
 162 28 144 3 120 -6 c 1
 107 7 98 11 87 25 c 1
 114 45 120 58 120 103 c 2
 120 704 l 1
 166 704 l 1
 166 446 l 1
 199 495 293 514 329 514 c 0
332 31 m 0
 458 31 518 141 518 258 c 0
 518 394 421 479 330 479 c 0
 270 479 197 437 166 386 c 1
 166 107 l 1
 243 35 301 31 332 31 c 0
EndSplineSet
Validated: 1
Substitution2: "Single Substitution lookup 22 subtable" uni0E39
Substitution2: "Single Substitution lookup 22 subtable" uni0E39
EndChar

StartChar: c
Encoding: 99 99 68
Width: 619
VWidth: 1467
Flags: W
HStem: -5 34<246.232 432.15> 483 34<245.382 432.861>
VStem: 101 47<103.376 409.064>
LayerCount: 2
Fore
SplineSet
547 100 m 1
 496 -3 352 -5 329 -5 c 0
 170 -5 101 87 101 145 c 2
 101 367 l 2
 101 443 195 517 329 517 c 0
 399 517 505 496 547 412 c 1
 508 396 l 1
 474 477 372 483 338 483 c 0
 205 483 148 403 148 348 c 2
 148 164 l 2
 148 101 215 29 338 29 c 0
 372 29 474 35 508 116 c 1
 547 100 l 1
EndSplineSet
Validated: 1
Substitution2: "Single Substitution lookup 22 subtable" uni0E3A
Substitution2: "Single Substitution lookup 22 subtable" uni0E3A
EndChar

StartChar: d
Encoding: 100 100 69
Width: 595
VWidth: 1467
Flags: W
HStem: -6 37<220.88 386.679> 479 34<234.138 375.627> 684 20G<470 514>
VStem: 71 45<144.459 357.021> 470 44<88.4902 412.407 446 704>
LayerCount: 2
Fore
SplineSet
301 513 m 0
 361 513 439 488 470 446 c 1
 470 704 l 1
 514 704 l 1
 514 103 l 2
 514 58 520 45 547 25 c 1
 530 9 525 7 512 -6 c 1
 489 3 475 30 470 57 c 1
 436 34 l 2
 388 1 323 -6 286 -6 c 0
 114 -6 71 159 71 252 c 0
 71 406 177 513 301 513 c 0
302 31 m 0
 335 31 393 35 470 107 c 1
 470 386 l 1
 438 434 366 479 305 479 c 0
 208 479 116 390 116 253 c 0
 116 153 168 31 302 31 c 0
EndSplineSet
Validated: 1
EndChar

StartChar: e
Encoding: 101 101 70
Width: 619
VWidth: 1467
Flags: W
HStem: -9 34<246.645 435.005> 220 40<150 481.494> 478 36<242.732 418.062>
VStem: 103 47<100.421 220 260 402.839> 508 45<281.522 403.576>
LayerCount: 2
Fore
SplineSet
549 95 m 1
 498 -7 358 -9 333 -9 c 0
 188 -9 103 69 103 141 c 2
 103 362 l 2
 103 447 217 514 322 514 c 0
 438 514 553 449 553 334 c 0
 553 237 501 220 337 220 c 2
 150 220 l 1
 150 160 l 2
 150 105 208 25 342 25 c 0
 383 25 476 32 509 112 c 1
 549 95 l 1
508 337 m 0
 508 410 437 478 331 478 c 0
 216 478 150 401 150 343 c 2
 150 260 l 1
 387 260 l 2
 452 260 508 267 508 337 c 0
EndSplineSet
Validated: 1
EndChar

StartChar: f
Encoding: 102 102 71
Width: 369
VWidth: 1467
Flags: W
HStem: -25 21G<86 115.5> 465 40<150 264> 668 38<199.295 315>
VStem: 103 47<14.7066 465 505 623.657>
LayerCount: 2
Fore
SplineSet
103 499 m 2
 103 653 142 706 291 706 c 2
 315 706 l 1
 315 668 l 1
 289 668 l 2
 191 668 150 633 150 528 c 2
 150 505 l 1
 264 505 l 1
 264 465 l 1
 150 465 l 1
 150 37 l 2
 146 7 128 -16 103 -25 c 1
 86 -12 l 2
 81 -8 75 -3 69 4 c 1
 93 22 103 35 103 82 c 2
 103 499 l 2
EndSplineSet
Validated: 1
EndChar

StartChar: g
Encoding: 103 103 72
Width: 595
VWidth: 1467
Flags: W
HStem: -224 36<277 407.035> -7 32<226.068 355.785> 474 37<207.743 372.946>
VStem: 56 45<143.749 358.585> 455 45<-146.331 59 93.4505 415.241 447 470.109>
LayerCount: 2
Fore
SplineSet
455 -60 m 2
 455 59 l 1
 425 21 367 -7 302 -7 c 0
 187 -7 56 69 56 257 c 0
 56 375 120 511 261 511 c 0
 377 511 415 478 455 447 c 1
 455 449 l 1
 460 477 475 501 500 511 c 1
 534 481 l 1
 505 459 500 444 500 403 c 2
 500 -23 l 2
 500 -181 460 -224 320 -224 c 2
 277 -224 l 1
 277 -188 l 1
 323 -188 l 2
 431 -188 455 -137 455 -60 c 2
296 25 m 0
 341 25 420 66 455 120 c 1
 455 399 l 1
 373 474 317 474 287 474 c 0
 138 474 101 329 101 248 c 0
 101 98 213 25 296 25 c 0
EndSplineSet
Validated: 1
EndChar

StartChar: h
Encoding: 104 104 73
Width: 591
VWidth: 1467
Flags: W
HStem: 0 22G<104 151 464 508> 470 45<262.027 411.013> 686 20G<98.5 116>
VStem: 104 47<0 321.499 361 665.541> 464 44<1 407.337>
LayerCount: 2
Fore
SplineSet
151 361 m 1
 177 456 230 515 349 515 c 0
 464 515 508 414 508 308 c 2
 508 1 l 1
 464 1 l 1
 464 286 l 2
 464 427 414 470 339 470 c 0
 209 470 162 323 151 229 c 2
 151 0 l 1
 104 0 l 1
 104 599 l 2
 104 640 97 655 70 676 c 1
 83 692 93 696 104 706 c 1
 128 696 147 673 151 644 c 2
 151 361 l 1
EndSplineSet
Validated: 1
EndChar

StartChar: i
Encoding: 105 105 74
Width: 246
VWidth: 1467
Flags: W
HStem: -26 21G<139 166> 584 115<94.123 160.366>
VStem: 85 85<591.55 691.526> 103 48<11.8875 499>
LayerCount: 2
Fore
SplineSet
150 -26 m 1xd0
 128 -18 103 11 103 35 c 2
 103 499 l 1
 151 499 l 1
 151 81 l 2
 151 34 157 23 183 3 c 1
 178 -4 172 -9 166 -14 c 2
 150 -26 l 1xd0
128 699 m 0
 153 699 170 674 170 641 c 0
 170 612 152 584 128 584 c 0
 102 584 85 610 85 638 c 0xe0
 85 684 111 699 128 699 c 0
EndSplineSet
Validated: 1
EndChar

StartChar: j
Encoding: 106 106 75
Width: 313
VWidth: 1467
Flags: W
HStem: -226 40<6 122.813> 584 115<160.415 226.366>
VStem: 151 85<591.379 691.526> 172 48<-140.784 499>
LayerCount: 2
Fore
SplineSet
32 -186 m 2xd0
 166 -186 172 -119 172 -19 c 2
 172 499 l 1
 220 499 l 1
 220 -18 l 2
 220 -157 190 -226 31 -226 c 2
 6 -226 l 1
 6 -186 l 1
 32 -186 l 2xd0
194 699 m 0
 219 699 236 674 236 641 c 0
 236 612 218 584 194 584 c 0
 169 584 151 608 151 638 c 0xe0
 151 684 177 699 194 699 c 0
EndSplineSet
Validated: 1
EndChar

StartChar: k
Encoding: 107 107 76
Width: 559
VWidth: 1467
Flags: W
HStem: 1 21G<101 148 431 480> 482 20G<391.213 471> 687 20G<96 117.5>
VStem: 101 47<0 185 248 667.036> 431 49<1 246.197>
LayerCount: 2
Fore
SplineSet
101 707 m 1
 134 695 148 660 148 646 c 2
 148 248 l 1
 412 502 l 1
 471 502 l 1
 314 348 l 1
 418 332 480 280 480 161 c 2
 480 1 l 1
 431 1 l 1
 431 168 l 2
 431 202 425 299 282 314 c 1
 148 185 l 1
 148 0 l 1
 101 0 l 1
 101 600 l 2
 101 640 96 656 67 678 c 1
 79 691 91 698 101 707 c 1
EndSplineSet
Validated: 1
EndChar

StartChar: l
Encoding: 108 108 77
Width: 240
VWidth: 1467
Flags: W
HStem: -26 21G<137.5 155> 684 20G<86 119.5>
VStem: 101 49<13.0111 666.113>
LayerCount: 2
Fore
SplineSet
103 704 m 1
 136 692 150 657 150 643 c 2
 150 82 l 2
 150 37 156 24 182 4 c 1
 170 -9 162 -14 148 -26 c 1
 127 -18 101 12 101 37 c 2
 101 597 l 2
 101 644 95 655 69 675 c 1
 75 682 81 687 86 692 c 1
 103 704 l 1
EndSplineSet
Validated: 1
EndChar

StartChar: m
Encoding: 109 109 78
Width: 724
VWidth: 1467
Flags: W
HStem: -8 7G<103 151 346 392 625 649> 470 39<228.631 314.223 472.133 556.724> 483 20G<86 118>
VStem: 103 48<-1 328.986 377 462.116> 346 46<-1 340.734> 590 45<7.27188 433.79>
LayerCount: 2
Fore
SplineSet
516 509 m 0xdc
 587 509 635 456 635 307 c 2
 635 72 l 2
 635 34 639 19 666 -1 c 1
 660 -7 654 -12 649 -16 c 2
 634 -29 l 1
 616 -21 590 5 590 28 c 2
 590 283 l 2
 590 347 590 470 517 470 c 0xdc
 485 470 465 451 437 400 c 0
 397 328 392 223 392 144 c 2
 392 -1 l 1
 346 -1 l 1
 346 283 l 2
 346 354 346 471 270 471 c 0
 231 471 201 430 173 329 c 0
 160 283 151 229 151 172 c 2
 151 -1 l 1
 103 -1 l 1
 103 395 l 2
 103 440 93 454 69 474 c 1
 75 480 81 485 86 490 c 2
 103 503 l 1xbc
 133 492 151 458 151 442 c 2
 151 377 l 1
 188 509 243 511 266 511 c 0
 360 511 379 427 384 392 c 1
 428 505 490 509 516 509 c 0xdc
EndSplineSet
Validated: 1
EndChar

StartChar: n
Encoding: 110 110 79
Width: 600
VWidth: 1467
Flags: W
HStem: -7 7G<101 150 492 523> 468 47<268.623 412.236> 485 20G<97.5 114>
VStem: 101 49<0 292.078 318 465.297> 464 44<7.3927 407.337>
LayerCount: 2
Fore
SplineSet
349 515 m 256xd8
 464 515 508 414 508 308 c 2
 508 78 l 2
 508 36 510 22 538 0 c 1
 533 -6 528 -11 523 -16 c 2
 508 -28 l 1
 476 -16 464 16 464 29 c 2
 464 285 l 2
 464 429 414 468 339 468 c 0xd8
 226 468 168 331 150 188 c 2
 150 0 l 1
 101 0 l 1
 101 396 l 2
 101 442 95 454 69 475 c 1
 81 487 92 497 103 505 c 1xb8
 125 495 150 468 150 443 c 2
 150 318 l 1
 170 401 226 515 349 515 c 256xd8
EndSplineSet
Validated: 1
EndChar

StartChar: o
Encoding: 111 111 80
Width: 604
VWidth: 1467
Flags: W
HStem: -13 36<218.148 384.532> 474 35<219.141 385.437>
VStem: 75 47<109.253 387.861> 486 45<108.51 386.84>
LayerCount: 2
Fore
SplineSet
531 172 m 2
 531 47 418 -13 306 -13 c 0
 194 -13 75 49 75 172 c 2
 75 324 l 2
 75 450 191 509 303 509 c 0
 415 509 531 450 531 324 c 2
 531 172 l 2
302 474 m 0
 207 474 122 413 122 307 c 2
 122 191 l 2
 122 76 216 23 303 23 c 0
 385 23 486 75 486 191 c 2
 486 305 l 2
 486 418 393 474 302 474 c 0
EndSplineSet
Validated: 1
EndChar

StartChar: p
Encoding: 112 112 81
Width: 619
VWidth: 1467
Flags: W
HStem: -5 33<246.221 377.551> 477 37<234.973 398.797>
VStem: 101 49<-186 62 95.7433 420.947 450 474.017> 503 45<149.666 364.606>
LayerCount: 2
Fore
SplineSet
343 514 m 0
 484 514 548 380 548 256 c 0
 548 74 423 -5 308 -5 c 0
 261 -5 179 19 150 62 c 1
 150 -186 l 1
 101 -186 l 1
 101 406 l 2
 101 453 91 466 67 484 c 1
 86 500 l 2
 92 506 98 510 103 514 c 1
 125 504 146 479 150 452 c 1
 150 450 l 1
 199 490 241 514 343 514 c 0
309 28 m 0
 379 28 503 86 503 255 c 0
 503 374 433 477 328 477 c 0
 293 477 229 476 150 402 c 1
 150 123 l 1
 184 67 263 28 309 28 c 0
EndSplineSet
Validated: 1
EndChar

StartChar: q
Encoding: 113 113 82
Width: 611
VWidth: 1467
Flags: W
HStem: -213 21G<505 522.5> -5 33<240.731 371.09> 477 37<219.626 383.738>
VStem: 71 45<151.43 363.211> 470 48<-173.113 62 97.865 418.041 450 474.813>
LayerCount: 2
Fore
SplineSet
550 484 m 1
 521 462 518 447 518 406 c 2
 518 -104 l 2
 518 -151 524 -162 550 -182 c 1
 538 -196 529 -200 516 -213 c 1
 494 -203 473 -177 470 -150 c 2
 470 62 l 1
 438 18 365 -5 313 -5 c 0
 197 -5 71 76 71 256 c 0
 71 376 134 514 276 514 c 0
 392 514 430 481 470 450 c 1
 470 463 480 497 516 514 c 1
 526 506 537 496 550 484 c 1
116 256 m 0
 116 104 224 28 310 28 c 0
 359 28 437 73 470 123 c 1
 470 402 l 1
 389 476 324 477 291 477 c 0
 184 477 116 371 116 256 c 0
EndSplineSet
Validated: 1
EndChar

StartChar: r
Encoding: 114 114 83
Width: 365
VWidth: 1467
Flags: W
HStem: -26 21G<96.5 119> 467 38<230.011 315>
VStem: 102 48<12.2715 361.787 408 503>
LayerCount: 2
Fore
SplineSet
284 505 m 2
 315 505 l 1
 315 467 l 1
 289 467 l 2
 175 467 150 312 150 209 c 2
 150 35 l 2
 150 20 135 -14 103 -26 c 1
 90 -18 80 -9 69 3 c 1
 99 26 102 38 102 81 c 2
 102 503 l 1
 146 503 l 1
 146 408 l 1
 183 479 230 505 284 505 c 2
EndSplineSet
Validated: 1
EndChar

StartChar: s
Encoding: 115 115 84
Width: 490
VWidth: 1467
Flags: W
HStem: -18 41<148.92 343.911> 475 43<166.626 349.229>
VStem: 57 50<59.3337 97> 77 51<313.907 440.021> 381 44<411 448.79> 389 48<62.567 189.833>
LayerCount: 2
Fore
SplineSet
254 23 m 0xe4
 320 23 389 44 389 128 c 0xe4
 389 197 337 229 232 244 c 0
 101 262 77 315 77 384 c 0
 77 464 154 518 251 518 c 0
 346 518 415 469 425 411 c 1
 381 411 l 1
 369 466 317 475 248 475 c 0
 194 475 128 456 128 379 c 0xd8
 128 318 156 284 282 268 c 0
 371 257 437 219 437 125 c 0
 437 39 356 -18 249 -18 c 0
 167 -18 72 16 57 97 c 1
 107 97 l 1
 124 38 177 23 254 23 c 0xe4
EndSplineSet
Validated: 1
EndChar

StartChar: t
Encoding: 116 116 85
Width: 360
VWidth: 1467
Flags: W
HStem: -3 38<203.036 315> 464 38<150 264>
VStem: 103 47<83.6366 464 502 653.098>
LayerCount: 2
Fore
SplineSet
150 179 m 2
 150 91 173 35 289 35 c 2
 315 35 l 1
 315 -3 l 1
 291 -3 l 2
 141 -3 103 50 103 205 c 2
 103 585 l 2
 103 624 98 641 69 665 c 1
 81 676 92 686 103 694 c 1
 136 682 150 648 150 632 c 2
 150 502 l 1
 264 502 l 1
 264 464 l 1
 150 464 l 1
 150 179 l 2
EndSplineSet
Validated: 1
EndChar

StartChar: u
Encoding: 117 117 86
Width: 592
VWidth: 1467
Flags: W
HStem: -16 37<231.955 367.751> 482 21G<103 150 452 499>
VStem: 103 47<100.982 503> 452 47<103.593 502>
LayerCount: 2
Fore
SplineSet
304 21 m 0
 363 21 452 72 452 194 c 2
 452 502 l 1
 499 502 l 1
 499 92 l 2
 499 48 505 36 531 16 c 1
 525 10 519 5 514 0 c 1
 497 -12 l 1
 473 -1 456 22 452 48 c 1
 418 11 365 -16 301 -16 c 0
 203 -16 103 48 103 175 c 2
 103 503 l 1
 150 503 l 1
 150 194 l 2
 150 91 212 21 304 21 c 0
EndSplineSet
Validated: 1
EndChar

StartChar: v
Encoding: 118 118 87
Width: 473
VWidth: 1467
Flags: W
HStem: -10 38<214.521 259.776> 482 20G<57 108.633 363.601 415>
LayerCount: 2
Fore
SplineSet
335 153 m 2
 314 76 309 -10 238 -10 c 256
 169 -10 164 52 141 136 c 2
 57 502 l 1
 104 502 l 1
 183 161 l 2
 188 144 200 28 238 28 c 0
 273 28 287 137 293 161 c 2
 368 502 l 1
 415 502 l 1
 335 153 l 2
EndSplineSet
Validated: 1
EndChar

StartChar: w
Encoding: 119 119 88
Width: 682
VWidth: 1467
Flags: W
HStem: 0 21G<141.62 211 459 533.618> 483 20G<60 110.608 556.5 621>
LayerCount: 2
Fore
SplineSet
340 266 m 1
 286 78 234 28 188 0 c 1
 145 0 l 1
 60 503 l 1
 107 503 l 1
 188 54 l 1
 252 96 297 254 339 393 c 1
 383 271 415 100 486 57 c 1
 511 191 538 318 575 503 c 1
 621 503 l 1
 530 0 l 1
 487 0 l 1
 431 30 399 67 340 266 c 1
EndSplineSet
Validated: 1
EndChar

StartChar: x
Encoding: 120 120 89
Width: 536
VWidth: 1467
Flags: W
HStem: 0 21G<41 116.64 412.645 489> 482 20G<41 116.64 412.645 490>
LayerCount: 2
Fore
SplineSet
101 502 m 1
 266 291 l 1
 428 502 l 1
 490 502 l 1
 295 251 l 1
 489 0 l 1
 428 0 l 1
 266 211 l 1
 101 0 l 1
 41 0 l 1
 235 251 l 1
 41 502 l 1
 101 502 l 1
EndSplineSet
Validated: 1
EndChar

StartChar: y
Encoding: 121 121 90
Width: 592
VWidth: 1467
Flags: W
HStem: -226 40<283 403.11> -15 37<229.684 368.8> 483 20G<101 148>
VStem: 101 47<104.114 503> 449 48<-141.381 48 94.5581 493.601>
LayerCount: 2
Fore
SplineSet
304 22 m 0
 374 22 449 87 449 166 c 2
 449 472 l 2
 449 487 470 521 497 533 c 1
 513 520 l 1
 530 503 l 1
 502 482 497 469 497 427 c 2
 497 -18 l 2
 497 -149 475 -226 308 -226 c 2
 283 -226 l 1
 283 -186 l 1
 311 -186 l 2
 436 -186 449 -127 449 -38 c 2
 449 48 l 1
 441 40 389 -15 299 -15 c 0
 198 -15 101 55 101 176 c 2
 101 503 l 1
 148 503 l 1
 148 195 l 2
 148 96 210 22 304 22 c 0
EndSplineSet
Validated: 1
EndChar

StartChar: z
Encoding: 122 122 91
Width: 619
VWidth: 1467
Flags: W
HStem: -1 49<180.662 534> 456 47<98 461>
LayerCount: 2
Fore
SplineSet
534 48 m 1
 534 -1 l 1
 230 -1 l 2
 150 -1 91 46 91 116 c 1
 96 121 108 132 127 150 c 2
 426 422 l 2
 444 438 456 450 461 456 c 1
 98 456 l 1
 98 503 l 1
 534 503 l 1
 534 459 l 1
 154 104 l 1
 158 91 167 78 180 66 c 0
 194 54 216 48 246 48 c 2
 534 48 l 1
EndSplineSet
Validated: 1
EndChar

StartChar: braceleft
Encoding: 123 123 92
Width: 255
VWidth: 1467
Flags: W
HStem: 715 35<222.249 257>
VStem: 104 41<20.0413 271.808 349.72 619.499>
LayerCount: 2
Fore
SplineSet
145 255 m 2
 145 144 l 2
 145 -25 223 -66 257 -78 c 1
 257 -116 l 1
 211 -105 174 -80 146 -38 c 0
 118 2 104 66 104 151 c 2
 104 260 l 1
 73 280 40 297 6 310 c 1
 40 322 74 343 104 362 c 1
 104 484 l 2
 104 568 118 631 146 672 c 0
 174 713 211 739 257 750 c 1
 257 715 l 1
 191 694 145 626 145 490 c 2
 145 364 l 2
 145 342 99 320 78 313 c 1
 143 290 145 265 145 255 c 2
EndSplineSet
Validated: 1
EndChar

StartChar: bar
Encoding: 124 124 93
Width: 231
VWidth: 1467
Flags: W
VStem: 104 35<-261 791>
LayerCount: 2
Fore
SplineSet
104 -261 m 1
 104 791 l 1
 139 791 l 1
 139 -261 l 1
 104 -261 l 1
EndSplineSet
Validated: 1
EndChar

StartChar: braceright
Encoding: 125 125 94
Width: 262
VWidth: 1467
Flags: W
HStem: -116 38<3 38.8997> 715 35<3 35.2182>
VStem: 116 41<18.9536 272.283 349.801 618.62>
LayerCount: 2
Fore
SplineSet
254 310 m 1
 221 297 187 279 157 260 c 1
 157 151 l 2
 157 66 142 2 114 -38 c 0
 84 -80 48 -105 3 -116 c 1
 3 -78 l 1
 37 -67 116 -27 116 144 c 2
 116 263 l 2
 116 283 158 304 183 313 c 1
 153 322 116 344 116 364 c 2
 116 492 l 2
 116 628 69 695 3 715 c 1
 3 750 l 1
 126 721 157 605 157 484 c 2
 157 362 l 1
 203 332 234 317 254 310 c 1
EndSplineSet
Validated: 1
EndChar

StartChar: asciitilde
Encoding: 126 126 95
Width: 658
VWidth: 1467
Flags: W
HStem: 227 43<398.495 542.517> 332 42<127.057 252.63>
VStem: 62 29<227 284.386> 574 30<313.408 374>
LayerCount: 2
Fore
SplineSet
490 270 m 0
 537 270 574 311 574 374 c 1
 604 374 l 1
 604 364 l 2
 604 250 530 227 487 227 c 0
 362 227 259 332 180 332 c 0
 136 332 91 294 91 227 c 1
 62 227 l 1
 62 238 l 2
 62 339 133 374 180 374 c 0
 261 374 388 270 490 270 c 0
EndSplineSet
Validated: 1
EndChar

StartChar: uni0E33.alt1
Encoding: 65539 -1 96
Width: 422
VWidth: 1467
Flags: W
HStem: 0 21<288 330> 547 38<75.3281 201.919> 717 25<-312.203 -253.513> 864 24<-315.631 -256.744>
VStem: -379 37<764.883 844.592> -226 35<763.176 840.022> 288 42<0 460.501>
LayerCount: 2
Back
SplineSet
154 593 m 0
 184.667 593 212.833 588 238.5 578 c 128
 264.167 568 286.667 554.5 306 537.5 c 128
 325.333 520.5 340.333 500.333 351 477 c 128
 361.667 453.667 367 428.667 367 402 c 2
 367 12 l 1
 323 12 l 1
 323 373 l 2
 323 401 319 425.5 311 446.5 c 128
 303 467.5 292.333 487 279 505 c 0
 250.333 538.333 210.667 555 160 555 c 0
 140.667 555 121 551.333 101 544 c 1
 110 590 l 1
 118 592 125.333 593 132 593 c 128
 142 593 142 593 154 593 c 0
-307 789 m 2
 -281 789 -259 780.667 -241 764 c 128
 -223 747.333 -214 727.333 -214 704 c 256
 -214 680.667 -223 660.667 -241 644 c 128
 -259 627.333 -281 619 -307 619 c 2
 -308 619 l 2
 -333.333 619 -355.333 627.333 -374 644 c 128
 -392.667 660.667 -402 680.667 -402 704 c 0
 -402 728.667 -392.667 749 -374 765 c 128
 -355.333 781 -333.333 789 -308 789 c 2
 -307 789 l 2
-305 644 m 2
 -298.333 644 -291.5 646 -284.5 650 c 128
 -277.5 654 -271.333 658.833 -266 664.5 c 128
 -260.667 670.167 -256.5 676.667 -253.5 684 c 128
 -250.5 691.333 -249 698 -249 704 c 0
 -249 716 -255 728.833 -267 742.5 c 128
 -279 756.167 -292.333 764 -307 766 c 2
 -308 766 l 2
 -324.667 766 -338.333 758.667 -349 744 c 128
 -359.667 729.333 -365 716 -365 704 c 0
 -365 698 -363.333 691.667 -360 685 c 128
 -356.667 678.333 -352.333 672 -347 666 c 128
 -341.667 660 -335.5 654.833 -328.5 650.5 c 128
 -321.5 646.167 -314.333 644 -307 644 c 2
 -305 644 l 2
EndSplineSet
Fore
Refer: 284 3661 N 1 0 0 1 -103 0 2
Refer: 261 3634 N 1 0 0 1 0 0 2
Validated: 1
EndChar

StartChar: quotedbl
Encoding: 34 34 97
Width: 318
VWidth: 1467
Flags: W
HStem: 525 209<72 117 204 249>
VStem: 72 45<525 621.6> 204 45<525 621.6>
LayerCount: 2
Fore
SplineSet
249 525 m 1
 204 525 l 1
 189 732 l 1
 264 734 l 1
 249 525 l 1
117 525 m 1
 72 525 l 1
 57 732 l 1
 132 734 l 1
 117 525 l 1
EndSplineSet
Validated: 1
EndChar

StartChar: exclam
Encoding: 33 33 98
Width: 227
VWidth: 1467
Flags: W
HStem: 0 139<79.4173 154.25> 705 20G<84 153>
VStem: 66 103<13.6054 126.519> 84 69<421.083 725> 94 47<204 507.917>
LayerCount: 2
Fore
SplineSet
117 139 m 0xe0
 148 139 169 109 169 70 c 256
 169 33 147 0 117 0 c 0
 87 0 66 31 66 67 c 0
 66 120 96 139 117 139 c 0xe0
94 204 m 1xc8
 84 725 l 1
 153 725 l 1xd0
 141 204 l 1
 94 204 l 1xc8
EndSplineSet
Validated: 1
EndChar

StartChar: uni0E4E.alt1
Encoding: 65540 -1 99
Width: 0
VWidth: 1467
Flags: W
HStem: 664 44<-350.476 -244.367> 697 20<-246 -234> 819 44<-298.275 -225> 970 44<-267.042 -115.572>
VStem: -393 29<725.768 779.699> -335 31<875.783 932.126>
LayerCount: 2
Back
SplineSet
-151 967 m 1
 -163 933 l 1
 -235 945 -271 925 -271 873 c 0
 -271 843 -251 827.333 -211 826 c 1
 -222 803 l 1
 -296 795.667 -333 767 -333 717 c 0
 -331 686.333 -296.333 674.667 -229 682 c 1
 -239 651 l 1
 -339.667 636.333 -391 655.667 -393 709 c 0
 -393 775 -354.333 812.667 -277 822 c 1
 -309.667 835.333 -326 855.667 -326 883 c 0
 -322 959.667 -263.667 987.667 -151 967 c 1
EndSplineSet
Fore
Refer: 285 3662 N 1 0 0 1 -77 0 2
Validated: 1
EndChar

StartChar: exclamdown
Encoding: 161 161 100
Width: 217
VWidth: 1467
Flags: W
HStem: 373 139<66.2805 140.22>
VStem: 51 103<385.76 497.74> 70 69<-210 91.5833> 82 47<5.41666 307>
LayerCount: 2
Fore
SplineSet
70 -210 m 1xa0
 82 307 l 1
 129 307 l 1x90
 139 -210 l 1
 70 -210 l 1xa0
154 442 m 0xc0
 154 404 132 373 103 373 c 0
 72 373 51 403 51 442 c 256
 51 489 82 512 103 512 c 0
 120 512 154 498 154 442 c 0xc0
EndSplineSet
Validated: 1
EndChar

StartChar: cent
Encoding: 162 162 101
Width: 626
VWidth: 1467
Flags: W
HStem: -18 21G<304 339> 89 34<245.991 304 339 430.268> 578 34<247.379 304 339 428.808> 700 20G<304 339>
VStem: 101 47<196.257 503.095> 304 35<-18 89 126 575 612 720>
LayerCount: 2
Fore
SplineSet
547 194 m 1
 512 122 420 91 339 89 c 1
 339 -18 l 1
 304 -18 l 1
 304 91 l 1
 185 98 101 167 101 239 c 2
 101 461 l 2
 101 523 173 601 304 610 c 1
 304 720 l 1
 339 720 l 1
 339 612 l 1
 430 610 515 573 547 506 c 1
 508 490 l 1
 475 571 372 578 339 578 c 1
 339 123 l 1
 372 123 476 130 508 210 c 1
 547 194 l 1
304 575 m 1
 165 555 148 469 148 442 c 2
 148 258 l 2
 148 217 186 138 304 126 c 1
 304 575 l 1
EndSplineSet
Validated: 1
EndChar

StartChar: sterling
Encoding: 163 163 102
Width: 560
VWidth: 1467
Flags: W
HStem: -1 44<172 541> 321 41<98 217 264 434> 662 35<320.729 479.186>
VStem: 200 41<363.467 582.772> 232 39<147.088 319.716>
LayerCount: 2
Fore
SplineSet
241 493 m 0xf0
 241 446 248 398 257 362 c 1
 434 362 l 1
 436 321 l 1
 264 321 l 1
 268 297 271 278 271 241 c 0
 271 155 241 115 228 98 c 0
 210 74 191 56 172 43 c 1
 541 43 l 1
 541 -1 l 1
 97 -1 l 1
 97 31 l 1
 211 93 232 178 232 235 c 0xe8
 232 267 231 290 226 321 c 1
 98 321 l 1
 97 362 l 1
 217 362 l 1
 211 388 200 441 200 494 c 0
 200 607 277 697 393 697 c 0
 442 697 471 689 516 669 c 1
 499 637 l 1
 460 654 424 662 392 662 c 0
 298 662 241 592 241 493 c 0xf0
EndSplineSet
Validated: 1
EndChar

StartChar: currency
Encoding: 164 164 103
Width: 664
VWidth: 1467
Flags: W
HStem: 31 36<246.904 412.525> 518 36<244.907 413.722>
VStem: 105 45<152.046 433.53> 514 45<155.884 429.983>
LayerCount: 2
Fore
SplineSet
559 216 m 2
 559 178 547 148 533 123 c 1
 594 60 l 1
 568 34 l 1
 509 94 l 1
 461 48 394 31 337 31 c 0
 285 31 215 45 163 89 c 1
 106 31 l 1
 79 57 l 1
 136 119 l 1
 116 147 105 179 105 216 c 2
 105 368 l 2
 105 410 115 446 139 475 c 1
 88 528 l 1
 116 558 l 1
 169 503 l 1
 217 543 282 554 329 554 c 0
 381 554 450 541 500 497 c 1
 559 556 l 1
 587 528 l 1
 528 468 l 1
 551 436 559 403 559 368 c 2
 559 216 l 2
150 351 m 2
 150 235 l 2
 150 119 244 67 331 67 c 0
 413 67 510 119 514 235 c 2
 514 349 l 2
 510 462 421 518 330 518 c 0
 234 518 150 458 150 351 c 2
EndSplineSet
Validated: 1
EndChar

StartChar: yen
Encoding: 165 165 104
Width: 693
VWidth: 1467
Flags: W
HStem: -1 21G<324 371> 85 47<73 324 371 618> 251 47<73 321 371 618>
VStem: 324 47<-1 85 132 251>
LayerCount: 2
Fore
SplineSet
414 342 m 0
 402 323 388 308 371 298 c 1
 618 298 l 1
 618 251 l 1
 371 251 l 1
 371 132 l 1
 618 132 l 1
 618 85 l 1
 371 85 l 1
 371 -1 l 1
 324 -1 l 1
 324 85 l 1
 73 85 l 1
 73 132 l 1
 324 132 l 1
 324 251 l 1
 73 251 l 1
 73 298 l 1
 321 298 l 1
 297 311 292 331 279 346 c 0
 256 379 224 431 174 519 c 0
 140 579 106 639 73 700 c 1
 126 700 l 1
 155 645 186 589 221 532 c 0
 256 475 287 421 314 371 c 0
 327 348 336 336 345 336 c 0
 353 336 362 346 374 365 c 0
 421 445 421 445 474 530 c 0
 509 588 543 644 574 700 c 1
 624 700 l 1
 575 612 575 612 520 518 c 0
 464 425 464 425 414 342 c 0
EndSplineSet
Validated: 1
EndChar

StartChar: brokenbar
Encoding: 166 166 105
Width: 224
VWidth: 1467
Flags: W
HStem: 695 20G<94 136>
VStem: 94 42<-180 192 343 715>
LayerCount: 2
Fore
SplineSet
94 343 m 1
 94 715 l 1
 136 715 l 1
 136 343 l 1
 94 343 l 1
94 -180 m 1
 94 192 l 1
 136 192 l 1
 136 -180 l 1
 94 -180 l 1
EndSplineSet
Validated: 1
EndChar

StartChar: section
Encoding: 167 167 106
Width: 544
VWidth: 1467
Flags: W
HStem: -63 41<168.662 368.529> 430 42<254.235 353.698> 672 41<189.632 366.51>
VStem: 81 50<11.2078 51> 101 50<270.795 395.098 506.452 639.716> 401 44<606 642.24> 412 49<17.7022 144.104 262.253 382.379>
LayerCount: 2
Fore
SplineSet
401 606 m 1xec
 396 624 383 672 275 672 c 0
 216 672 147 653 147 574 c 0
 147 527 163 490 254 471 c 1
 259 472 265 472 274 472 c 0
 350 472 456 441 456 318 c 0
 456 258 420 222 381 202 c 1
 447 176 461 124 461 83 c 0
 461 -24 356 -63 273 -63 c 0
 190 -63 96 -30 81 51 c 1
 131 51 l 1
 147 -8 195 -22 277 -22 c 0
 393 -22 412 38 412 78 c 0xf2
 412 201 267 186 181 217 c 0
 134 234 101 266 101 336 c 0
 101 407 155 443 185 455 c 1
 130 473 96 504 96 579 c 0
 96 659 173 713 270 713 c 0
 348 713 430 677 445 606 c 1
 401 606 l 1xec
408 319 m 0
 408 373 389 407 298 430 c 1
 271 430 l 2
 203 430 151 400 151 334 c 0xe8
 151 242 236 232 311 222 c 1
 359 228 408 252 408 319 c 0
EndSplineSet
Validated: 1
EndChar

StartChar: dieresis
Encoding: 168 168 107
Width: 316
VWidth: 1467
Flags: W
HStem: 587 109<31.4375 95.8054 219.518 283.399>
VStem: 23 81<593.061 689.727> 211 81<593.275 689.541>
LayerCount: 2
Fore
SplineSet
251 696 m 0
 276 696 292 669 292 641 c 256
 292 613 275 587 251 587 c 256
 235 587 211 600 211 641 c 0
 211 669 227 696 251 696 c 0
64 696 m 0
 89 696 104 669 104 641 c 256
 104 612 88 587 63 587 c 256
 47 587 23 600 23 641 c 0
 23 670 39 696 64 696 c 0
EndSplineSet
Validated: 1
EndChar

StartChar: copyright
Encoding: 169 169 108
Width: 831
VWidth: 1467
Flags: W
HStem: -20 37<288.881 541.763> 104 31<347.664 514.487> 566 32<344.563 517.13> 687 37<292.109 539.124>
VStem: 103 45<115.686 586.172> 205 44<205.28 496.658> 685 47<116.984 588.237>
LayerCount: 2
Fore
SplineSet
103 537 m 2
 103 649 240 724 410 724 c 0
 579 724 732 658 732 537 c 2
 732 167 l 2
 732 53 591 -20 410 -20 c 0
 250 -20 103 50 103 167 c 2
 103 537 l 2
148 186 m 2
 148 62 301 17 410 17 c 0
 572 17 685 85 685 186 c 2
 685 516 l 2
 685 644 528 687 417 687 c 0
 267 687 148 619 148 516 c 2
 148 186 l 2
430 566 m 0
 316 566 249 498 249 437 c 2
 249 264 l 2
 249 195 328 135 430 135 c 0
 458 135 559 142 590 219 c 1
 628 202 l 1
 580 106 450 104 425 104 c 0
 274 104 205 189 205 245 c 2
 205 456 l 2
 205 532 302 598 425 598 c 0
 448 598 580 595 628 499 c 1
 590 483 l 1
 567 538 501 566 430 566 c 0
EndSplineSet
Validated: 1
EndChar

StartChar: ordfeminine
Encoding: 170 170 109
Width: 369
VWidth: 1467
Flags: W
HStem: 276 33<94.793 230.086> 591 30<90.4871 241.878>
VStem: 43 33<327.628 404.219> 280 33<346.125 474 497.229 557.136>
LayerCount: 2
Fore
SplineSet
158 309 m 0
 231 309 264 347 280 359 c 1
 280 474 l 1
 211 421 192 447 108 415 c 0
 86 407 76 389 76 362 c 0
 76 341 90 309 158 309 c 0
335 301 m 1
 326 290 322 289 313 282 c 1
 297 287 286 303 282 321 c 1
 241 289 185 276 153 276 c 0
 113 276 45 293 43 370 c 0
 43 486 213 438 271 503 c 0
 276 509 279 515 279 522 c 0
 279 541 261 591 176 591 c 0
 139 591 93 580 54 562 c 1
 59 597 l 1
 90 613 125 621 164 621 c 0
 227 621 313 601 313 521 c 2
 313 351 l 2
 313 321 318 313 335 301 c 1
EndSplineSet
Validated: 1
EndChar

StartChar: guillemotleft
Encoding: 171 171 110
Width: 648
VWidth: 1467
Flags: W
LayerCount: 2
Fore
SplineSet
107 266 m 1
 217 232 308 141 354 88 c 1
 354 32 l 1
 264 155 114 235 22 263 c 1
 142 305 271 391 354 496 c 1
 354 439 l 1
 237 319 162 284 107 266 c 1
332 266 m 1
 429 236 517 160 578 88 c 1
 578 32 l 1
 490 156 337 236 248 263 c 1
 339 295 477 368 578 496 c 1
 578 439 l 1
 466 323 387 284 332 266 c 1
EndSplineSet
Validated: 1
EndChar

StartChar: logicalnot
Encoding: 172 172 111
Width: 629
VWidth: 1467
Flags: W
HStem: 370 38<41 547>
VStem: 547 38<136 370>
LayerCount: 2
Fore
SplineSet
547 136 m 1
 547 370 l 1
 41 370 l 1
 41 408 l 1
 585 408 l 1
 585 136 l 1
 547 136 l 1
EndSplineSet
Validated: 1
EndChar

StartChar: registered
Encoding: 174 174 112
Width: 538
VWidth: 1467
Flags: W
HStem: 204 36<187.05 365.008> 453 39<211 326.654> 599 29<211 331.028> 695 31<188.938 354.832>
VStem: 44 41<325.861 609.168> 178 33<304 453 492 599> 354 32<304 418.762 507.079 577.67> 459 41<320.832 612.424>
LayerCount: 2
Fore
SplineSet
276 204 m 0
 142 204 44 288 44 389 c 2
 44 541 l 2
 44 666 160 726 272 726 c 0
 385 726 500 666 500 541 c 2
 500 389 l 2
 500 264 388 204 276 204 c 0
272 695 m 0
 173 695 85 639 85 534 c 2
 85 398 l 2
 85 293 181 240 276 240 c 0
 368 240 459 290 459 392 c 2
 459 536 l 2
 459 641 369 695 272 695 c 0
386 361 m 2
 386 304 l 1
 354 304 l 1
 354 359 l 2
 354 415 333 453 239 453 c 2
 211 453 l 1
 211 304 l 1
 178 304 l 1
 178 628 l 1
 277 628 l 2
 373 628 381 568 381 538 c 0
 381 501 362 478 323 467 c 1
 378 444 386 398 386 361 c 2
349 538 m 0
 349 568 339 599 279 599 c 2
 211 599 l 1
 211 492 l 1
 276 492 l 2
 342 492 349 514 349 538 c 0
EndSplineSet
Validated: 1
EndChar

StartChar: macron
Encoding: 175 175 113
Width: 316
VWidth: 1467
Flags: W
HStem: 625 41<41 274>
VStem: 41 233<625 666>
LayerCount: 2
Fore
SplineSet
41 625 m 1
 41 666 l 1
 274 666 l 1
 274 625 l 1
 41 625 l 1
EndSplineSet
Validated: 1
EndChar

StartChar: degree
Encoding: 176 176 114
Width: 267
VWidth: 1467
Flags: W
HStem: 549 25<109.027 171.025> 695 24<107.367 166.352>
VStem: 44 37<595.14 675.166> 197 35<594.577 670.824>
LayerCount: 2
Fore
SplineSet
138 719 m 0
 190 719 232 681 232 634 c 256
 232 587 190 549 139 549 c 0
 87 549 44 587 44 634 c 0
 44 686 90 719 138 719 c 0
140 574 m 0
 170 574 197 607 197 634 c 0
 197 657 167 695 137 695 c 0
 105 695 81 657 81 634 c 0
 81 610 110 574 140 574 c 0
EndSplineSet
Validated: 1
EndChar

StartChar: plusminus
Encoding: 177 177 115
Width: 629
VWidth: 1467
Flags: W
HStem: 0 48<41 585> 335 46<41 288 332 585> 579 20G<288 332>
VStem: 288 44<110 335 381 599>
LayerCount: 2
Fore
SplineSet
332 335 m 1
 332 110 l 1
 288 110 l 1
 288 335 l 1
 41 335 l 1
 41 381 l 1
 288 381 l 1
 288 599 l 1
 332 599 l 1
 332 381 l 1
 585 381 l 1
 585 335 l 1
 332 335 l 1
41 0 m 1
 41 48 l 1
 585 48 l 1
 585 0 l 1
 41 0 l 1
EndSplineSet
Validated: 1
EndChar

StartChar: twosuperior
Encoding: 178 178 116
Width: 380
VWidth: 1467
Flags: W
HStem: 274 37<103 318> 600 21G<66 74.5> 662 39<130.218 268.089>
VStem: 286 40<550.751 644.585>
LayerCount: 2
Fore
SplineSet
103 311 m 1
 318 311 l 1
 318 274 l 1
 47 274 l 1
 47 311 l 1
 172 438 l 2
 262 535 286 569 286 602 c 0
 286 638 257 662 220 662 c 2
 192 662 l 2
 146 662 83 614 66 600 c 1
 66 643 l 1
 92 665 139 701 197 701 c 0
 260 701 326 681 326 603 c 0
 326 535 268 481 178 386 c 2
 127 334 l 2
 112 319 104 311 103 311 c 1
EndSplineSet
Validated: 1
EndChar

StartChar: threesuperior
Encoding: 179 179 117
Width: 377
VWidth: 1467
Flags: W
HStem: 273 33<79.4357 229.894> 483 41<117 200.988> 663 37<70.9116 249.603>
VStem: 268 40<562.071 645.731> 286 37<348.121 439.081>
LayerCount: 2
Fore
SplineSet
202 502 m 1xf0
 307 502 323 430 323 399 c 0
 323 338 267 273 174 273 c 0
 157 273 89 276 59 292 c 1
 56 332 l 1
 98 314 122 306 153 306 c 0
 215 306 286 338 286 392 c 0xe8
 286 417 269 483 131 483 c 2
 117 483 l 1
 112 522 l 1
 129 522 135 524 141 524 c 0
 184 524 268 546 268 606 c 0
 268 652 228 663 158 663 c 0
 139 663 129 663 65 643 c 1
 67 684 l 1
 110 693 135 700 173 700 c 0
 230 700 308 679 308 597 c 0
 308 540 259 515 202 503 c 1
 202 502 l 1xf0
EndSplineSet
Validated: 1
EndChar

StartChar: acute
Encoding: 180 180 118
Width: 311
VWidth: 1467
Flags: W
HStem: 518 207<145 147>
VStem: 101 119
LayerCount: 2
Fore
SplineSet
147 518 m 1
 101 518 l 1
 145 725 l 1
 220 725 l 1
 147 518 l 1
EndSplineSet
Validated: 1
EndChar

StartChar: mu
Encoding: 181 181 119
AltUni2: 0003bc.ffffffff.0
Width: 619
VWidth: 1467
Flags: W
HStem: -4 36<220.792 362.196> 489 20G<103 142 468 509>
VStem: 103 39<-246 72 119.659 509> 468 41<0 98 128.378 509> 475 37<0 98>
LayerCount: 2
Fore
SplineSet
295 32 m 0xe8
 374 32 468 110 468 200 c 2
 468 509 l 1
 509 509 l 1
 509 125 l 2xf0
 509 104 509 84 510 62 c 2
 512 0 l 1
 475 0 l 1
 472 98 l 1
 456 74 396 -4 282 -4 c 0
 213 -4 172 28 142 72 c 1
 142 -246 l 1
 103 -246 l 1
 103 509 l 1
 142 509 l 1
 142 219 l 2
 142 119 186 32 295 32 c 0xe8
EndSplineSet
Validated: 1
EndChar

StartChar: paragraph
Encoding: 182 182 120
Width: 560
VWidth: 1467
Flags: W
HStem: 663 50<326 439>
VStem: 54 272<368.391 559.438> 285 41<-51 335> 439 39<-51 663>
LayerCount: 2
Fore
SplineSet
54 458 m 0xd0
 54 604 178 713 285 713 c 2
 478 713 l 1
 478 -51 l 1
 439 -51 l 1
 439 663 l 1
 326 663 l 1
 326 -51 l 1
 285 -51 l 1
 285 335 l 1xb0
 261 320 225 305 185 305 c 0
 98 305 54 378 54 458 c 0xd0
EndSplineSet
Validated: 1
EndChar

StartChar: periodcentered
Encoding: 183 183 121
Width: 337
VWidth: 1467
Flags: W
HStem: 252 190<109.604 228.723>
VStem: 73 191<288.353 406.107>
LayerCount: 2
Fore
SplineSet
169 442 m 0
 220 442 264 401 264 346 c 256
 264 295 224 252 169 252 c 0
 120 252 73 292 73 346 c 256
 73 402 120 442 169 442 c 0
EndSplineSet
Validated: 1
EndChar

StartChar: cedilla
Encoding: 184 184 122
Width: 313
VWidth: 1467
Flags: W
HStem: -203 32<66.4159 162.531> -79 27<144 197.869> -19 20G<147 169.815>
VStem: 205 27<-134.689 -87.2254>
LayerCount: 2
Fore
SplineSet
157 -52 m 0
 196 -52 232 -72 232 -113 c 0
 232 -165 169 -203 111 -203 c 0
 93 -203 77 -200 62 -192 c 1
 69 -164 l 1
 78 -168 88 -171 99 -171 c 0
 144 -171 205 -142 205 -109 c 0
 205 -85 178 -79 156 -79 c 0
 115 -79 108 -86 87 -97 c 1
 87 -95 l 1
 88 -92 90 -90 92 -88 c 1
 147 0 l 1
 185 1 l 1
 144 -53 l 1
 148 -53 153 -52 157 -52 c 0
EndSplineSet
Validated: 1
EndChar

StartChar: onesuperior
Encoding: 185 185 123
Width: 242
VWidth: 1467
Flags: W
VStem: 126 34<280 663>
LayerCount: 2
Fore
SplineSet
126 663 m 1
 85 638 l 1
 85 663 l 1
 135 691 l 1
 160 691 l 1
 160 280 l 1
 126 280 l 1
 126 663 l 1
EndSplineSet
Validated: 1
EndChar

StartChar: ordmasculine
Encoding: 186 186 124
Width: 369
VWidth: 1467
Flags: W
HStem: 267 31<117.153 243.044> 594 28<121.699 239.424>
VStem: 27 34<347.642 542.882> 302 34<349.87 539.728>
LayerCount: 2
Fore
SplineSet
27 393 m 2
 27 497 l 2
 27 581 105 622 182 622 c 0
 258 622 336 581 336 497 c 2
 336 393 l 2
 336 308 257 267 184 267 c 0
 108 267 27 310 27 393 c 2
180 594 m 0
 127 594 61 563 61 481 c 2
 61 406 l 2
 61 336 117 298 180 298 c 0
 227 298 302 325 302 406 c 2
 302 481 l 2
 302 560 236 594 180 594 c 0
EndSplineSet
Validated: 1
EndChar

StartChar: guillemotright
Encoding: 187 187 125
Width: 432
VWidth: 1467
Flags: W
LayerCount: 2
Fore
SplineSet
236 72 m 1
 175 72 l 1
 339 266 l 1
 173 462 l 1
 236 462 l 1
 403 266 l 1
 236 72 l 1
79 72 m 1
 18 72 l 1
 182 266 l 1
 16 462 l 1
 79 462 l 1
 246 266 l 1
 79 72 l 1
EndSplineSet
Validated: 1
EndChar

StartChar: onequarter
Encoding: 188 188 126
Width: 802
VWidth: 1467
Flags: W
HStem: -15 21G<129 177.994> 117 31<500 650 682 731>
VStem: 136 34<279 662> 650 32<3 117 148 380>
LayerCount: 2
Fore
SplineSet
136 662 m 1
 95 637 l 1
 95 662 l 1
 144 690 l 1
 170 690 l 1
 170 279 l 1
 136 279 l 1
 136 662 l 1
593 697 m 1
 166 -15 l 1
 129 -15 l 1
 555 697 l 1
 593 697 l 1
682 414 m 1
 682 148 l 1
 731 148 l 1
 731 117 l 1
 682 117 l 1
 682 3 l 1
 650 3 l 1
 650 117 l 1
 461 117 l 1
 461 139 l 1
 640 414 l 1
 682 414 l 1
650 148 m 1
 650 380 l 1
 500 148 l 1
 650 148 l 1
EndSplineSet
Validated: 1
LCarets2: 2 0 0 
Ligature2: "'frac' Diagonal Fractions in Latin lookup 0 subtable" one fraction four
Ligature2: "'frac' Diagonal Fractions in Latin lookup 0 subtable" one slash four
EndChar

StartChar: onehalf
Encoding: 189 189 127
Width: 884
VWidth: 1467
Flags: W
HStem: 3 37<563 779> 391 39<592.377 729.006>
VStem: 148 34<263 646> 746 40<279.402 373.578>
LayerCount: 2
Fore
SplineSet
148 646 m 1
 107 621 l 1
 107 646 l 1
 156 673 l 1
 182 673 l 1
 182 263 l 1
 148 263 l 1
 148 646 l 1
604 681 m 1
 178 -31 l 1
 141 -31 l 1
 566 681 l 1
 604 681 l 1
563 40 m 1
 779 40 l 1
 779 3 l 1
 508 3 l 1
 508 40 l 1
 632 168 l 2
 638 174 746 276 746 331 c 0
 746 355 733 391 667 391 c 0
 639 391 596 385 527 329 c 1
 527 371 l 1
 552 392 600 430 657 430 c 0
 752 430 786 390 786 329 c 0
 786 283 763 239 638 114 c 2
 588 62 l 2
 572 48 564 40 563 40 c 1
EndSplineSet
Validated: 1
LCarets2: 2 0 0 
Ligature2: "'frac' Diagonal Fractions in Latin lookup 0 subtable" one fraction two
Ligature2: "'frac' Diagonal Fractions in Latin lookup 0 subtable" one slash two
EndChar

StartChar: threequarters
Encoding: 190 190 128
Width: 802
VWidth: 1467
Flags: W
HStem: -15 21G<200 247.994> 117 31<500 650 682 731> 273 31<75.7508 243.122> 480 42<119 229.684> 663 37<78.1889 260.242>
VStem: 278 37<560.157 644.571> 295 36<345.821 443.215> 650 32<3 117 148 380>
LayerCount: 2
Fore
SplineSet
663 697 m 1xf9
 236 -15 l 1
 200 -15 l 1
 625 697 l 1
 663 697 l 1xf9
682 414 m 1
 682 148 l 1
 731 148 l 1
 731 117 l 1
 682 117 l 1
 682 3 l 1
 650 3 l 1
 650 117 l 1
 461 117 l 1
 461 139 l 1
 640 414 l 1
 682 414 l 1
650 148 m 1
 650 380 l 1
 500 148 l 1
 650 148 l 1
295 401 m 0xfb
 295 433 274 480 135 480 c 2
 119 480 l 1
 119 522 l 1
 136 522 142 524 148 524 c 0
 258 524 278 577 278 607 c 0
 278 652 235 663 172 663 c 0
 132 663 121 657 72 643 c 1
 75 684 l 1
 134 696 145 700 175 700 c 0
 238 700 315 683 315 596 c 0xfd
 315 540 267 515 210 503 c 1
 210 502 l 1
 247 502 275 494 293 478 c 0
 329 446 331 415 331 399 c 0
 331 346 283 273 179 273 c 0
 157 273 100 277 66 292 c 1
 63 323 l 1
 109 304 133 304 163 304 c 0
 275 304 295 362 295 401 c 0xfb
EndSplineSet
Validated: 1
LCarets2: 2 0 0 
Ligature2: "'frac' Diagonal Fractions in Latin lookup 0 subtable" three fraction four
Ligature2: "'frac' Diagonal Fractions in Latin lookup 0 subtable" three slash four
EndChar

StartChar: questiondown
Encoding: 191 191 129
Width: 544
VWidth: 1467
Flags: W
HStem: -223 37<190.816 337.352> 36 26<379.152 421.941> 385 115<261.092 328.638>
VStem: 84 44<-126.525 32.7108> 252 85<391.805 492.945> 277 39<209.934 321> 304 34<-138.538 -15.3828> 433 36<-100.049 31.5177>
LayerCount: 2
Fore
SplineSet
304 -78 m 0xf3
 304 -15 347 62 401 62 c 0
 449 62 469 12 469 -34 c 0
 469 -121 387 -223 261 -223 c 0
 169 -223 84 -149 84 -42 c 0
 84 68 164 107 200 138 c 0
 222 156 277 197 277 307 c 0
 277 313 276 318 276 323 c 1
 314 321 l 1
 315 315 316 309 316 303 c 0xf5
 316 273 308 231 298 200 c 0
 288 170 257 139 235 119 c 0
 202 89 128 50 128 -50 c 0
 128 -124 179 -186 261 -186 c 0
 295 -186 319 -178 345 -164 c 1
 318 -150 304 -112 304 -78 c 0xf3
403 36 m 0
 371 36 338 -38 338 -84 c 0xf3
 338 -116 350 -146 370 -146 c 0
 398 -146 433 -82 433 -23 c 0
 433 16 419 36 403 36 c 0
295 385 m 0
 269 385 252 410 252 443 c 0
 252 474 269 500 295 500 c 0
 312 500 337 489 337 443 c 0xf9
 337 412 322 385 295 385 c 0
EndSplineSet
Validated: 1
EndChar

StartChar: Aring
Encoding: 197 197 134
Width: 676
VWidth: 1467
Flags: W
HStem: 1 21G<66 117.24 565.76 616> 230 40<182 500> 678 48<305.315 363.088> 907 26<312.375 358.604>
VStem: 249 40<743.31 888.893> 383 38<749.092 887.867>
LayerCount: 2
Fore
SplineSet
421 813 m 0
 421 769 403 738 379 717 c 1
 439 697 461 634 480 546 c 2
 616 1 l 1
 571 1 l 1
 511 230 l 1
 172 230 l 1
 112 1 l 1
 66 1 l 1
 202 546 l 2
 231 681 267 701 295 715 c 1
 281 725 249 755 249 816 c 0
 249 876 285 933 338 933 c 0
 371 933 421 907 421 813 c 0
335 907 m 0
 306 907 289 853 289 814 c 0
 289 769 309 726 334 726 c 0
 360 726 383 774 383 816 c 256
 383 894 344 907 335 907 c 0
500 270 m 1
 436 521 l 2
 413 603 400 678 344 678 c 0
 277 678 263 565 246 521 c 2
 182 270 l 1
 500 270 l 1
EndSplineSet
Validated: 1
EndChar

StartChar: AE
Encoding: 198 198 135
Width: 1115
VWidth: 1467
Flags: W
HStem: -10 36<727.819 1030> 219 39<248 566> 317 40<616 918> 667 48<465.761 552.561 713.394 1030>
VStem: 566 50<-10 67 123.178 219 258 317 357 574.202>
LayerCount: 2
Fore
SplineSet
610 626 m 1
 632 658 672 704 830 709 c 2
 1030 709 l 1
 1030 671 l 1
 828 671 l 2
 736 671 629 646 618 489 c 2
 616 357 l 1
 918 357 l 1
 918 317 l 1
 616 317 l 1
 616 226 l 2
 616 66 721 31 828 26 c 2
 1030 26 l 1
 1030 -10 l 1
 830 -10 l 2
 681 -8 640 30 613 67 c 1
 613 -10 l 1
 566 -10 l 1
 566 219 l 1
 227 219 l 1
 109 -10 l 1
 63 -10 l 1
 374 601 l 2
 412 672 459 715 515 715 c 0
 571 715 600 676 610 626 c 1
566 566 m 2
 566 646 546 667 516 667 c 0
 466 667 439 615 409 564 c 2
 248 258 l 1
 566 258 l 1
 566 566 l 2
EndSplineSet
Validated: 1
EndChar

StartChar: Ccedilla
Encoding: 199 199 136
Width: 661
VWidth: 1467
Flags: W
HStem: -203 32<264.416 360.531> -79 27<342 395.869> -9 35<249.839 339> 599 21G<517 575> 687 34<249.875 450.616>
VStem: 103 47<101.819 608.856> 403 27<-134.689 -87.2254>
LayerCount: 2
Fore
SplineSet
150 164 m 2
 150 115 198 26 350 26 c 0
 372 26 498 29 536 114 c 1
 575 98 l 1
 544 34 462 0 377 -7 c 1
 342 -53 l 1
 346 -53 351 -52 355 -52 c 0
 394 -52 430 -72 430 -113 c 0
 430 -165 367 -203 309 -203 c 0
 291 -203 275 -200 260 -192 c 1
 267 -164 l 1
 276 -168 286 -171 297 -171 c 0
 342 -171 403 -142 403 -109 c 0
 403 -85 376 -79 354 -79 c 0
 313 -79 306 -86 285 -97 c 1
 285 -95 l 1
 286 -92 288 -90 290 -88 c 2
 339 -9 l 2
 182 -9 103 76 103 145 c 2
 103 568 l 2
 103 640 187 721 342 721 c 0
 440 721 540 687 575 615 c 1
 536 599 l 1
 498 684 372 687 350 687 c 0
 185 687 150 584 150 549 c 2
 150 164 l 2
EndSplineSet
Validated: 1
EndChar

StartChar: Eth
Encoding: 208 208 145
Width: 683
VWidth: 1467
Flags: W
HStem: -4 35<148 353.464> 327 40<4 104 148 358> 676 37<148 297.75>
VStem: 104 44<32 327 367 676> 544 44<193.214 495.999>
LayerCount: 2
Fore
SplineSet
104 713 m 1
 384 713 588 677 588 351 c 0
 588 67 446 -4 224 -4 c 2
 104 -4 l 1
 104 327 l 1
 4 327 l 1
 4 367 l 1
 104 367 l 1
 104 713 l 1
544 355 m 0
 544 592 417 676 169 676 c 0
 148 676 l 1
 148 367 l 1
 358 367 l 1
 358 327 l 1
 148 327 l 1
 148 32 l 1
 163 31 178 31 192 31 c 0
 465 31 544 126 544 355 c 0
EndSplineSet
Validated: 1
EndChar

StartChar: multiply
Encoding: 215 215 152
Width: 629
VWidth: 1467
Flags: W
HStem: 0 21G<56.8571 97.5851 529.498 569.571>
LayerCount: 2
Fore
SplineSet
549 0 m 1
 314 241 l 1
 78 0 l 1
 41 35 l 1
 277 277 l 1
 41 521 l 1
 78 556 l 1
 314 314 l 1
 549 556 l 1
 585 521 l 1
 349 277 l 1
 585 35 l 1
 549 0 l 1
EndSplineSet
Validated: 1
EndChar

StartChar: Oslash
Encoding: 216 216 153
Width: 696
VWidth: 1467
Flags: W
HStem: -7 29<289.318 428.027> 686 29<289.123 435.662>
VStem: 106 39<182.415 504.745> 560 42<178.038 522.259>
LayerCount: 2
Fore
SplineSet
354 715 m 0
 390 715 451 709 490 676 c 1
 518 735 l 1
 563 735 l 1
 519 646 l 1
 548 607 602 550 602 329 c 0
 602 70 461 -7 367 -7 c 0
 316 -7 265 12 224 40 c 1
 191 -31 l 1
 144 -31 l 1
 192 67 l 1
 110 152 106 260 106 342 c 0
 106 655 255 715 354 715 c 0
361 686 m 0
 188 686 145 500 145 343 c 0
 145 195 178 133 207 97 c 1
 474 646 l 1
 447 672 412 686 361 686 c 0
364 22 m 0
 442 22 560 80 560 322 c 0
 560 494 537 549 502 609 c 1
 238 66 l 1
 272 37 320 22 364 22 c 0
EndSplineSet
Validated: 1
EndChar

StartChar: Thorn
Encoding: 222 222 159
Width: 622
VWidth: 1467
Flags: W
HStem: 1 21G<103 151> 89 38<232.261 399.534> 575 34<246.81 381.702>
VStem: 103 48<1 153 183.515 507.117 541 697> 503 47<240.363 454.973>
LayerCount: 2
Fore
SplineSet
315 609 m 0
 420 609 550 526 550 344 c 0
 550 231 483 89 343 89 c 0
 242 89 206 115 151 153 c 1
 151 1 l 1
 103 1 l 1
 103 697 l 1
 151 697 l 1
 151 541 l 1
 185 590 278 609 315 609 c 0
151 202 m 1
 227 130 287 127 320 127 c 0
 467 127 503 272 503 350 c 0
 503 501 398 575 313 575 c 0
 259 575 184 534 151 481 c 1
 151 202 l 1
EndSplineSet
Validated: 1
EndChar

StartChar: uni00DF
Encoding: 223 223 160
Width: 715
VWidth: 1467
Flags: W
HStem: -141 38<0 107.313> -19 38<298 508.07> 389 41<336 464.284> 656 37<245.032 481.074>
VStem: 158 44<-56.875 612.471> 527 42<487.167 613.109> 600 47<100.473 280.494>
LayerCount: 2
Fore
SplineSet
569 550 m 0
 569 483 521 425 461 408 c 1
 566 384 647 318 647 194 c 0
 647 24 517 -19 412 -19 c 2
 298 -19 l 1
 298 19 l 1
 423 19 l 2
 499 19 600 55 600 198 c 0
 600 315 489 380 409 389 c 2
 336 389 l 1
 336 430 l 1
 409 430 l 2
 472 430 527 493 527 547 c 0
 527 607 485 656 423 656 c 2
 307 656 l 2
 246 656 202 625 202 508 c 2
 202 67 l 2
 202 -104 165 -141 25 -141 c 2
 0 -141 l 1
 0 -103 l 1
 25 -103 l 2
 148 -103 158 -36 158 65 c 2
 158 512 l 2
 158 644 211 693 296 693 c 2
 424 693 l 2
 517 693 569 629 569 550 c 0
EndSplineSet
Validated: 1
EndChar

StartChar: ae
Encoding: 230 230 167
Width: 962
VWidth: 1467
Flags: W
HStem: 3 40<163.833 351.229 578.591 770.049> 238 39<490 821.393> 494 38<163.231 371.567 576.102 761.139>
VStem: 76 44<80.3167 198.097> 442 48<113.349 238 277 313 341.249 423.11> 847 44<299.732 421.68>
LayerCount: 2
Fore
SplineSet
270 532 m 0
 340 532 434 511 471 452 c 1
 510 498 582 531 661 531 c 0
 787 531 891 460 891 353 c 0
 891 251 834 238 676 238 c 2
 490 238 l 1
 490 156 l 1
 494 140 528 43 681 43 c 0
 760 43 824 71 848 129 c 1
 888 113 l 1
 837 11 694 8 671 8 c 0
 526 8 474 88 472 92 c 1
 472 92 372 3 249 3 c 0
 188 3 76 26 76 145 c 0
 76 201 97 261 247 284 c 0
 315 295 439 315 439 380 c 0
 439 423 403 494 278 494 c 0
 203 494 133 468 92 447 c 1
 101 494 l 1
 148 517 205 532 270 532 c 0
670 496 m 0
 569 496 504 435 490 383 c 1
 490 277 l 1
 715 277 l 2
 790 277 847 282 847 355 c 0
 847 418 785 496 670 496 c 0
259 43 m 0
 356 43 402 93 442 122 c 1
 442 313 l 1
 383 269 348 267 261 251 c 0
 149 230 120 187 120 145 c 0
 120 63 184 43 259 43 c 0
EndSplineSet
Validated: 1
EndChar

StartChar: ccedilla
Encoding: 231 231 168
Width: 578
VWidth: 1467
Flags: W
HStem: -203 32<233.416 329.531> -79 27<311 364.869> -5 34<232.863 311> 483 34<232.382 419.861>
VStem: 88 47<101.939 409.064> 372 27<-134.689 -87.2254>
LayerCount: 2
Fore
SplineSet
324 -52 m 0
 363 -52 399 -72 399 -113 c 0
 399 -165 336 -203 278 -203 c 0
 260 -203 244 -200 229 -192 c 1
 236 -164 l 1
 245 -168 255 -171 266 -171 c 0
 311 -171 372 -142 372 -109 c 0
 372 -85 345 -79 323 -79 c 0
 282 -79 275 -86 254 -97 c 1
 254 -95 l 1
 255 -92 257 -90 259 -88 c 2
 311 -5 l 1
 156 -3 88 88 88 145 c 2
 88 367 l 2
 88 443 182 517 316 517 c 0
 386 517 492 496 534 412 c 1
 495 396 l 1
 461 477 359 483 325 483 c 0
 192 483 135 403 135 348 c 2
 135 164 l 2
 135 101 202 29 325 29 c 0
 359 29 461 35 495 116 c 1
 534 100 l 1
 495 21 400 1 349 -3 c 1
 311 -53 l 1
 315 -53 320 -52 324 -52 c 0
EndSplineSet
Validated: 1
EndChar

StartChar: eth
Encoding: 240 240 177
Width: 664
VWidth: 1467
Flags: W
HStem: -9 30<252.231 426.33> 370 36<208.85 406.804> 684 20G<255 329>
VStem: 88 43<124.327 299.722> 537 45<111.821 288.17>
LayerCount: 2
Fore
SplineSet
582 192 m 0
 582 31 439 -9 332 -9 c 0
 173 -9 88 97 88 210 c 0
 88 288 126 406 323 406 c 0
 394 406 457 381 499 357 c 1
 481 398 428 490 399 530 c 1
 261 468 l 1
 244 509 l 1
 373 565 l 1
 338 614 298 660 255 704 c 1
 314 704 l 1
 344 668 374 632 411 582 c 1
 536 637 l 1
 553 597 l 1
 437 546 l 1
 458 509 582 364 582 192 c 0
342 21 m 0
 458 21 537 92 537 198 c 0
 537 225 533 254 524 285 c 1
 462 347 366 370 300 370 c 0
 165 370 131 285 131 216 c 0
 131 141 173 21 342 21 c 0
EndSplineSet
Validated: 1
EndChar

StartChar: divide
Encoding: 247 247 184
Width: 629
VWidth: 1467
Flags: W
HStem: 51 115<285.008 351.908> 261 44<41 587> 403 115<285.008 351.908>
VStem: 276 85<58.4097 159.024 410.208 511.024>
LayerCount: 2
Fore
SplineSet
41 261 m 1
 41 305 l 1
 587 305 l 1
 587 261 l 1
 41 261 l 1
318 166 m 0
 344 166 361 140 361 109 c 0
 361 79 344 51 318 51 c 0
 304 51 276 60 276 109 c 0
 276 140 293 166 318 166 c 0
318 518 m 0
 344 518 361 492 361 461 c 0
 361 430 344 403 318 403 c 0
 304 403 276 412 276 461 c 0
 276 492 293 518 318 518 c 0
EndSplineSet
Validated: 1
EndChar

StartChar: oslash
Encoding: 248 248 185
Width: 625
VWidth: 1467
Flags: W
HStem: -10 37<239.084 401.647> 477 36<234.98 397.073>
VStem: 92 46<109.919 389.84> 502 45<114.552 390.388>
LayerCount: 2
Fore
SplineSet
185 25 m 1
 141 49 92 102 92 175 c 2
 92 327 l 2
 92 450 204 513 318 513 c 0
 351 513 384 508 415 497 c 1
 447 565 l 1
 486 544 l 1
 453 480 l 1
 489 462 547 419 547 327 c 2
 547 175 l 2
 547 51 430 -10 319 -10 c 0
 285 -10 252 -5 222 7 c 1
 191 -56 l 1
 154 -40 l 1
 185 25 l 1
138 310 m 2
 138 194 l 2
 138 115 184 75 202 62 c 1
 398 462 l 1
 372 472 345 477 319 477 c 0
 225 477 138 417 138 310 c 2
319 27 m 0
 419 27 502 94 502 194 c 2
 502 308 l 2
 502 362 477 412 434 442 c 1
 238 43 l 1
 259 33 288 27 319 27 c 0
EndSplineSet
Validated: 1
EndChar

StartChar: thorn
Encoding: 254 254 191
Width: 638
VWidth: 1467
Flags: W
HStem: -213 21G<104 153> -13 37<235.267 399.927> 472 34<247.211 386.943>
VStem: 104 49<-213 50 81.2592 407.514 439 694> 505 46<140.232 354.148>
LayerCount: 2
Fore
SplineSet
315 506 m 0
 448 506 551 393 551 245 c 0
 551 155 508 -13 335 -13 c 0
 228 -13 181 31 153 50 c 1
 153 -213 l 1
 104 -213 l 1
 104 694 l 1
 153 694 l 1
 153 439 l 1
 186 488 285 506 315 506 c 0
321 24 m 0
 449 24 505 142 505 251 c 0
 505 379 416 472 316 472 c 0
 268 472 189 439 153 379 c 1
 153 100 l 1
 226 27 290 24 321 24 c 0
EndSplineSet
Validated: 1
EndChar

StartChar: Lslash
Encoding: 321 321 193
Width: 517
VWidth: 1467
Flags: W
HStem: 0 50<148 497> 482 20G<271.577 301> 690 20G<89 148>
VStem: 89 59<50 310 398 710>
LayerCount: 2
Fore
SplineSet
89 0 m 1
 89 310 l 1
 -7 241 l 1
 -7 293 l 1
 89 362 l 1
 89 710 l 1
 148 710 l 1
 148 398 l 1
 301 502 l 1
 301 447 l 1
 148 345 l 1
 148 50 l 1
 497 50 l 1
 497 0 l 1
 89 0 l 1
EndSplineSet
Validated: 1
EndChar

StartChar: lslash
Encoding: 322 322 194
Width: 237
VWidth: 1467
Flags: W
HStem: 0 21G<89 147> 482 20G<215 222>
VStem: 89 58<0 343 442 756>
LayerCount: 2
Fore
SplineSet
147 383 m 1
 147 0 l 1
 89 0 l 1
 89 343 l 1
 15 280 l 1
 15 336 l 1
 89 396 l 1
 89 756 l 1
 147 756 l 1
 147 442 l 1
 207 490 208 489 222 502 c 1
 222 446 l 1
 147 383 l 1
EndSplineSet
Validated: 1
EndChar

StartChar: OE
Encoding: 338 338 195
Width: 1016
VWidth: 1467
Flags: W
HStem: -16 35<229.424 431.699 658.772 943> 315 40<530 832> 669 38<632.218 943> 679 34<228.367 431.671>
VStem: 84 47<94.8642 602.081> 483 47<124.458 315 355 571.132>
LayerCount: 2
Fore
SplineSet
534 638 m 1xdc
 560 670 599 705 744 707 c 2
 943 707 l 1
 943 669 l 1
 741 669 l 2xec
 572 669 530 572 530 460 c 2
 530 355 l 1
 832 355 l 1
 832 315 l 1
 530 315 l 1
 530 235 l 2
 530 125 572 25 741 25 c 2
 943 25 l 1
 943 -12 l 1
 744 -12 l 2
 599 -8 560 27 534 59 c 1
 481 1 393 -16 324 -16 c 0
 164 -16 84 68 84 138 c 2
 84 560 l 2
 84 647 188 713 325 713 c 0
 412 713 490 686 534 638 c 1xdc
511 602 m 1
 479 657 400 679 328 679 c 0xdc
 162 679 131 574 131 541 c 2
 131 157 l 2
 131 102 184 19 331 19 c 0
 403 19 476 41 511 95 c 1
 491 135 483 187 483 251 c 2
 483 445 l 2
 483 509 491 561 511 602 c 1
EndSplineSet
Validated: 1
EndChar

StartChar: oe
Encoding: 339 339 196
Width: 1009
VWidth: 1467
Flags: W
HStem: -14 36<217.529 386.33 625.221 822.57> 216 39<534 868.736> 472 36<217.778 387.675 622.591 805.458>
VStem: 77 46<106.911 387.604> 487 47<108.848 216 255 385.017> 893 44<276.363 399.114>
LayerCount: 2
Fore
SplineSet
937 329 m 0
 937 231 884 216 722 216 c 2
 534 216 l 1
 534 156 l 2
 534 101 590 21 726 21 c 0
 763 21 858 26 894 107 c 1
 933 91 l 1
 882 -11 739 -14 716 -14 c 0
 592 -14 527 46 506 78 c 1
 467 16 384 -14 307 -14 c 0
 153 -14 77 87 77 170 c 0
 77 323 l 0
 77 451 196 508 305 508 c 0
 383 508 464 478 506 415 c 1
 523 440 586 509 706 509 c 0
 834 509 937 437 937 329 c 0
715 474 m 0
 602 474 534 397 534 339 c 2
 534 255 l 1
 748 255 l 2
 837 255 893 258 893 333 c 0
 893 403 824 474 715 474 c 0
302 472 m 0
 221 472 123 425 123 305 c 2
 123 189 l 2
 123 83 206 22 302 22 c 0
 396 22 485 81 487 186 c 2
 487 307 l 2
 485 413 398 472 302 472 c 0
EndSplineSet
Validated: 1
EndChar

StartChar: florin
Encoding: 402 402 202
Width: 431
VWidth: 1467
Flags: W
HStem: 377 35<43 138 189 324> 662 38<267.052 386>
LayerCount: 2
Fore
SplineSet
390 700 m 1
 386 662 l 1
 359 662 l 2
 237 662 211 605 200 499 c 2
 189 412 l 1
 324 412 l 1
 324 377 l 1
 185 377 l 1
 132 -28 l 2
 129 -45 107 -79 76 -89 c 1
 60 -77 l 2
 54 -72 49 -67 44 -60 c 1
 71 -40 87 -22 92 18 c 2
 138 377 l 1
 43 377 l 1
 43 412 l 1
 142 412 l 1
 153 493 l 2
 171 645 214 700 365 700 c 2
 390 700 l 1
EndSplineSet
Validated: 1
EndChar

StartChar: circumflex
Encoding: 710 710 203
Width: 490
VWidth: 1467
Flags: W
HStem: 697 160
VStem: 103 283
LayerCount: 2
Fore
SplineSet
245 789 m 1
 236 768 199 722 166 697 c 1
 103 697 l 1
 135 718 221 793 244 857 c 1
 269 800 336 736 386 697 c 1
 323 697 l 1
 314 704 280 727 245 789 c 1
EndSplineSet
Validated: 1
EndChar

StartChar: caron
Encoding: 711 711 204
Width: 490
VWidth: 1467
Flags: W
HStem: 698 160
VStem: 103 283
LayerCount: 2
Fore
SplineSet
244 753 m 1
 248 768 301 836 337 858 c 1
 386 858 l 1
 352 838 265 759 245 698 c 1
 219 756 154 819 103 858 c 1
 150 858 l 1
 192 829 235 778 244 753 c 1
EndSplineSet
Validated: 1
EndChar

StartChar: breve
Encoding: 728 728 205
Width: 440
VWidth: 1467
Flags: W
HStem: 616 41<156.89 282.26>
VStem: 63 46<703.413 775> 332 45<703.183 775>
LayerCount: 2
Fore
SplineSet
220 657 m 256
 283 657 332 707 332 775 c 1
 377 775 l 1
 377 696 316 616 220 616 c 0
 132 616 63 689 63 775 c 1
 109 775 l 1
 109 710 153 657 220 657 c 256
EndSplineSet
Validated: 1
EndChar

StartChar: dotaccent
Encoding: 729 729 206
Width: 231
VWidth: 1467
Flags: W
HStem: 621 115<81.4762 149.315>
VStem: 73 85<627.976 729.195>
LayerCount: 2
Fore
SplineSet
116 736 m 0
 143 736 158 709 158 678 c 0
 158 647 142 621 116 621 c 0
 99 621 73 635 73 678 c 0
 73 711 90 736 116 736 c 0
EndSplineSet
Validated: 1
EndChar

StartChar: ring
Encoding: 730 730 207
Width: 403
VWidth: 1467
Flags: W
HStem: 612 25<174.599 235.025> 759 23<172.004 230.806>
VStem: 109 36<660.402 738.53> 261 35<657.765 735.37>
LayerCount: 2
Fore
SplineSet
203 782 m 0
 255 782 296 744 296 697 c 256
 296 650 254 612 203 612 c 0
 150 612 109 650 109 697 c 0
 109 751 155 782 203 782 c 0
204 637 m 0
 234 637 261 671 261 697 c 0
 261 722 231 759 201 759 c 0
 167 759 145 718 145 697 c 0
 145 677 174 637 204 637 c 0
EndSplineSet
Validated: 1
EndChar

StartChar: ogonek
Encoding: 731 731 208
Width: 284
VWidth: 1467
Flags: W
HStem: -203 32<125.469 221.584> -79 27<90.1309 144> -19 20G<118.185 141>
VStem: 56 27<-134.689 -87.2254>
LayerCount: 2
Fore
SplineSet
131 -52 m 0
 135 -52 140 -53 144 -53 c 1
 103 1 l 1
 141 0 l 1
 196 -88 l 2
 198 -90 200 -92 201 -95 c 1
 201 -97 l 1
 180 -86 173 -79 132 -79 c 0
 110 -79 83 -85 83 -109 c 0
 83 -142 144 -171 189 -171 c 0
 200 -171 210 -168 219 -164 c 1
 226 -192 l 1
 211 -200 195 -203 177 -203 c 0
 119 -203 56 -165 56 -113 c 0
 56 -72 92 -52 131 -52 c 0
EndSplineSet
Validated: 1
EndChar

StartChar: tilde
Encoding: 732 732 209
Width: 316
VWidth: 1467
Flags: W
HStem: 597 37<175.859 259.918> 653 37<62.7308 139.398>
VStem: 19 29<594 633.524> 274 31<652.577 693>
LayerCount: 2
Fore
SplineSet
222 634 m 0
 256 635 270 660 274 693 c 1
 305 693 l 1
 305 684 l 0
 305 621 254 597 219 597 c 0
 163 597 137 653 100 653 c 0
 58 653 49 608 48 594 c 1
 19 594 l 1
 19 597 l 0
 19 642 44 690 98 690 c 0
 148 690 176 634 222 634 c 0
EndSplineSet
Validated: 1
EndChar

StartChar: uni0E01
Encoding: 3585 3585 212
Width: 625
VWidth: 1467
Flags: W
HStem: 0 21G<101 142 480.76 527> 551 34<141 373.002>
VStem: 101 41<0 392.85> 481 46<0 446.61>
LayerCount: 2
Fore
SplineSet
141 546 m 1
 145 542 208 489 208 486 c 2
 208 442 l 1
 203 438 142 407 142 308 c 2
 142 0 l 1
 101 0 l 1
 101 267 l 2
 101 366 117 431 175 471 c 1
 95 544 l 1
 95 585 l 1
 208 585 l 2
 359 585 449 584 500 481 c 0
 518 446 527 395 527 330 c 2
 527 0 l 1
 481 0 l 1
 477 333 l 2
 475 509 396 551 260 551 c 0
 213 551 213 548 141 546 c 1
EndSplineSet
Validated: 1
EndChar

StartChar: uni0E02
Encoding: 3586 3586 213
Width: 492
VWidth: 1467
Flags: W
HStem: -8 36<179.555 293.341> 360 26<128.912 170.849> 562 24<157.992 198.231>
VStem: 82 44<77.7244 237.494 386.227 525.775> 210 44<396.469 548.418> 352 46<84.565 584>
LayerCount: 2
Fore
SplineSet
351 305 m 0
 351 389 352 417 352 584 c 1
 398 584 l 1
 398 148 l 2
 398 37 305 -8 234 -8 c 0
 154 -8 82 47 82 142 c 0
 82 210 113 262 128 279 c 2
 164 323 l 2
 184 348 202 370 214 402 c 1
 196 374 168 360 150 360 c 0
 105 360 85 405 85 449 c 0
 85 520 131 586 181 586 c 0
 245 586 254 470 254 451 c 0
 254 317 126 299 126 161 c 0
 126 83 170 28 237 28 c 0
 283 28 352 65 352 170 c 0
 352 214 351 259 351 305 c 0
148 386 m 0
 175 386 210 449 210 504 c 0
 210 550 191 562 178 562 c 0
 152 562 120 493 120 440 c 0
 120 398 137 386 148 386 c 0
EndSplineSet
Validated: 1
EndChar

StartChar: uni0E03
Encoding: 3587 3587 214
Width: 569
VWidth: 1467
Flags: W
HStem: -7 37<255.941 371.753> 365 27<126.426 170.993> 570 20G<433 478> 571 26<155.325 198.171>
VStem: 81 34<398.928 520.87> 156 44<83.9838 244.879> 210 36<438.528 540.18> 279 28<560.692 593> 296 35<386.106 476.614> 432 47<86.9688 590>
LayerCount: 2
Fore
SplineSet
180 597 m 0xdec0
 222 597 264 537 268 528 c 1
 279 593 l 1
 307 593 l 1xdf40
 320 533 l 2
 327 506 331 483 331 463 c 0
 331 324 200 310 200 166 c 0
 200 67 267 30 312 30 c 0
 361 30 433 66 433 175 c 0
 432 220 432 266 432 312 c 0
 432 395 433 423 433 590 c 1
 478 590 l 1xeec0
 478 417 479 388 479 301 c 0
 479 253 479 204 478 153 c 0
 478 44 390 -7 314 -7 c 0
 254 -7 156 25 156 152 c 0
 156 179 157 231 212 298 c 2
 258 355 l 2
 261 358 296 400 296 430 c 0
 296 453 290 471 255 500 c 1
 245 515 l 1
 246 510 246 506 246 501 c 0
 246 446 203 365 146 365 c 0
 101 365 81 417 81 459 c 0
 81 528 125 597 180 597 c 0xdec0
177 571 m 0
 149 571 115 500 115 451 c 0
 115 429 122 392 148 392 c 0
 175 392 210 456 210 512 c 0
 210 547 197 571 177 571 c 0
EndSplineSet
Validated: 1
EndChar

StartChar: uni0E04
Encoding: 3588 3588 215
Width: 670
VWidth: 1467
Flags: W
HStem: 0 21G<104 148 534 578> 213 35<254.167 391.326> 333 35<242.786 383.623> 558 32<243.566 438.359>
VStem: 104 44<0 246.664 299 487.484> 408 25<268.597 308.362> 534 44<0 487.742>
LayerCount: 2
Fore
SplineSet
204 291 m 1
 176 260 148 226 148 166 c 2
 148 0 l 1
 104 0 l 1
 104 431 l 2
 104 569 257 590 341 590 c 0
 445 590 578 561 578 428 c 2
 578 0 l 1
 534 0 l 1
 534 415 l 2
 534 529 426 558 342 558 c 0
 257 558 148 530 148 415 c 2
 148 299 l 1
 193 349 258 368 311 368 c 0
 382 368 433 328 433 288 c 0
 433 246 385 213 330 213 c 0
 272 213 209 242 204 291 c 1
315 333 m 0
 292 333 229 327 229 292 c 0
 229 268 283 248 324 248 c 0
 368 248 408 266 408 288 c 0
 408 317 342 333 315 333 c 0
EndSplineSet
Validated: 1
EndChar

StartChar: uni0E05
Encoding: 3589 3589 216
Width: 674
VWidth: 1467
Flags: W
HStem: 0 21G<104 148 538 582> 224 36<257.067 402.617> 342 35<250.73 390.086> 568 20G<204 313 389.5 456.5>
VStem: 104 44<0 255.299 308 482.783> 211 25<284.755 304.073> 415 25<277.396 316.406> 538 44<0 487.497>
LayerCount: 2
Fore
SplineSet
331 224 m 0
 273 224 211 254 211 305 c 1
 190 289 148 243 148 175 c 2
 148 0 l 1
 104 0 l 1
 104 431 l 2
 104 462 116 567 292 588 c 1
 334 517 328 526 345 500 c 1
 359 527 384 571 395 588 c 1
 518 574 582 523 582 425 c 2
 582 0 l 1
 538 0 l 1
 538 408 l 2
 538 526 447 537 414 544 c 1
 345 445 l 1
 277 543 l 1
 265 540 148 522 148 415 c 2
 148 308 l 1
 183 346 245 377 314 377 c 0
 396 377 440 333 440 297 c 0
 440 253 387 224 331 224 c 0
318 342 m 0
 275 342 236 326 236 303 c 0
 236 279 289 260 324 260 c 0
 397 260 415 283 415 299 c 0
 415 323 353 342 318 342 c 0
EndSplineSet
Validated: 1
EndChar

StartChar: uni0E06
Encoding: 3590 3590 217
Width: 720
VWidth: 1467
Flags: W
HStem: -1 39<173.88 231.444 374.957 513.38> 235 38<173.32 227.379> 360 26<123.892 165.927> 566 26<152.989 195.552>
VStem: 78 35<391.149 517.972> 107 46<55.063 218.375> 207 36<434.249 511> 276 28<555.231 587> 293 38<370.925 476.705> 587 44<103.351 588>
LayerCount: 2
Fore
SplineSet
452 -1 m 0xf2c0
 410 -1 351 6 286 87 c 1
 277 48 250 -4 204 -4 c 0
 154 -4 107 61 107 135 c 0
 107 208 152 273 204 273 c 0
 217 273 227 270 236 264 c 1
 241 332 293 384 293 426 c 0xf6c0
 293 445 289 468 254 497 c 1
 242 511 l 1
 242 506 243 502 243 497 c 0
 243 440 200 360 143 360 c 0
 98 360 78 412 78 454 c 0
 78 527 128 592 175 592 c 0
 214 592 256 542 266 524 c 1
 276 587 l 1
 304 587 l 1xfb40
 317 528 l 2
 330 487 331 462 331 451 c 0
 331 418 323 384 316 370 c 2
 291 318 l 258
 279 297 278 275 278 256 c 0
 278 223 285 190 289 174 c 2
 299 136 l 1
 360 47 407 38 434 38 c 0
 493 38 587 68 587 188 c 2
 587 588 l 1
 631 588 l 1
 631 180 l 2
 631 74 558 -1 452 -1 c 0xf2c0
175 566 m 0
 149 566 113 500 113 448 c 0xfa40
 113 411 125 386 144 386 c 0
 169 386 207 448 207 508 c 0
 207 543 194 566 175 566 c 0
201 235 m 256
 170 235 153 179 153 135 c 256xf640
 153 104 169 34 204 34 c 256
 238 34 246 106 246 135 c 256
 246 181 230 235 201 235 c 256
EndSplineSet
Validated: 1
EndChar

StartChar: uni0E07
Encoding: 3591 3591 218
Width: 507
VWidth: 1467
Flags: W
HStem: -4 21G<248.896 304.5> 362 24<300.688 342.649> 562 24<330.314 371.646>
VStem: 257 34<390.582 516.776> 374 44<97.4087 387> 382 36<428.636 557.5>
LayerCount: 2
Fore
SplineSet
353 586 m 0xf8
 400 586 418 540 418 496 c 2xf4
 418 163 l 2
 418 73 351 10 258 -4 c 1
 75 398 l 1
 113 417 l 1
 286 43 l 1
 332 62 374 97 374 179 c 2
 374 387 l 1
 362 375 342 362 321 362 c 0
 283 362 257 398 257 450 c 0
 257 522 304 586 353 586 c 0xf8
321 386 m 0
 346 386 382 443 382 505 c 0
 382 554 363 562 351 562 c 0
 330 562 291 511 291 442 c 0
 291 394 309 386 321 386 c 0
EndSplineSet
Validated: 1
EndChar

StartChar: uni0E08
Encoding: 3592 3592 219
Width: 607
VWidth: 1467
Flags: W
HStem: -6 21G<330 430.5> 160 25<259.8 301.345> 360 25<229.62 271.59> 550 34<178.155 380.621>
VStem: 185 35<229.034 355.829> 330 41<31 185.277> 468 47<79.7063 483.766>
LayerCount: 2
Fore
SplineSet
277 584 m 0
 383 584 515 554 515 436 c 2
 515 141 l 2
 515 94 493 26 368 -6 c 1
 330 -6 l 1
 330 188 l 1
 330 187 317 160 288 160 c 0
 261 160 185 203 185 295 c 0
 185 328 198 385 252 385 c 0
 272 385 332 368 353 266 c 0
 370 183 371 115 371 51 c 2
 371 31 l 1
 463 65 468 114 468 141 c 2
 468 415 l 2
 468 528 348 550 286 550 c 0
 169 550 130 508 113 493 c 1
 66 508 l 1
 87 547 173 584 277 584 c 0
283 185 m 0
 306 185 312 225 312 245 c 0
 312 300 275 360 250 360 c 0
 224 360 220 323 220 305 c 0
 220 240 256 185 283 185 c 0
EndSplineSet
Validated: 1
EndChar

StartChar: uni0E09
Encoding: 3593 3593 220
Width: 738
VWidth: 1467
Flags: W
HStem: -4 45<309.559 439.255> -1 33<578.539 623.464> 149 26<144.24 187.585> 195 34<576.327 622.837> 356 26<171.893 215.523> 549 50<170.961 446.106>
VStem: 97 36<180.074 309.653> 226 34<219.724 350.956> 524 50<220 485.684> 524 35<51.0331 113 143.03 178.682> 640 38<45.537 180.959>
LayerCount: 2
Fore
SplineSet
69 521 m 1xbfa0
 88 554 167 599 310 599 c 0
 515 599 574 528 574 421 c 2
 574 334 l 2xbfa0
 574 296 573 257 572 220 c 1
 581 226 591 229 602 229 c 0
 639 229 678 183 678 114 c 0
 678 42 637 -1 602 -1 c 0
 555 -1 524 53 524 113 c 1x7f60
 501 25 424 -4 372 -4 c 0
 242 -4 218 117 210 167 c 1
 196 155 181 149 165 149 c 0
 118 149 97 197 97 241 c 0
 97 310 144 382 195 382 c 0
 242 382 263 335 263 288 c 0
 263 277 262 266 260 255 c 1
 260 178 l 2
 260 73 329 41 378 41 c 0
 432 41 524 107 524 227 c 2
 524 424 l 2
 524 533 393 549 310 549 c 0
 197 549 138 519 117 493 c 1
 69 521 l 1xbfa0
600 195 m 0
 572 195 559 139 559 114 c 0
 559 88 572 35 602 32 c 0x7f60
 623 32 640 74 640 114 c 0
 640 141 627 194 600 195 c 0
196 356 m 0
 163 356 133 284 133 234 c 0
 133 214 138 175 165 175 c 0
 187 175 226 225 226 297 c 0
 226 318 221 356 196 356 c 0
EndSplineSet
Validated: 1
EndChar

StartChar: uni0E0A
Encoding: 3594 3594 221
Width: 517
VWidth: 1467
Flags: W
HStem: -5 35<191.62 304.076> 362 24<138.104 179.959> 563 25<167.351 208.08>
VStem: 91 44<81.1087 238.83 386.263 527.792> 221 36<435.297 556.657> 361 47<86.5337 388.098> 373 55<527.415 625>
LayerCount: 2
Fore
SplineSet
280 450 m 1xfc
 337 474 369 525 373 625 c 1
 428 625 l 1xfa
 424 542 394 476 332 446 c 1
 392 380 403 384 408 321 c 2
 408 150 l 2
 408 39 317 -5 244 -5 c 0
 187 -5 91 25 91 148 c 0
 91 275 195 316 224 403 c 1
 206 378 183 362 159 362 c 0
 120 362 94 398 94 450 c 0
 94 536 152 588 192 588 c 0
 218 588 257 570 257 463 c 0
 257 308 135 296 135 163 c 0
 135 63 203 30 249 30 c 0
 294 30 361 66 361 172 c 2
 361 299 l 2
 361 354 355 379 320 412 c 2
 280 450 l 1xfc
157 386 m 0
 191 386 221 465 221 504 c 0
 221 536 208 563 188 563 c 0
 165 563 129 507 129 442 c 0
 129 423 132 386 157 386 c 0
EndSplineSet
Validated: 1
EndChar

StartChar: uni0E0B
Encoding: 3595 3595 222
Width: 597
VWidth: 1467
Flags: W
HStem: -2 38<250.857 369.944> 368 24<127.277 166.357> 572 25<155.82 196.2>
VStem: 79 36<397.424 525.804> 154 44<86.613 245.408> 208 34<438.242 515> 276 28<563 593> 293 37<386.066 481.667> 428 48<92.5663 334.989 335 399.231> 450 56<546.164 632>
LayerCount: 2
Fore
SplineSet
401 459 m 1xfc40
 451 418 466 396 474 335 c 0
 475 335 476 320 476 290 c 2
 476 156 l 2
 476 46 382 -2 309 -2 c 0
 238 -2 154 45 154 150 c 256
 154 297 293 356 293 433 c 0xfd80
 293 451 289 473 255 502 c 1
 242 515 l 1
 242 502 l 2
 242 415 186 368 148 368 c 0
 101 368 79 413 79 460 c 0
 79 531 129 597 179 597 c 0
 219 597 263 535 267 528 c 1
 276 593 l 1
 304 593 l 1xfe
 318 533 l 2
 324 507 330 483 330 463 c 0
 330 330 198 307 198 169 c 0
 198 55 281 36 311 36 c 0
 351 36 428 65 428 179 c 2
 428 302 l 2xfd80
 428 361 423 387 386 424 c 2
 348 462 l 1
 384 473 450 530 450 632 c 1
 506 632 l 1
 506 607 496 511 401 459 c 1xfc40
208 506 m 0
 208 559 189 572 177 572 c 0
 153 572 115 511 115 453 c 0
 115 436 121 392 145 392 c 0
 165 392 208 442 208 506 c 0
EndSplineSet
Validated: 1
EndChar

StartChar: uni0E0C
Encoding: 3596 3596 223
Width: 928
VWidth: 1467
Flags: W
HStem: -3 47<608.247 755.32> 0 25<143.606 187.356 435.701 477.816> 199 25<173.48 216.25 437.082 480.454> 546 35<142 373.044>
VStem: 100 44<198 392.433> 100 36<27.3774 157.051> 226 35<67.219 195.111> 381 36<40.1908 184.636> 481 47<223 449.203> 791 42<84.2037 581>
LayerCount: 2
Fore
SplineSet
679 44 m 0xbbc0
 748 44 791 64 791 195 c 2
 791 581 l 1
 833 581 l 1
 833 161 l 2
 833 30 757 -3 678 -3 c 0xbbc0
 620 -3 563 45 533 88 c 1
 523 28 490 0 458 0 c 0
 412 0 381 53 381 116 c 0
 381 176 412 229 458 229 c 0
 467 229 474 227 481 223 c 1
 481 277 478 303 478 345 c 0
 478 506 386 546 259 546 c 0
 212 546 201 541 142 541 c 1
 145 537 208 487 208 481 c 2
 208 436 l 1
 166 415 144 363 144 304 c 2
 144 198 l 1x7bc0
 168 222 184 224 197 224 c 0
 242 224 261 177 261 135 c 0
 261 59 209 -1 166 -1 c 0
 122 -1 100 43 100 82 c 2x77c0
 100 263 l 2
 100 368 117 427 176 467 c 1
 95 540 l 1
 95 581 l 1
 201 581 l 2
 358 581 389 573 429 552 c 0
 525 505 528 378 528 334 c 2
 528 178 l 2
 528 108 601 44 679 44 c 0xbbc0
197 199 m 0
 165 199 136 133 136 79 c 0x37c0
 136 60 139 24 164 24 c 0
 186 24 226 73 226 142 c 0
 226 163 220 199 197 199 c 0
417 116 m 0
 417 85 425 25 458 25 c 0x73c0
 488 25 500 93 500 116 c 0
 500 161 484 204 461 204 c 0
 431 204 417 142 417 116 c 0
EndSplineSet
Validated: 1
EndChar

StartChar: uni0E0D
Encoding: 3597 3597 224
Width: 908
VWidth: 1467
Flags: W
HStem: -194 33<523.275 640.489> -98 31<527.168 641.175> -1 35<528 640.141> -1 25<146.713 186.562> 200 25<174.84 216.759> 551 36<142 374.499>
VStem: 100 37<27.7361 159> 101 43<198 396.083> 228 34<72.6539 195.293> 483 45<-3 -1 34 445.925> 490 26<-149.312 -112.13> 650 28<-130.34 -109.712> 761 50<140.888 587>
LayerCount: 2
Fore
SplineSet
101 267 m 2xdd98
 101 359 118 434 176 471 c 1
 97 544 l 1
 97 585 l 1
 187 587 198 587 209 587 c 0
 351 587 448 586 502 482 c 0
 519 447 528 397 528 332 c 2
 528 34 l 1
 660 34 761 78 761 253 c 2
 761 587 l 1
 811 587 l 1
 811 268 l 2
 811 33 689 -1 528 -1 c 1
 528 -3 l 1
 483 -3 l 1
 478 333 l 2
 478 384 475 458 422 504 c 0
 378 544 320 551 264 551 c 0
 215 551 203 546 142 546 c 1
 145 540 179 516 208 487 c 1
 208 442 l 1
 198 434 144 407 144 308 c 2
 144 198 l 1xedd8
 158 213 177 225 199 225 c 0
 243 225 262 176 262 133 c 0
 262 62 213 -1 167 -1 c 0
 121 -1 100 54 100 91 c 2xde98
 101 267 l 2xdd98
200 200 m 0
 164 200 137 131 137 79 c 0
 137 56 143 24 166 24 c 0xde98
 189 24 228 84 228 141 c 0
 228 159 222 200 200 200 c 0
602 -194 m 0
 500 -194 490 -144 490 -129 c 256xccb8
 490 -91 536 -67 583 -67 c 0
 620 -67 678 -85 678 -131 c 1
 717 -108 739 -87 760 -48 c 1
 811 -48 l 1
 778 -104 705 -194 602 -194 c 0
584 -161 m 0
 590 -161 648 -158 650 -129 c 0
 650 -104 604 -98 584 -98 c 0
 558 -98 519 -107 516 -131 c 0
 516 -155 562 -161 584 -161 c 0
EndSplineSet
Validated: 1
Substitution2: "Single Substitution lookup 22 subtable" uni0E0D.alt1
Substitution2: "Single Substitution lookup 22 subtable" uni0E0D.alt1
EndChar

StartChar: uni0E0E
Encoding: 3598 3598 225
Width: 657
VWidth: 1467
Flags: W
HStem: -233 28<202.628 319.409> -130 27<205.22 346.357> -1 25<161.12 202.294> 201 24<131.98 172.715> 550 35<180 410.949>
VStem: 85 35<72.9202 195.086> 156 32<-191.513 -144.757> 204 44<200 480> 212 36<28.4162 321.186> 392 41<-116.441 -54> 519 47<-248 -220.702 -192 453.216>
LayerCount: 2
Fore
SplineSet
150 225 m 0xfee0
 172 225 192 212 204 200 c 1xff60
 205 480 l 1
 134 543 l 1
 134 584 l 1
 239 585 l 2
 392 585 424 580 468 556 c 0
 563 506 566 383 566 339 c 2
 566 -248 l 1
 519 -248 l 1
 519 -244 l 1
 504 -222 464 -189 399 -163 c 1
 358 -225 291 -233 266 -233 c 0
 207 -233 156 -207 156 -167 c 0
 156 -136 199 -103 264 -103 c 0
 300 -103 339 -104 381 -117 c 1
 384 -105 388 -98 392 -54 c 1
 433 -54 l 1
 430 -81 424 -106 415 -129 c 1
 455 -145 490 -165 519 -192 c 1
 516 332 l 2
 516 397 507 445 484 476 c 0
 446 527 392 550 311 550 c 0
 285 550 272 548 180 544 c 1
 185 536 203 529 246 486 c 1
 246 486 248 98 248 94 c 0
 248 67 235 -1 181 -1 c 0
 136 -1 85 62 85 134 c 0
 85 166 98 225 150 225 c 0xfee0
183 24 m 0
 208 24 212 59 212 79 c 0xfee0
 212 141 176 201 152 201 c 0
 133 201 120 178 120 143 c 0
 120 89 156 24 183 24 c 0
188 -167 m 0
 188 -198 236 -205 262 -205 c 0
 333 -205 364 -153 364 -153 c 1
 364 -152 363 -150 361 -148 c 1
 315 -133 284 -130 264 -130 c 0
 224 -130 188 -145 188 -167 c 0
EndSplineSet
Validated: 1
Substitution2: "Single Substitution lookup 22 subtable" uni0E0E.alt1
Substitution2: "Single Substitution lookup 22 subtable" uni0E0E.alt1
EndChar

StartChar: uni0E0F
Encoding: 3599 3599 226
Width: 658
VWidth: 1467
Flags: W
HStem: -233 25<157.063 243.658> -128 25<156.676 250.662> -1 25<155.224 196.553> 199 25<125.315 167.984> 549 35<180 411.633>
VStem: 81 34<71.7928 193.247> 109 30<-193.359 -142.784> 206 35<27.8651 156.048 194 478> 315 42<-133.959 -56> 519 46<-195 446.909>
LayerCount: 2
Fore
SplineSet
145 224 m 0xfdc0
 156 224 178 221 200 194 c 1
 200 478 l 1
 134 541 l 1
 134 582 l 1
 223 584 232 584 251 584 c 0
 390 584 485 583 538 480 c 0
 556 445 565 395 565 330 c 2
 565 -248 l 1
 519 -248 l 1
 436 -134 l 1
 355 -248 l 1
 341 -226 329 -210 308 -183 c 1
 279 -215 245 -233 202 -233 c 0
 155 -233 109 -208 109 -167 c 0xfbc0
 109 -131 154 -103 208 -103 c 0
 252 -103 275 -126 296 -138 c 1
 303 -123 310 -106 315 -56 c 1
 357 -56 l 1
 350 -95 341 -131 324 -160 c 1
 330 -166 355 -191 355 -195 c 1
 436 -84 l 1
 519 -195 l 1
 515 332 l 2
 515 396 505 444 483 474 c 0
 446 526 393 549 314 549 c 0
 287 549 260 545 180 543 c 1
 238 484 l 1
 239 110 l 2
 240 102 241 93 241 86 c 0
 241 35 215 -1 175 -1 c 0
 127 -1 81 64 81 134 c 0
 81 175 100 224 145 224 c 0xfdc0
177 24 m 0
 202 24 206 59 206 79 c 0
 206 147 169 199 146 199 c 0
 134 199 115 188 115 145 c 0xfdc0
 115 82 152 24 177 24 c 0
139 -167 m 0xfbc0
 139 -191 169 -208 197 -208 c 0
 225 -208 265 -191 285 -161 c 1
 285 -161 246 -128 199 -128 c 0
 171 -128 139 -144 139 -167 c 0xfbc0
EndSplineSet
Validated: 1
Substitution2: "Single Substitution lookup 22 subtable" uni0E0F.alt1
Substitution2: "Single Substitution lookup 22 subtable" uni0E0F.alt1
EndChar

StartChar: uni0E10
Encoding: 3600 3600 227
Width: 591
VWidth: 1467
Flags: W
HStem: -235 22<126.051 200.91> -139 22<125.899 208.152 385.661 458.667> -67 24<381.262 469.258> 1 21G<313 375> 96 24<255.445 294.64> 296 24<224.943 265.92> 550 36<185.571 477.678>
VStem: 82 28<-200.59 -151.902> 109 42<469.914 524.19> 179 36<163.996 291.253> 268 36<-146.996 -100> 352 22<-105.803 -76.4912> 450 45<96.9727 331.059> 461 33<-220 -132> 474 20<-102.986 -75.4783>
LayerCount: 2
Fore
SplineSet
357 50 m 1xfef8
 390 60 450 92 450 156 c 2
 450 299 l 2
 450 385 109 392 109 487 c 0
 109 513 131 586 315 586 c 0
 394 586 473 574 511 565 c 1
 518 521 l 1
 466 540 361 550 302 550 c 0
 175 550 151 513 151 495 c 0
 151 431 495 399 495 310 c 2
 495 156 l 2
 495 120 481 88 468 66 c 0
 446 26 393 15 357 1 c 1
 313 1 l 1
 313 24 314 69 317 114 c 1
 300 96 285 96 276 96 c 0
 228 96 179 161 179 231 c 0
 179 276 201 320 246 320 c 0
 284 320 331 275 346 202 c 0
 353 168 357 135 357 104 c 2
 357 50 l 1xfef8
276 120 m 0
 288 120 305 131 305 184 c 0
 305 247 265 296 246 296 c 0
 233 296 215 285 215 242 c 0
 215 176 252 120 276 120 c 0
276 -169 m 1
 283 -176 309 -205 311 -210 c 1
 377 -170 l 1
 461 -220 l 1
 461 -132 l 1xff74
 452 -136 439 -138 424 -138 c 0
 386 -138 352 -119 352 -91 c 256
 352 -62 386 -43 424 -43 c 0
 465 -43 490 -63 494 -84 c 1
 494 -248 l 1
 453 -248 l 1
 377 -200 l 1
 304 -248 l 1
 292 -225 276 -208 261 -189 c 1
 237 -219 203 -235 163 -235 c 0
 121 -235 82 -210 82 -175 c 0xff72
 82 -135 133 -117 170 -117 c 0
 209 -117 245 -142 252 -148 c 1
 263 -132 266 -120 268 -100 c 1
 304 -100 l 1
 300 -127 295 -136 276 -169 c 1
110 -175 m 0
 110 -198 137 -213 161 -213 c 0
 179 -213 217 -202 241 -170 c 1
 226 -155 187 -139 164 -139 c 0
 132 -139 110 -158 110 -175 c 0
424 -113 m 0
 436 -113 474 -108 474 -89 c 0xfe72
 474 -70 435 -67 424 -67 c 0
 412 -67 374 -72 374 -91 c 0
 374 -109 404 -113 424 -113 c 0
EndSplineSet
Validated: 1
Substitution2: "Single Substitution lookup 22 subtable" uni0E10.alt1
Substitution2: "Single Substitution lookup 22 subtable" uni0E10.alt1
EndChar

StartChar: uni0E11
Encoding: 3601 3601 228
Width: 839
VWidth: 1467
Flags: W
HStem: 0 21G<301 343 700 744> 355 26<125.607 168.874> 540 45<488.233 647.321> 558 26<155.552 197.74>
VStem: 81 36<383.946 513.248> 209 35<429.814 500> 301 42<0 304.575 333 445.555> 700 44<0 482.959>
LayerCount: 2
Fore
SplineSet
296 584 m 1xdf
 319 551 343 467 343 425 c 2
 343 333 l 1
 374 451 433 585 569 585 c 0
 646 585 744 551 744 412 c 2
 744 0 l 1
 700 0 l 1
 700 386 l 2
 700 489 655 540 565 540 c 0xef
 387 540 343 267 343 136 c 2
 343 0 l 1
 301 0 l 1
 301 361 l 2
 301 441 244 500 244 500 c 1
 244 408 190 355 146 355 c 0
 94 355 81 412 81 446 c 0
 81 513 124 584 177 584 c 0
 219 584 282 503 282 503 c 1
 268 584 l 1
 296 584 l 1xdf
178 558 m 0xdf
 154 558 117 502 117 436 c 0
 117 419 120 381 144 381 c 0
 178 381 209 454 209 498 c 0
 209 516 203 558 178 558 c 0xdf
EndSplineSet
Validated: 1
EndChar

StartChar: uni0E12
Encoding: 3602 3602 229
Width: 953
VWidth: 1467
Flags: W
HStem: -4 41<654.438 775.724> -4 30<504.589 545.047> -1 45<144 230.922> 132 26<277.498 317.28> 173 31<501.701 533.551> 335 25<307.47 350.053> 562 20G<245 293.5 381.5 439 819 861>
VStem: 101 43<44 486.06> 233 35<162.113 288.496> 360 36<203.455 331.138> 455 35<36.5894 164.96> 534 42<202 488.797> 819 42<83.4366 582>
LayerCount: 2
Fore
SplineSet
576 234 m 2x3ff8
 576 85 664 37 718 37 c 0
 779 37 819 88 819 164 c 2
 819 582 l 1
 861 582 l 1
 861 131 l 2
 861 88 825 -4 725 -4 c 0x9ff8
 709 -4 641 -3 591 67 c 1
 583 33 563 -4 525 -4 c 0x5ff8
 495 -4 455 35 455 100 c 0
 455 144 478 204 520 204 c 0
 524 204 529 203 534 202 c 1
 534 406 l 2
 534 543 426 543 406 546 c 1
 340 436 l 1
 264 547 l 1
 227 541 144 509 144 415 c 2
 144 44 l 1
 214 44 278 86 318 135 c 1
 311 133 305 132 299 132 c 0
 259 132 233 170 233 223 c 0
 233 287 273 360 328 360 c 0
 369 360 396 321 396 266 c 0
 396 210 355 32 178 -1 c 1
 101 -1 l 1
 101 437 l 2
 101 545 202 575 288 585 c 1
 299 562 337 500 340 496 c 1
 357 533 374 559 389 585 c 1
 489 574 536 545 562 496 c 0
 574 474 580 450 580 425 c 0
 580 324 576 324 576 256 c 2
 576 234 l 2x3ff8
331 335 m 0
 297 335 268 263 268 213 c 0
 268 169 285 158 297 158 c 0
 324 158 360 217 360 278 c 0
 360 296 356 335 331 335 c 0
522 173 m 0
 503 173 490 142 490 100 c 0
 490 73 501 26 525 26 c 0x5ff8
 552 26 559 80 559 100 c 0
 559 118 552 173 522 173 c 0
EndSplineSet
Validated: 1
EndChar

StartChar: uni0E13
Encoding: 3603 3603 230
Width: 921
VWidth: 1467
Flags: W
HStem: -5 23<153.557 191.869> -4 32<764.091 816.64> 172 39<652.896 731> 195 25<181.87 222.084> 548 34<148 376.133>
VStem: 106 44<192 394.04> 106 36<23.1692 150.02> 232 35<62.5058 190.783> 489 44<1 70.6996 110 441.882> 710 35<46.7105 157.587> 763 45<211 582> 830 36<37.9967 161.199>
LayerCount: 2
Fore
SplineSet
254 582 m 2x9df0
 397 582 533 573 533 327 c 2
 533 110 l 1
 557 140 624 209 763 211 c 1
 763 582 l 1
 808 582 l 1
 808 208 l 1
 823 201 836 189 848 172 c 0
 860 154 866 129 866 98 c 0
 866 41 831 -4 791 -4 c 0
 752 -4 710 36 710 98 c 0
 710 129 715 149 731 175 c 1
 652 175 554 133 533 1 c 1
 489 1 l 1
 484 330 l 2
 484 390 478 456 428 501 c 0
 405 522 365 548 260 548 c 0
 215 548 204 543 148 543 c 1
 150 539 213 488 213 483 c 2
 213 437 l 1
 170 412 150 359 150 305 c 2
 150 192 l 1x6df0
 163 210 188 220 205 220 c 0
 249 220 267 171 267 131 c 0
 267 61 223 -5 173 -5 c 0
 146 -5 106 15 106 97 c 2x9bf0
 106 264 l 2
 106 361 122 429 182 468 c 1
 101 541 l 1
 101 582 l 1
 254 582 l 2x9df0
204 195 m 0x9bf0
 175 195 142 127 142 75 c 0
 142 54 148 18 172 18 c 0
 198 18 232 79 232 137 c 0
 232 182 215 195 204 195 c 0x9bf0
745 103 m 0
 745 74 760 28 794 28 c 0
 811 30 830 48 830 103 c 0
 830 164 799 172 790 172 c 0x69f0
 781 172 745 162 745 103 c 0
EndSplineSet
Validated: 1
EndChar

StartChar: uni0E14
Encoding: 3604 3604 231
Width: 688
VWidth: 1467
Flags: W
HStem: 0 45<145 227.501> 136 26<282.141 323.844> 344 25<313.469 355.384> 556 38<235.09 458.256>
VStem: 100 45<45 485.999> 237 35<166.45 295.288> 367 36<207.276 338.667> 546 45<1 489.311>
LayerCount: 2
Fore
SplineSet
100 425 m 2
 100 560 241 594 350 594 c 0
 457 594 591 562 591 433 c 2
 591 433 591 145 591 1 c 1
 546 1 l 1
 546 418 l 2
 546 528 438 556 348 556 c 0
 260 556 145 528 145 418 c 2
 145 45 l 1
 218 45 287 93 324 138 c 1
 318 137 312 136 306 136 c 0
 250 136 237 188 237 224 c 0
 237 289 276 369 335 369 c 0
 376 369 403 329 403 281 c 0
 403 223 365 33 179 0 c 1
 100 0 l 1
 100 425 l 2
336 344 m 0
 302 344 272 268 272 219 c 0
 272 173 290 162 303 162 c 0
 329 162 367 219 367 284 c 0
 367 319 355 344 336 344 c 0
EndSplineSet
Validated: 1
EndChar

StartChar: uni0E15
Encoding: 3605 3605 232
Width: 680
VWidth: 1467
Flags: W
HStem: 0 45<145 231.187> 136 26<282.325 323.145> 344 26<312.023 356> 582 20G<270.5 301.5 385.5 430>
VStem: 101 44<45 497.764> 235 37<166.662 300.791> 367 35<210.512 338.415> 544 46<1 500.136>
LayerCount: 2
Fore
SplineSet
402 277 m 0
 402 202 351 32 179 0 c 1
 101 0 l 1
 101 447 l 2
 101 576 249 595 292 602 c 1
 311 565 345 508 345 508 c 1
 363 546 376 564 395 602 c 1
 465 591 590 570 590 436 c 2
 590 1 l 1
 544 1 l 1
 544 417 l 2
 544 557 424 558 412 559 c 1
 345 446 l 1
 268 560 l 1
 247 558 145 533 145 425 c 2
 145 45 l 1
 217 45 285 92 324 139 c 1
 317 137 310 136 304 136 c 0
 249 136 235 193 235 230 c 0
 235 315 294 370 334 370 c 0
 375 370 402 332 402 277 c 0
336 344 m 0
 306 344 272 284 272 219 c 0
 272 173 290 162 303 162 c 0
 336 162 367 235 367 285 c 0
 367 320 355 344 336 344 c 0
EndSplineSet
Validated: 1
EndChar

StartChar: uni0E16
Encoding: 3606 3606 233
Width: 629
VWidth: 1467
Flags: W
HStem: -1 26<149.992 193.259> 199 26<177.559 222.577> 549 35<148 379.401>
VStem: 106 44<200 394.98> 106 34<29.6815 153.319> 232 35<70.018 195.081> 489 45<3 447.345>
LayerCount: 2
Fore
SplineSet
148 543 m 1xf6
 149 540 206 494 214 486 c 1
 214 440 l 1
 202 432 l 2
 183 418 150 378 150 305 c 2
 150 200 l 1xf6
 167 217 183 225 202 225 c 0
 241 225 267 184 267 134 c 0
 267 66 220 -1 171 -1 c 0
 132 -1 106 38 106 92 c 0
 106 98 106 104 107 110 c 1
 106 109 l 1xee
 106 278 l 2
 106 389 135 438 182 471 c 1
 101 541 l 1
 101 584 l 1
 207 584 l 2
 367 584 457 581 508 480 c 0
 525 446 534 395 534 330 c 2
 534 3 l 1
 489 3 l 1
 484 333 l 2
 484 398 475 445 452 476 c 0
 428 508 384 549 282 549 c 0
 255 549 228 545 148 543 c 1xf6
201 199 m 0
 174 199 140 140 140 80 c 0xee
 140 38 157 25 169 25 c 0
 199 25 232 89 232 143 c 0
 232 164 228 199 201 199 c 0
EndSplineSet
Validated: 1
EndChar

StartChar: uni0E17
Encoding: 3607 3607 234
Width: 707
VWidth: 1467
Flags: W
HStem: 0 21G<194 236 568 612> 363 26<116.5 159.4> 541 44<390 518.978> 564 25<146.613 187.812>
VStem: 73 35<392.437 520.362> 194 38<0 234.719 279 393 423.958 562.625> 568 44<0 484.829>
LayerCount: 2
Fore
SplineSet
232 279 m 1xde
 264 422 347 585 455 585 c 0
 567 585 612 488 612 384 c 2
 612 0 l 1
 568 0 l 1
 568 362 l 2
 568 505 519 541 445 541 c 0xee
 311 541 236 243 236 113 c 2
 236 0 l 1
 194 0 l 1
 194 393 l 1
 168 366 139 363 134 363 c 0
 102 363 73 400 73 453 c 0
 73 521 118 589 168 589 c 0
 208 589 232 548 232 501 c 2
 232 279 l 1xde
136 389 m 0
 162 389 199 449 199 505 c 0
 199 525 193 564 169 564 c 0xde
 140 564 108 499 108 445 c 0
 108 421 113 389 136 389 c 0
EndSplineSet
Validated: 1
EndChar

StartChar: uni0E18
Encoding: 3608 3608 235
Width: 581
VWidth: 1467
Flags: W
HStem: -6 39<194.556 402.846> 516 21G<484.5 496.894> 543 42<153.514 478.929>
VStem: 78 34<471.025 513.834> 110 47<62.2659 285> 431 50<55.6011 311.691>
LayerCount: 2
Fore
SplineSet
270 543 m 0xf4
 140 543 112 509 112 487 c 0xf4
 112 445 481 386 481 295 c 2
 481 65 l 2
 481 24 397 -6 294 -6 c 0
 226 -6 110 12 110 84 c 2
 110 285 l 1
 157 285 l 1
 157 98 l 2xec
 157 46 251 33 304 33 c 0
 373 33 431 54 431 87 c 2
 431 280 l 2
 431 363 78 399 78 479 c 0
 78 521 116 585 298 585 c 0
 364 585 441 576 490 563 c 1
 502 516 l 1
 467 530 351 543 270 543 c 0xf4
EndSplineSet
Validated: 1
EndChar

StartChar: uni0E19
Encoding: 3609 3609 236
Width: 704
VWidth: 1467
Flags: W
HStem: -10 32<562.233 604.281> -3 38<288.887 419.584> 188 34<562.552 606.657> 353 26<118.539 163.171> 556 24<150.753 189.703>
VStem: 75 35<382.061 511.4> 191 44<90.0197 379> 200 35<421.086 551.634> 505 44<27.739 112 122.169 181.198 210 578> 622 40<33.9264 178.638>
LayerCount: 2
Fore
SplineSet
358 35 m 0x7ec0
 440 35 505 125 505 202 c 2
 505 578 l 1
 549 578 l 1
 549 210 l 1
 560 218 571 222 584 222 c 0
 625 222 662 173 662 106 c 0
 662 41 628 -10 584 -10 c 0xbec0
 537 -10 505 39 505 112 c 1
 469 45 441 -3 354 -3 c 0
 277 -3 191 55 191 151 c 2
 191 379 l 1x7ec0
 171 359 147 353 136 353 c 0
 100 353 75 397 75 442 c 0
 75 513 119 580 170 580 c 0
 215 580 236 531 236 488 c 0
 236 482 236 477 235 471 c 1x7dc0
 235 183 l 2
 235 114 260 35 358 35 c 0x7ec0
110 434 m 0
 110 415 114 379 138 379 c 0
 172 379 200 445 200 500 c 0x3dc0
 200 545 182 556 170 556 c 0
 154 556 110 512 110 434 c 0
583 22 m 0xbcc0
 608 22 622 74 622 106 c 0
 622 148 606 188 586 188 c 0
 561 188 544 135 544 106 c 256
 544 70 560 22 583 22 c 0xbcc0
EndSplineSet
Validated: 1
EndChar

StartChar: uni0E1A
Encoding: 3610 3610 237
Width: 711
VWidth: 1467
Flags: W
HStem: -7 34<330.213 491.913> 360 26<118.485 160.007> 561 25<147.87 189.613>
VStem: 73 35<390.361 515.746> 202 43<92.6111 402 429.189 551.709> 572 46<88.5752 582>
LayerCount: 2
Fore
SplineSet
169 586 m 0
 201 586 245 551 245 475 c 2
 245 156 l 2
 245 50 368 27 415 27 c 0
 459 27 572 51 572 156 c 2
 572 582 l 1
 618 582 l 1
 618 141 l 2
 618 79 547 -7 416 -7 c 0
 325 -7 202 37 202 141 c 2
 202 402 l 1
 177 364 144 360 135 360 c 0
 110 360 73 390 73 451 c 0
 73 520 120 586 169 586 c 0
108 446 m 0
 108 426 114 386 137 386 c 0
 165 386 199 451 199 502 c 0
 199 553 181 561 170 561 c 0
 142 561 108 496 108 446 c 0
EndSplineSet
Validated: 1
EndChar

StartChar: uni0E1B
Encoding: 3611 3611 238
Width: 713
VWidth: 1467
Flags: W
HStem: -9 34<329.911 491.137> 359 26<119.198 160.401> 560 24<148.848 189.291>
VStem: 73 35<390.531 514.76> 202 43<90.8125 401 428.189 550.233> 572 46<84.4265 833>
LayerCount: 2
Fore
SplineSet
415 -9 m 0
 314 -9 202 43 202 139 c 2
 202 401 l 1
 179 365 151 359 136 359 c 0
 100 359 73 401 73 450 c 0
 73 520 122 584 169 584 c 0
 192 584 245 559 245 474 c 2
 245 161 l 2
 245 45 369 25 413 25 c 0
 464 25 572 51 572 154 c 2
 572 833 l 1
 618 833 l 1
 618 139 l 2
 618 72 540 -9 415 -9 c 0
108 444 m 0
 108 425 114 385 138 385 c 0
 165 385 199 450 199 501 c 0
 199 551 182 560 170 560 c 0
 142 560 108 495 108 444 c 0
EndSplineSet
Validated: 1
EndChar

StartChar: uni0E1C
Encoding: 3612 3612 239
Width: 671
VWidth: 1467
Flags: W
HStem: 0 21G<104 194.5 507.5 577> 359 26<159.673 202.405> 557 20G<536 577> 560 24<190.841 230.237>
VStem: 104 43<41 371 388.235 514.729> 241 33<431.358 554.359> 536 41<40 577>
LayerCount: 2
Fore
SplineSet
147 41 m 1xde
 198 63 250 106 345 276 c 1
 376 203 480 53 536 40 c 1
 536 577 l 1
 577 577 l 1xee
 577 0 l 1
 530 0 l 1
 485 23 431 57 345 195 c 1
 298 114 242 46 147 0 c 1
 104 0 l 1
 104 423 l 2
 104 538 175 584 210 584 c 0
 248 584 274 546 274 495 c 0
 274 430 230 359 178 359 c 0
 168 359 154 362 147 371 c 1
 147 41 l 1xde
179 385 m 0
 207 385 241 445 241 503 c 0
 241 524 235 560 211 560 c 0xde
 188 560 149 500 149 444 c 0
 149 425 155 385 179 385 c 0
EndSplineSet
Validated: 1
EndChar

StartChar: uni0E1D
Encoding: 3613 3613 240
Width: 671
VWidth: 1467
Flags: W
HStem: -1 21G<103 192 486 577> 362 26<157.727 201.548> 563 24<188.386 228.102>
VStem: 103 42<40 373 391.454 513.997> 240 34<434.364 557.848> 534 43<38 832>
LayerCount: 2
Fore
SplineSet
145 40 m 1
 195 61 252 102 343 270 c 1
 382 180 486 52 534 38 c 1
 534 832 l 1
 577 832 l 1
 577 -1 l 1
 528 -1 l 1
 444 43 400 100 343 189 c 1
 295 103 239 44 145 -1 c 1
 103 -1 l 1
 103 424 l 2
 103 504 155 587 208 587 c 0
 253 587 274 543 274 498 c 0
 274 425 226 362 176 362 c 0
 170 362 154 365 145 373 c 1
 145 40 l 1
210 563 m 0
 182 563 148 497 148 444 c 0
 148 424 154 388 177 388 c 0
 209 388 240 456 240 504 c 0
 240 523 234 563 210 563 c 0
EndSplineSet
Validated: 1
EndChar

StartChar: uni0E1E
Encoding: 3614 3614 241
Width: 736
VWidth: 1467
Flags: W
HStem: 0 21G<188 270.5 561.5 643> 358 25<145.718 186.594> 558 25<115.272 155.942>
VStem: 71 35<424.039 554.605> 188 42<39 362> 196 34<387.752 511.132> 601 42<41 580>
LayerCount: 2
Fore
SplineSet
230 453 m 2xf6
 230 39 l 1xfa
 292 103 356 295 408 485 c 1
 526 166 574 59 601 41 c 1
 601 580 l 1
 643 580 l 1
 643 0 l 1
 602 0 l 1
 521 32 433 283 411 400 c 1
 399 285 311 35 230 0 c 1xf6
 188 0 l 1
 188 362 l 1xfa
 186 360 183 358 170 358 c 0
 104 358 71 443 71 495 c 0
 71 526 84 583 135 583 c 0
 192 583 230 505 230 453 c 2xf6
166 383 m 0
 178 383 196 394 196 437 c 0xf6
 196 497 162 558 133 558 c 0
 122 558 106 550 106 495 c 0
 106 421 152 383 166 383 c 0
EndSplineSet
Validated: 1
EndChar

StartChar: uni0E1F
Encoding: 3615 3615 242
Width: 736
VWidth: 1467
Flags: W
HStem: 0 21G<188 270.5 561.5 643> 358 25<145.718 186.594> 558 25<115.272 155.942>
VStem: 71 35<424.039 554.605> 188 42<39 362> 196 34<387.752 511.132> 601 42<41 838>
LayerCount: 2
Fore
SplineSet
230 453 m 2xf6
 230 39 l 1xfa
 292 103 356 295 408 485 c 1
 526 166 574 59 601 41 c 1
 601 838 l 1
 643 838 l 1
 643 0 l 1
 602 0 l 1
 521 32 433 283 411 400 c 1
 399 285 311 35 230 0 c 1xf6
 188 0 l 1
 188 362 l 1xfa
 186 360 183 358 170 358 c 0
 104 358 71 443 71 495 c 0
 71 526 84 583 135 583 c 0
 192 583 230 505 230 453 c 2xf6
166 383 m 0
 178 383 196 394 196 437 c 0xf6
 196 497 162 558 133 558 c 0
 122 558 106 550 106 495 c 0
 106 421 152 383 166 383 c 0
EndSplineSet
Validated: 1
EndChar

StartChar: uni0E20
Encoding: 3616 3616 243
Width: 664
VWidth: 1467
Flags: W
HStem: -3 26<142.277 187.371> 198 24<117.186 155.257> 547 35<163 404.148>
VStem: 71 34<66.5291 192.305> 188 42<197 477> 196 34<26.9391 151.124> 524 47<0 445.891>
LayerCount: 2
Fore
SplineSet
135 222 m 0xf6
 146 222 163 219 188 197 c 1
 188 477 l 1xfa
 116 540 l 1
 116 582 l 1
 246 582 l 2
 383 582 483 579 541 479 c 0
 561 444 571 394 571 329 c 2
 571 0 l 1
 524 0 l 1
 521 332 l 2
 521 396 510 443 486 474 c 0
 459 507 411 547 299 547 c 0
 272 547 258 545 163 541 c 1
 169 535 214 499 230 483 c 1
 230 107 l 2
 230 103 231 95 231 87 c 0
 231 19 192 -3 166 -3 c 0
 125 -3 71 49 71 131 c 0
 71 168 84 222 135 222 c 0xf6
169 23 m 0
 180 23 196 34 196 78 c 0xf6
 196 142 157 198 135 198 c 0
 111 198 105 155 105 138 c 0
 105 95 130 23 169 23 c 0
EndSplineSet
Validated: 1
EndChar

StartChar: uni0E21
Encoding: 3617 3617 244
Width: 679
VWidth: 1467
Flags: W
HStem: -9 29<174.383 224.865> 1 40<354.423 486.862> 215 28<144.528 191.068> 356 24<155.619 195.114> 556 24<183.795 225.239>
VStem: 94 38<72.4908 209.092> 109 36<384.043 512.025> 227 43<211 382> 235 38<24.3485 161.191 421.054 549.653> 544 43<98.5901 577>
LayerCount: 2
Fore
SplineSet
415 41 m 0x7b40
 518 41 544 122 544 188 c 2
 544 577 l 1
 587 577 l 1
 587 156 l 2
 587 69 505 1 421 1 c 0x7b40
 365 1 302 25 271 114 c 1
 272 106 273 99 273 91 c 0
 273 46 250 -9 202 -9 c 0
 148 -9 94 64 94 142 c 0xbcc0
 94 191 116 243 167 243 c 0
 179 243 201 240 227 211 c 1
 227 382 l 1
 215 370 195 356 174 356 c 0
 122 356 109 412 109 442 c 0
 109 512 157 580 204 580 c 0
 244 580 270 541 270 483 c 2
 270 207 l 2
 270 131 340 41 415 41 c 0x7b40
175 380 m 0
 192 380 235 427 235 501 c 0x3ac0
 235 545 218 556 206 556 c 0
 178 556 145 494 145 435 c 0
 145 412 151 380 175 380 c 0
202 20 m 0xbcc0
 231 20 235 61 235 83 c 0
 235 142 197 215 166 215 c 0
 146 215 132 189 132 150 c 0
 132 97 166 20 202 20 c 0xbcc0
EndSplineSet
Validated: 1
EndChar

StartChar: uni0E22
Encoding: 3618 3618 245
Width: 638
VWidth: 1467
Flags: W
HStem: -1 38<168.75 502> 409 29<274.813 363.494> 548 31<203.289 295.815>
VStem: 70 53<82.4274 225.25> 100 45<375.438 505.591> 366 26<441.853 491.513> 502 44<37 577>
LayerCount: 2
Fore
SplineSet
502 37 m 1xf6
 502 577 l 1
 546 577 l 1
 546 -1 l 1
 241 -1 l 2
 185 -1 146 16 116 47 c 0
 89 79 70 113 70 148 c 0xf6
 70 183 82 215 106 246 c 0
 125 274 158 293 205 302 c 1
 137 324 100 387 100 439 c 0
 100 551 196 579 249 579 c 0
 328 579 392 516 392 465 c 0
 392 443 376 409 315 409 c 0
 240 409 182 466 176 515 c 1
 153 498 145 475 145 436 c 0xee
 145 393 186 341 214 330 c 0
 225 325 238 323 255 323 c 1
 255 285 l 1
 200 279 183 276 158 249 c 0
 132 223 123 178 123 154 c 0
 123 121 135 91 158 65 c 0
 180 40 200 37 252 37 c 2
 502 37 l 1xf6
366 463 m 0
 366 498 296 548 231 548 c 0
 214 548 202 541 202 524 c 0
 202 491 268 438 336 438 c 0
 361 438 366 453 366 463 c 0
EndSplineSet
Validated: 1
EndChar

StartChar: uni0E23
Encoding: 3619 3619 246
Width: 595
VWidth: 1467
Flags: W
HStem: -6 32<256.447 350.184> 135 31<190.788 286.38> 512 21G<484 500.319> 542 39<159.737 463.924>
VStem: 70 47<464.342 511.011> 163 26<84.0618 130.857> 353 26<44.3593 77.4746> 403 53<45.7008 305.055>
LayerCount: 2
Fore
SplineSet
505 512 m 1
 463 526 370 542 279 542 c 0
 132 542 117 487 117 484 c 0
 117 441 456 381 456 288 c 2
 456 66 l 2
 456 19 366 -6 307 -6 c 0
 246 -6 163 42 163 109 c 0
 163 153 207 166 241 166 c 0
 313 166 379 105 379 60 c 2
 379 44 l 1
 395 56 403 70 403 87 c 2
 403 273 l 2
 403 355 70 394 70 475 c 0
 70 520 116 581 297 581 c 0
 376 581 455 567 494 559 c 1
 505 512 l 1
189 111 m 0
 189 81 251 26 323 26 c 0
 340 26 353 34 353 51 c 0
 353 80 293 135 220 135 c 0
 196 135 189 121 189 111 c 0
EndSplineSet
Validated: 1
EndChar

StartChar: uni0E24
Encoding: 3620 3620 247
Width: 625
VWidth: 1467
Flags: W
HStem: 2 26<147.399 190.477> 202 26<176.428 218.692> 551 34<145 372.156>
VStem: 103 44<202 393.916> 103 34<33.7204 155.607> 229 33<72.6973 195.995> 486 45<-248 445.496>
LayerCount: 2
Fore
SplineSet
481 335 m 2xf6
 481 461 447 551 257 551 c 0
 212 551 201 546 145 546 c 1
 147 541 213 492 213 486 c 2
 211 440 l 1
 200 431 195 432 188 423 c 0
 161 392 147 354 147 308 c 2
 147 202 l 1xf6
 156 214 175 228 199 228 c 0
 244 228 262 184 262 138 c 0
 262 56 210 2 168 2 c 0
 129 2 103 41 103 99 c 2xee
 103 267 l 2
 103 364 119 432 179 471 c 1
 98 544 l 1
 98 585 l 1
 239 585 l 2
 363 585 453 581 504 482 c 0
 522 447 531 397 531 332 c 2
 531 -248 l 1
 486 -248 l 1
 481 335 l 2xf6
198 202 m 0
 173 202 137 140 137 86 c 0xee
 137 69 143 28 166 28 c 0
 198 28 229 90 229 145 c 0
 229 165 224 202 198 202 c 0
EndSplineSet
Validated: 1
EndChar

StartChar: uni0E25
Encoding: 3621 3621 248
Width: 651
VWidth: 1467
Flags: W
HStem: -5 35<172.546 311.07> 117 34<202.035 334.611> 549 33<227.335 437.418>
VStem: 81 51<82.9866 222.12> 344 26<60.9695 103.691> 515 47<0 352 391.004 486.731>
LayerCount: 2
Fore
SplineSet
512 431 m 0
 512 478 474 549 347 549 c 0
 297 549 216 540 147 500 c 1
 154 547 l 1
 187 562 255 582 338 582 c 0
 444 582 562 545 562 430 c 2
 562 0 l 1
 515 0 l 1
 515 352 l 1
 407 267 355 311 226 276 c 0
 188 266 132 226 132 150 c 0
 132 127 136 105 144 82 c 1
 159 122 212 151 268 151 c 0
 322 151 370 123 370 81 c 0
 370 39 317 -5 244 -5 c 0
 144 -5 81 86 81 163 c 0
 81 239 156 309 230 320 c 0
 353 338 424 306 496 391 c 0
 507 403 512 416 512 431 c 0
276 117 m 0
 222 117 166 90 166 60 c 0
 166 42 199 30 237 30 c 0
 302 30 344 62 344 84 c 0
 344 111 297 117 276 117 c 0
EndSplineSet
Validated: 1
EndChar

StartChar: uni0E26
Encoding: 3622 3622 249
Width: 663
VWidth: 1467
Flags: W
HStem: -3 26<144.267 188.596> 198 24<118.569 157.56> 547 35<164 406.572>
VStem: 72 35<65.8186 193.443> 189 43<197 477> 197 35<26.8566 152.971> 525 47<-248 445.909>
LayerCount: 2
Fore
SplineSet
137 222 m 0xf6
 147 222 165 220 189 197 c 1
 189 477 l 1xfa
 117 540 l 1
 117 582 l 1
 248 582 l 2
 387 582 484 579 542 479 c 0
 562 444 572 394 572 329 c 2
 572 -248 l 1
 525 -248 l 1
 522 332 l 2
 522 396 512 443 487 474 c 0
 460 506 412 547 300 547 c 0
 273 547 259 545 164 541 c 1
 170 535 219 496 232 483 c 1
 232 87 l 2
 232 11 187 -3 167 -3 c 0
 123 -3 72 56 72 132 c 0
 72 166 85 222 137 222 c 0xf6
171 23 m 0
 192 23 197 56 197 78 c 0xf6
 197 141 161 198 136 198 c 0
 113 198 107 160 107 140 c 0
 107 95 132 23 171 23 c 0
EndSplineSet
Validated: 1
EndChar

StartChar: uni0E27
Encoding: 3623 3623 250
Width: 603
VWidth: 1467
Flags: W
HStem: -1 30<304.216 396.606> 138 31<238.181 333.153> 502 21G<73.2857 78> 540 40<137.384 358.538>
VStem: 210 26<85.8858 133.722> 450 53<72.114 455.647>
LayerCount: 2
Fore
SplineSet
275 580 m 0
 457 580 503 476 503 354 c 2
 503 119 l 2
 503 76 443 -1 343 -1 c 0
 287 -1 210 49 210 112 c 0
 210 155 253 169 286 169 c 0
 347 169 421 122 425 67 c 1
 444 91 450 113 450 125 c 2
 450 341 l 2
 450 409 449 540 250 540 c 0
 180 540 87 503 69 502 c 1
 78 544 l 1
 117 557 201 580 275 580 c 0
236 113 m 0
 236 83 300 29 367 29 c 0
 390 29 400 39 400 53 c 0
 400 77 348 138 266 138 c 0
 242 138 236 123 236 113 c 0
EndSplineSet
Validated: 1
EndChar

StartChar: uni0E28
Encoding: 3624 3624 251
Width: 693
VWidth: 1467
Flags: W
HStem: 0 21G<106 148 534 577> 209 36<251.081 394.506> 329 34<242.952 381.869> 555 32<237.402 440.638> 619 28<630.968 645.5>
VStem: 106 42<0 240.759 295 487.003> 408 23<264.813 302.134> 534 43<0 484.317>
LayerCount: 2
Fore
SplineSet
326 209 m 0
 269 209 207 239 202 286 c 1
 194 277 l 2
 148 223 148 178 148 161 c 2
 148 0 l 1
 106 0 l 1
 106 424 l 2
 106 566 251 587 341 587 c 0
 477 587 524 544 547 515 c 1
 546 519 546 523 546 527 c 0
 546 562 574 636 640 647 c 1
 662 619 l 1
 642 617 577 593 577 462 c 2
 577 0 l 1
 534 0 l 1
 534 408 l 2
 534 526 429 555 342 555 c 0
 245 555 148 526 148 408 c 2
 148 295 l 1
 196 348 270 363 309 363 c 0
 372 363 431 332 431 285 c 0
 431 240 384 209 326 209 c 0
311 329 m 0
 266 329 229 314 229 288 c 0
 229 264 278 245 320 245 c 0
 385 245 408 268 408 284 c 0
 408 311 345 329 311 329 c 0
EndSplineSet
Validated: 1
EndChar

StartChar: uni0E29
Encoding: 3625 3625 252
Width: 758
VWidth: 1467
Flags: W
HStem: 2 37<327.998 498.332> 227 55<374.626 518.614> 349 35<358.337 486.091> 359 26<118.747 162.349> 558 20G<574 619> 561 25<148.481 189.485>
VStem: 75 35<388.039 516.317> 204 42<110.055 399 429.506 550.307> 320 29<296.253 334.95> 493 31<297.023 338.116> 574 45<104.005 261 290.448 311.654 346 578>
LayerCount: 2
Fore
SplineSet
475 258 m 1xe7e0
 517 266 556 292 574 304 c 1
 574 578 l 1
 619 578 l 1
 619 346 l 1
 636 366 647 385 654 403 c 1
 709 403 l 1
 684 359 654 322 619 293 c 1
 619 163 l 2
 619 65 519 2 413 2 c 0
 343 2 204 36 204 163 c 2
 204 399 l 1
 189 379 165 359 139 359 c 0xdbe0
 101 359 75 398 75 449 c 0
 75 522 121 586 169 586 c 0
 214 586 246 533 246 475 c 2
 246 185 l 2
 246 61 359 39 417 39 c 0
 473 39 574 67 574 179 c 2
 574 261 l 1
 532 237 490 227 454 227 c 0
 390 227 320 272 320 317 c 0
 320 347 357 384 421 384 c 256
 475 384 524 357 524 317 c 0
 524 282 488 263 475 258 c 1xe7e0
493 318 m 256
 493 343 445 349 421 349 c 256xe3e0
 403 349 349 342 349 315 c 256
 349 295 391 282 421 282 c 256
 457 282 493 298 493 318 c 256
138 385 m 0xd7e0
 169 385 200 447 200 503 c 0
 200 522 195 561 170 561 c 0
 146 561 110 506 110 440 c 0
 110 417 115 385 138 385 c 0xd7e0
EndSplineSet
Validated: 1
EndChar

StartChar: uni0E2A
Encoding: 3626 3626 253
Width: 679
VWidth: 1467
Flags: W
HStem: -5 36<173.104 310.698> 117 35<197.561 334.029> 505 21G<148.83 170.5> 557 30<242.03 425.032> 626 30<613.458 626.833>
VStem: 79 53<85.7997 223.416> 343 25<62.6497 104.31> 515 47<0 352 388.986 489.676>
LayerCount: 2
Fore
SplineSet
511 433 m 0
 511 496 447 557 349 557 c 0
 268 557 196 530 145 505 c 1
 154 552 l 1
 183 569 260 587 330 587 c 0
 441 587 520 546 530 516 c 1
 530 577 566 640 621 656 c 1
 646 626 l 1
 565 614 562 489 562 441 c 2
 562 0 l 1
 515 0 l 1
 515 352 l 1
 486 332 l 2
 401 277 332 306 225 276 c 0
 169 261 132 204 132 167 c 0
 132 156 136 93 142 84 c 1
 156 124 211 152 265 152 c 0
 321 152 368 124 368 82 c 0
 368 30 302 -5 241 -5 c 0
 152 -5 79 79 79 164 c 0
 79 242 159 309 228 320 c 0
 327 335 396 314 461 361 c 0
 493 383 511 404 511 433 c 0
343 84 m 0
 343 110 304 117 282 117 c 0
 218 117 166 94 166 60 c 0
 166 37 211 31 226 31 c 0
 311 31 343 67 343 84 c 0
EndSplineSet
Validated: 1
EndChar

StartChar: uni0E2B
Encoding: 3627 3627 254
Width: 717
VWidth: 1467
Flags: W
HStem: 0 21G<189 233 580 624> 357 26<118.51 159.932> 422 37<407.343 530.422> 547 38<406.782 566.4> 560 24<147.913 189.001>
VStem: 75 34<386.97 517.159> 189 44<0 268.357 298 381> 199 34<429.156 555.469> 359 28<481.532 524.953> 580 44<0 376.867> 584 28<482.944 527.709>
LayerCount: 2
Fore
SplineSet
612 503 m 0xf6a0
 612 477 590 454 556 437 c 1
 565 428 624 420 624 311 c 2
 624 0 l 1
 580 0 l 1
 580 283 l 2
 580 334 577 422 450 422 c 0
 347 422 233 317 233 148 c 2
 233 0 l 1
 189 0 l 1
 189 381 l 1xf6c0
 175 367 157 357 138 357 c 0
 94 357 75 407 75 448 c 0
 75 527 125 584 168 584 c 0
 208 584 234 546 234 495 c 0
 234 488 234 481 233 474 c 1xed80
 233 298 l 1
 295 413 354 439 392 450 c 1
 370 466 359 484 359 505 c 0
 359 550 415 585 486 585 c 0
 546 585 612 555 612 503 c 0xf6a0
137 383 m 0
 164 383 199 444 199 500 c 0
 199 551 181 560 169 560 c 0xed80
 148 560 109 512 109 442 c 0
 109 393 126 383 137 383 c 0
486 547 m 256xf4a0
 468 547 387 538 387 503 c 256
 387 468 473 459 486 459 c 0
 527 459 584 477 584 505 c 256
 584 532 540 547 486 547 c 256xf4a0
EndSplineSet
Validated: 1
EndChar

StartChar: uni0E2C
Encoding: 3628 3628 255
Width: 765
VWidth: 1467
Flags: W
HStem: 0 21G<191 260 564 644> 360 25<147.597 189.827> 431 41<449.83 594.92> 550 41<451.142 598.995> 562 24<118.848 159.708>
VStem: 72 36<429.132 557.311> 191 42<38 365> 199 34<388.617 515.785> 405 35<487.566 533.701> 602 42<41 449> 676 47<531.218 615>
LayerCount: 2
Fore
SplineSet
643 518 m 1xf6e0
 669 540 676 567 676 615 c 1
 723 615 l 1
 721 528 680 490 644 471 c 1
 644 0 l 1
 603 0 l 1
 525 36 455 158 414 270 c 1
 373 123 287 33 233 0 c 1xf5e0
 191 0 l 1
 191 365 l 1xf6e0
 189 364 188 364 186 364 c 0
 185 364 183 360 167 360 c 0
 127 360 72 418 72 496 c 0
 72 529 85 586 137 586 c 0
 186 586 233 526 233 452 c 2xede0
 233 38 l 1
 291 98 370 212 411 355 c 1
 451 245 554 77 602 41 c 1
 602 449 l 1
 573 438 556 431 525 431 c 0
 461 431 405 463 405 511 c 256
 405 556 459 591 525 591 c 0
 591 591 637 554 643 518 c 1xf6e0
170 385 m 0
 193 385 199 417 199 440 c 0
 199 503 163 562 139 562 c 0xede0
 127 562 108 552 108 506 c 0
 108 443 143 385 170 385 c 0
607 514 m 0
 607 543 548 550 525 550 c 256xf4e0
 483 550 440 534 440 511 c 256
 440 480 502 472 525 472 c 0
 544 472 607 481 607 514 c 0
EndSplineSet
Validated: 1
Substitution2: "Single Substitution lookup 22 subtable" uni0E2C.alt1
Substitution2: "Single Substitution lookup 22 subtable" uni0E2C.alt1
EndChar

StartChar: uni0E2D
Encoding: 3629 3629 256
Width: 644
VWidth: 1467
Flags: W
HStem: -4 37<227.655 419.245> 224 33<185.852 296.896> 356 33<242.506 350.998> 554 34<207.835 412.647>
VStem: 82 49<109.982 275.576> 157 27<261.778 283> 353 27<306.237 351.687> 503 46<93.8137 486.926>
LayerCount: 2
Fore
SplineSet
308 554 m 0
 254 554 184 542 145 497 c 1
 106 514 l 1
 125 543 194 588 314 588 c 0
 403 588 549 561 549 442 c 2
 549 162 l 2
 549 39 411 -4 320 -4 c 0
 226 -4 82 36 82 200 c 0
 82 342 231 389 296 389 c 0
 345 389 380 363 380 326 c 0
 380 281 321 224 241 224 c 0
 194 224 157 251 157 283 c 1
 133 245 131 216 131 187 c 0
 131 80 226 33 322 33 c 0
 407 33 503 72 503 151 c 2
 503 423 l 2
 503 532 378 554 308 554 c 0
353 330 m 0
 353 352 335 356 314 356 c 0
 254 356 184 317 184 283 c 0
 184 273 189 257 222 257 c 0
 311 257 353 314 353 330 c 0
EndSplineSet
Validated: 1
EndChar

StartChar: uni0E2E
Encoding: 3630 3630 257
Width: 666
VWidth: 1467
Flags: W
HStem: -2 38<207.57 408.754> 173 33<158.147 268.685> 305 32<215.865 324.211> 392 32<225.808 436.997> 551 34<219.568 414.356>
VStem: 89 48<92.6061 219.567> 103 48<460.658 509.97> 327 27<252.244 300.259> 505 45<103.355 421 456.792 500.84>
LayerCount: 2
Fore
SplineSet
310 585 m 0xfb80
 394 585 476 563 516 525 c 1
 532 550 562 589 604 609 c 1
 632 578 l 1
 610 564 l 2
 598 557 550 519 550 417 c 2
 550 153 l 2
 550 47 431 -2 312 -2 c 0
 179 -2 89 62 89 159 c 0
 89 252 179 337 265 337 c 0
 315 337 354 312 354 275 c 0
 354 226 284 173 213 173 c 0
 187 173 157 181 141 202 c 1
 138 190 137 177 137 165 c 0xfd80
 137 62 230 36 306 36 c 0
 385 36 505 75 505 153 c 2
 505 421 l 1
 475 405 426 392 329 392 c 0
 182 392 103 445 103 480 c 0
 103 501 139 585 310 585 c 0xfb80
327 279 m 0
 327 289 322 305 289 305 c 0
 204 305 156 252 156 232 c 0
 156 211 174 206 197 206 c 0
 262 206 327 247 327 279 c 0
332 424 m 0
 415 424 506 459 506 474 c 0
 506 501 411 551 312 551 c 0
 220 551 151 505 151 485 c 0xfb80
 151 456 252 424 332 424 c 0
EndSplineSet
Validated: 1
EndChar

StartChar: uni0E2F
Encoding: 3631 3631 258
Width: 523
VWidth: 1467
Flags: W
HStem: -1 21G<379 428> 389 36<182.967 267.006> 552 30<137.451 186.198>
VStem: 104 32<481.34 551.687> 238 30<427.19 495.994> 379 49<-1 468>
LayerCount: 2
Fore
SplineSet
264 427 m 1
 319 441 360 512 379 546 c 1
 428 546 l 1
 428 -1 l 1
 379 -1 l 1
 379 468 l 1
 344 424 303 389 226 389 c 0
 171 389 104 455 104 522 c 0
 104 570 139 582 157 582 c 0
 196 582 268 534 268 455 c 0
 268 445 267 435 264 427 c 1
218 425 m 0
 232 425 238 435 238 449 c 0
 238 501 178 552 155 552 c 0
 147 552 136 547 136 528 c 0
 136 490 184 425 218 425 c 0
EndSplineSet
Validated: 1
EndChar

StartChar: uni0E30
Encoding: 3632 3632 259
Width: 528
VWidth: 1467
Flags: W
HStem: 64 36<135.599 261.411> 169 33<142.751 262.583> 373 36<135.857 261.224> 477 35<138.774 263.867>
VStem: 97 31<111.99 152.961 421.823 463.093> 273 29<132.094 154.82 442.873 462.344>
LayerCount: 2
Fore
SplineSet
449 531 m 1
 431 501 354 373 211 373 c 0
 147 373 97 401 97 443 c 0
 97 484 145 512 200 512 c 256
 253 512 302 484 302 442 c 1
 345 463 367 489 393 531 c 1
 449 531 l 1
200 477 m 256
 186 477 128 470 128 442 c 256
 128 415 182 409 200 409 c 256
 224 409 273 422 273 445 c 256
 273 471 211 477 200 477 c 256
200 202 m 256
 246 202 302 181 302 132 c 1
 345 156 368 180 393 223 c 1
 449 223 l 1
 398 137 319 64 212 64 c 0
 145 64 97 92 97 134 c 0
 97 175 145 202 200 202 c 256
128 134 m 256
 128 107 176 100 200 100 c 256
 233 100 273 114 273 135 c 256
 273 162 215 169 200 169 c 256
 182 169 128 157 128 134 c 256
EndSplineSet
Validated: 1
EndChar

StartChar: uni0E31
Encoding: 3633 3633 260
Width: 0
VWidth: 1467
Flags: W
HStem: 697 35<-251.791 -132.686> 801 35<-251.039 -127.24>
VStem: -292 31<744.888 787.093> -119 31<766.081 788.056>
LayerCount: 2
Fore
SplineSet
-88 766 m 1
 -66 777 -38 793 4 855 c 1
 60 855 l 1
 21 793 -61 697 -174 697 c 0
 -256 697 -292 733 -292 767 c 0
 -292 808 -246 836 -191 836 c 256
 -134 836 -88 808 -88 766 c 1
-191 801 m 0
 -205 801 -261 794 -261 766 c 0
 -261 738 -203 732 -191 732 c 256
 -159 732 -119 748 -119 769 c 256
 -119 795 -176 801 -191 801 c 0
EndSplineSet
Validated: 1
Substitution2: "Single Substitution lookup 22 subtable" uni0E31.alt1
Substitution2: "Single Substitution lookup 22 subtable" uni0E31.alt1
EndChar

StartChar: uni0E32
Encoding: 3634 3634 261
Width: 422
VWidth: 1467
Flags: W
HStem: 0 21G<288 330> 547 38<75.3281 201.919>
VStem: 288 42<0 460.501>
LayerCount: 2
Fore
SplineSet
288 364 m 2
 288 435 255 547 125 547 c 0
 104 547 84 544 65 537 c 1
 75 582 l 1
 82 584 89 585 96 585 c 2
 119 585 l 2
 249 585 330 492 330 393 c 2
 330 0 l 1
 288 0 l 1
 288 364 l 2
EndSplineSet
Validated: 1
EndChar

StartChar: uni0E33
Encoding: 3635 3635 262
Width: 422
VWidth: 1467
Flags: W
HStem: 0 21<288 330> 547 38<75.3281 201.919> 717 25<-209.203 -150.513> 864 24<-212.631 -153.744>
VStem: -276 37<764.883 844.592> -123 35<763.176 840.022> 288 42<0 460.501>
LayerCount: 2
Back
SplineSet
164 582 m 0
 194.667 582 223 577.167 249 567.5 c 128
 275 557.833 297.5 544.5 316.5 527.5 c 128
 335.5 510.5 350.333 490.167 361 466.5 c 128
 371.667 442.833 377 418 377 392 c 2
 377 1 l 1
 333 1 l 1
 333 362 l 2
 333 390.667 329.167 415.5 321.5 436.5 c 128
 313.833 457.5 303 476.667 289 494 c 0
 260.333 527.333 220.667 544 170 544 c 0
 150.667 544 131.333 540.667 112 534 c 1
 120 580 l 1
 128 581.333 135.5 582 142.5 582 c 128
 153 582 153 582 164 582 c 0
-189 814 m 2
 -163.667 814 -142 805.667 -124 789 c 128
 -106 772.333 -97 752.333 -97 729 c 256
 -97 705.667 -106 685.667 -124 669 c 128
 -142 652.333 -163.667 644 -189 644 c 2
 -191 644 l 2
 -216.333 644 -238.333 652.333 -257 669 c 128
 -275.667 685.667 -285 705.667 -285 729 c 0
 -285 753.667 -275.667 774 -257 790 c 128
 -238.333 806 -216.333 814 -191 814 c 2
 -189 814 l 2
-188 669 m 2
 -173.333 668.333 -160.167 673.833 -148.5 685.5 c 128
 -136.833 697.167 -131.333 711.667 -132 729 c 0
 -133.333 747.667 -139.5 762.167 -150.5 772.5 c 128
 -161.5 782.833 -174.333 789 -189 791 c 2
 -191 791 l 2
 -207.667 791 -221 784.833 -231 772.5 c 128
 -241 760.167 -246.667 745.667 -248 729 c 0
 -248.667 711.667 -243.167 696.833 -231.5 684.5 c 128
 -219.833 672.167 -205.667 667 -189 669 c 2
 -188 669 l 2
EndSplineSet
Fore
Refer: 284 3661 N 1 0 0 1 0 0 2
Refer: 261 3634 N 1 0 0 1 0 0 2
Validated: 1
Substitution2: "Single Substitution lookup 22 subtable" uni0E33.alt1
Substitution2: "Single Substitution lookup 22 subtable" uni0E33.alt1
EndChar

StartChar: uni0E34
Encoding: 3636 3636 263
Width: 0
VWidth: 1467
Flags: W
HStem: 697 29<-475 -138> 796 40<-410.63 -196.219>
LayerCount: 2
Fore
SplineSet
-511 708 m 2
 -511 759 -435 836 -305 836 c 0
 -234 836 -137 813 -100 726 c 2
 -88 697 l 1
 -511 697 l 1
 -511 708 l 2
-138 726 m 1
 -162 774 -229 796 -295 796 c 0
 -363 796 -444 778 -475 726 c 1
 -138 726 l 1
EndSplineSet
Validated: 1
Substitution2: "Single Substitution lookup 22 subtable" uni0E34.alt1
Substitution2: "Single Substitution lookup 22 subtable" uni0E34.alt1
EndChar

StartChar: uni0E35
Encoding: 3637 3637 264
Width: 0
VWidth: 1467
Flags: W
HStem: 697 29<-475 -139> 796 39<-407.79 -198.498>
VStem: -139 48<726 754.744 781 864>
LayerCount: 2
Fore
SplineSet
-511 708 m 2
 -511 758 -437 835 -305 835 c 0
 -236 835 -179 815 -139 781 c 1
 -139 864 l 1
 -91 864 l 1
 -91 697 l 1
 -511 697 l 1
 -511 708 l 2
-139 729 m 1
 -164 777 -234 796 -299 796 c 0
 -362 796 -446 777 -475 726 c 1
 -139 726 l 1
 -139 729 l 1
EndSplineSet
Validated: 1
Substitution2: "Single Substitution lookup 22 subtable" uni0E35.alt1
Substitution2: "Single Substitution lookup 22 subtable" uni0E35.alt1
EndChar

StartChar: uni0E36
Encoding: 3638 3638 265
Width: 0
VWidth: 1467
Flags: W
HStem: 697 29<-458 -120> 796 40<-389.868 -203.516> 855 35<-192.966 -81.7841>
VStem: -57 20<784.106 825.502>
LayerCount: 2
Fore
SplineSet
-139 890 m 0
 -77 890 -37 847 -37 806 c 0
 -37 785 -49 754 -87 738 c 1
 -86 735 -71 701 -70 697 c 1
 -493 697 l 1
 -493 708 l 2
 -493 762 -412 836 -285 836 c 0
 -265 836 -245 834 -226 830 c 1
 -218 864 -183 890 -139 890 c 0
-120 726 m 1
 -144 774 -211 796 -277 796 c 0
 -398 796 -444 750 -458 726 c 1
 -120 726 l 1
-107 767 m 1
 -73 773 -57 788 -57 803 c 0
 -57 835 -109 855 -138 855 c 0
 -165 855 -193 845 -204 825 c 1
 -173 816 -135 800 -107 767 c 1
EndSplineSet
Validated: 1
Substitution2: "Single Substitution lookup 22 subtable" uni0E36.alt1
Substitution2: "Single Substitution lookup 22 subtable" uni0E36.alt1
EndChar

StartChar: uni0E37
Encoding: 3639 3639 266
Width: 0
VWidth: 1467
Flags: W
HStem: 697 29<-475 -139> 796 38<-404.377 -234.576>
VStem: -233 48<828 864> -139 48<726 754.744 781 864>
LayerCount: 2
Fore
SplineSet
-299 834 m 0
 -276 834 -254 832 -233 828 c 1
 -233 864 l 1
 -185 864 l 1
 -185 810 l 1
 -166 800 -151 790 -139 781 c 1
 -139 864 l 1
 -91 864 l 1
 -91 697 l 1
 -511 697 l 1
 -511 708 l 2
 -511 757 -433 834 -299 834 c 0
-139 729 m 1
 -164 777 -234 796 -299 796 c 0
 -362 796 -446 777 -475 726 c 1
 -139 726 l 1
 -139 729 l 1
EndSplineSet
Validated: 1
Substitution2: "Single Substitution lookup 22 subtable" uni0E37.alt1
Substitution2: "Single Substitution lookup 22 subtable" uni0E37.alt1
EndChar

StartChar: uni0E38
Encoding: 3640 3640 267
Width: 0
VWidth: 1467
Flags: W
HStem: -228 25<-189.97 -150.099> -101 26<-155.511 -115.536>
VStem: -220 29<-202.886 -139.416> -126 37<-295 -204>
LayerCount: 2
Fore
SplineSet
-134 -75 m 0
 -92 -75 -89 -116 -89 -177 c 2
 -89 -295 l 1
 -126 -295 l 1
 -126 -204 l 1
 -140 -218 -154 -228 -178 -228 c 0
 -212 -228 -220 -202 -220 -176 c 0
 -220 -123 -175 -75 -134 -75 c 0
-175 -203 m 0
 -148 -203 -115 -151 -115 -119 c 0
 -115 -110 -119 -101 -132 -101 c 0
 -152 -101 -191 -144 -191 -185 c 0
 -191 -195 -186 -203 -175 -203 c 0
EndSplineSet
Validated: 1
Substitution2: "Single Substitution lookup 21 subtable" a
Substitution2: "Single Substitution lookup 22 subtable" uni0E38.alt1
Substitution2: "Single Substitution lookup 21 subtable" a
Substitution2: "Single Substitution lookup 22 subtable" uni0E38.alt1
EndChar

StartChar: uni0E39
Encoding: 3641 3641 268
Width: 0
VWidth: 1467
Flags: W
HStem: -293 36<-210 -132.804> -238 31<-318.99 -273.177> -96 26<-281.761 -238.205>
VStem: -351 31<-206.714 -138.359> -248 38<-257 -208> -237 27<-159.428 -96.4648> -125 37<-251.747 -69>
LayerCount: 2
Fore
SplineSet
-160 -257 m 2xfa
 -139 -257 -125 -237 -125 -208 c 2
 -125 -69 l 1
 -88 -69 l 1
 -88 -202 l 2
 -88 -292 -140 -293 -186 -293 c 2
 -248 -293 l 1
 -248 -208 l 1xfa
 -264 -227 -286 -238 -311 -238 c 0
 -345 -238 -351 -194 -351 -184 c 0
 -351 -126 -304 -70 -257 -70 c 0
 -219 -70 -212 -103 -210 -119 c 2xf6
 -210 -257 l 1
 -160 -257 l 2xfa
-302 -207 m 0
 -271 -207 -237 -145 -237 -116 c 0xf6
 -237 -106 -240 -96 -254 -96 c 0
 -287 -96 -320 -153 -320 -186 c 0
 -320 -203 -309 -207 -302 -207 c 0
EndSplineSet
Validated: 1
Substitution2: "Single Substitution lookup 21 subtable" b
Substitution2: "Single Substitution lookup 22 subtable" uni0E39.alt1
Substitution2: "Single Substitution lookup 21 subtable" b
Substitution2: "Single Substitution lookup 22 subtable" uni0E39.alt1
EndChar

StartChar: uni0E3A
Encoding: 3642 3642 269
Width: 0
VWidth: 1467
Flags: W
HStem: -195 115<-163.524 -96.6341>
VStem: -172 85<-187.621 -86.8054>
LayerCount: 2
Fore
SplineSet
-129 -80 m 0
 -104 -80 -87 -105 -87 -138 c 0
 -87 -167 -105 -195 -129 -195 c 0
 -155 -195 -172 -171 -172 -138 c 0
 -172 -105 -155 -80 -129 -80 c 0
EndSplineSet
Validated: 1
Substitution2: "Single Substitution lookup 21 subtable" c
Substitution2: "Single Substitution lookup 22 subtable" uni0E3A.alt1
Substitution2: "Single Substitution lookup 21 subtable" c
Substitution2: "Single Substitution lookup 22 subtable" uni0E3A.alt1
EndChar

StartChar: uni0E3F
Encoding: 3647 3647 270
Width: 658
VWidth: 1467
Flags: W
HStem: 4 39<135 246 293 445.702> 412 41<293 395.945> 679 37<135 246 293 417.273>
VStem: 91 44<43 679> 246 47<-125 4 43 412 453 679 716 845> 461 42<510.027 636.591> 534 47<126.789 303.488>
LayerCount: 2
Fore
SplineSet
503 574 m 0
 503 520 466 452 395 431 c 1
 580 388 581 250 581 217 c 0
 581 47 448 4 346 4 c 2
 292 4 l 1
 292 -125 l 1
 246 -125 l 1
 246 4 l 1
 91 4 l 1
 91 716 l 1
 246 716 l 1
 246 845 l 1
 293 845 l 1
 293 716 l 1
 358 716 l 2
 462 716 503 641 503 574 c 0
461 571 m 0
 461 628 421 679 362 679 c 2
 293 679 l 1
 293 453 l 1
 343 453 l 2
 406 453 461 516 461 571 c 0
246 43 m 1
 246 679 l 1
 135 679 l 1
 135 43 l 1
 246 43 l 1
534 222 m 0
 534 337 427 403 343 412 c 1
 293 412 l 1
 293 43 l 1
 357 43 l 2
 434 43 534 79 534 222 c 0
EndSplineSet
Validated: 1
EndChar

StartChar: uni0E40
Encoding: 3648 3648 271
Width: 315
VWidth: 1467
Flags: W
HStem: -4 27<145.598 190.211> 198 24<176.798 216.776> 562 20G<103 148>
VStem: 102 34<26.8881 150.42> 103 45<201 582> 228 34<67.8637 192.711>
LayerCount: 2
Fore
SplineSet
197 222 m 0xec
 249 222 262 169 262 132 c 0
 262 51 210 -4 165 -4 c 0
 137 -4 102 27 102 87 c 0xf4
 102 93 102 100 103 107 c 1
 103 582 l 1
 148 582 l 1
 148 201 l 1
 165 215 180 222 197 222 c 0xec
164 23 m 0
 198 23 228 88 228 138 c 0
 228 158 222 198 198 198 c 0
 172 198 136 134 136 80 c 0
 136 48 146 23 164 23 c 0
EndSplineSet
Validated: 1
EndChar

StartChar: uni0E41
Encoding: 3649 3649 272
Width: 573
VWidth: 1467
Flags: W
HStem: -1 26<144.996 187.864 408.349 449.704> 200 25<175.534 215.966 438.059 479.208> 561 20G<101 147 364 409>
VStem: 101 46<202 581> 101 35<29.6128 155.565> 226 35<71.0547 196.245> 364 45<202 581> 364 35<29.8185 156.616> 491 32<76.3968 192.097>
LayerCount: 2
Fore
SplineSet
261 133 m 0xf480
 261 71 219 -1 163 -1 c 0
 126 -1 101 41 101 92 c 2xec80
 101 581 l 1
 147 581 l 1
 147 202 l 1
 161 217 178 225 196 225 c 0
 243 225 261 174 261 133 c 0xf480
165 25 m 0
 196 25 226 95 226 143 c 0
 226 163 220 200 198 200 c 0
 174 200 136 144 136 81 c 0
 136 36 153 25 165 25 c 0
459 225 m 0
 507 225 523 172 523 130 c 0
 523 80 491 -1 426 -1 c 0
 391 -1 364 39 364 88 c 2xe580
 364 581 l 1
 409 581 l 1
 409 202 l 1xe680
 430 224 454 225 459 225 c 0
399 81 m 0
 399 36 416 25 428 25 c 0
 455 25 491 91 491 141 c 0
 491 169 480 200 460 200 c 0
 442 200 399 157 399 81 c 0
EndSplineSet
Validated: 1
EndChar

StartChar: uni0E42
Encoding: 3650 3650 273
Width: 381
VWidth: 1467
Flags: W
HStem: -10 26<208.965 252.377> 192 24<240.382 280.559> 985 38<120.367 337.431>
VStem: 31 47<888.59 952.968> 166 45<194 823.324> 166 34<21.2989 146.569> 291 34<62.0029 187.283>
LayerCount: 2
Fore
SplineSet
260 216 m 0xfa
 304 216 325 172 325 130 c 0
 325 74 290 -10 228 -10 c 0
 203 -10 166 19 166 80 c 2xf6
 166 779 l 2
 166 860 31 839 31 912 c 0
 31 979 111 1023 206 1023 c 0
 264 1023 365 1002 365 1002 c 1
 376 955 l 1
 312 976 250 985 208 985 c 0
 115 985 78 937 78 927 c 0
 78 860 208 871 211 778 c 2
 211 194 l 1
 233 216 255 216 260 216 c 0xfa
230 16 m 0
 254 16 291 73 291 134 c 0
 291 156 285 192 261 192 c 0
 244 192 200 150 200 72 c 0
 200 24 218 16 230 16 c 0
EndSplineSet
Validated: 1
EndChar

StartChar: uni0E43
Encoding: 3651 3651 274
Width: 384
VWidth: 1467
Flags: W
HStem: -1 26<198.359 243.538> 199 25<228.723 270.048> 752 25<70.0156 115.938> 978 33<117.913 233.262>
VStem: 15 32<798.752 926.024> 143 29<810.339 921.617> 156 45<201 677.018> 156 34<28.0628 152.963> 281 36<66.2004 194.46> 288 43<787.359 931.233>
LayerCount: 2
Fore
SplineSet
252 224 m 0xfa40
 297 224 317 175 317 133 c 0
 317 60 265 -1 220 -1 c 0
 175 -1 156 43 156 87 c 2xf980
 156 666 l 2xfa
 156 681 164 682 180 695 c 2
 226 737 l 2
 254 763 288 805 288 864 c 0
 288 933 236 978 170 978 c 0
 153 978 136 976 117 971 c 1
 152 957 172 911 172 860 c 0xfc40
 172 800 131 752 93 752 c 0
 46 752 15 802 15 864 c 0
 15 974 106 1011 168 1011 c 0
 244 1011 331 956 331 863 c 0
 331 813 311 769 267 719 c 2
 234 688 l 2
 212 667 201 654 201 647 c 2
 201 201 l 1
 216 216 233 224 252 224 c 0xfa40
93 777 m 0
 123 777 143 835 143 867 c 0xfc
 143 911 114 952 96 952 c 0
 68 952 47 905 47 859 c 0
 47 814 69 777 93 777 c 0
190 78 m 0xf980
 190 51 196 25 219 25 c 0
 251 25 281 88 281 144 c 0
 281 188 262 199 250 199 c 0
 226 199 190 140 190 78 c 0xf980
EndSplineSet
Validated: 1
EndChar

StartChar: uni0E44
Encoding: 3652 3652 275
Width: 432
VWidth: 1467
Flags: W
HStem: -6 24<259.796 301.397> 195 23<289.89 330.039> 967 56<-85 -47.1182> 980 41<108.163 189.492>
VStem: 216 34<21.6743 147.315> 217 44<195 949.992> 342 35<64.981 190.104>
LayerCount: 2
Fore
SplineSet
312 218 m 0xd6
 364 218 377 164 377 130 c 0
 377 56 326 -6 280 -6 c 0
 256 -6 216 17 216 79 c 0xda
 216 83 217 87 217 91 c 2
 219 787 l 2
 219 858 216 980 154 980 c 0xd6
 87 980 59 873 43 814 c 1
 34 835 -26 958 -85 967 c 1
 -85 1023 l 1xe6
 6 988 29 931 38 888 c 1
 65 967 73 985 104 1005 c 0
 121 1016 137 1021 153 1021 c 0
 187 1021 240 993 254 908 c 0
 260 868 263 822 263 769 c 2
 261 195 l 1
 286 216 302 218 312 218 c 0xd6
279 18 m 0
 308 18 342 84 342 137 c 0
 342 171 330 195 311 195 c 0
 287 195 250 138 250 73 c 0
 250 50 256 18 279 18 c 0
EndSplineSet
Validated: 1
EndChar

StartChar: uni0E45
Encoding: 3653 3653 276
Width: 409
VWidth: 1467
Flags: W
HStem: 547 38<60.3281 188.156>
VStem: 273 42<-248 459.676>
LayerCount: 2
Fore
SplineSet
273 364 m 2
 273 435 240 547 110 547 c 0
 89 547 69 544 50 537 c 1
 60 582 l 1
 67 584 74 585 81 585 c 2
 104 585 l 2
 237 585 315 490 315 393 c 2
 315 -248 l 1
 273 -248 l 1
 273 364 l 2
EndSplineSet
Validated: 1
EndChar

StartChar: uni0E46
Encoding: 3654 3654 277
Width: 603
VWidth: 1467
Flags: W
HStem: 291 38<141.764 192.826> 565 20G<225 287.5 370 420>
VStem: 79 44<343.268 499.903> 210 44<340.222 492.928> 464 44<-248 508.025>
LayerCount: 2
Fore
SplineSet
379 585 m 1
 461 576 508 538 508 437 c 2
 508 -248 l 1
 464 -248 l 1
 464 405 l 2
 464 487 458 518 392 533 c 1
 324 418 l 1
 260 533 l 1
 246 530 233 526 220 521 c 1
 246 492 254 451 254 420 c 0
 254 348 214 291 166 291 c 0
 122 291 79 344 79 420 c 256
 79 535 174 571 276 585 c 1
 299 540 307 532 324 496 c 1
 367 568 361 560 379 585 c 1
168 329 m 0
 202 329 210 400 210 420 c 256
 210 462 187 511 163 511 c 0
 140 511 123 466 123 420 c 256
 123 380 141 329 168 329 c 0
EndSplineSet
Validated: 1
EndChar

StartChar: uni0E47
Encoding: 3655 3655 278
Width: 0
VWidth: 1467
Flags: W
HStem: 686 29<-224.338 -178.006> 687 35<-391.691 -331.219> 819 21<-193.495 -152.976> 874 36<-383.898 -181.505>
VStem: -449 31<752.009 837.897> -244 18<760 775.799> -151 22<755.055 817.6>
LayerCount: 2
Fore
SplineSet
-174 840 m 0x7e
 -138 840 -129 818 -129 792 c 0
 -129 738 -169 686 -209 686 c 0xbe
 -231 686 -241 702 -246 713 c 2
 -280 770 l 1
 -330 687 l 1
 -362 687 -449 708 -449 794 c 0
 -449 868 -381 910 -318 910 c 0
 -225 910 -189 915 -172 936 c 2
 -151 961 l 1
 -117 938 l 1
 -140 914 l 2
 -170 881 -232 874 -302 874 c 2
 -327 874 l 2
 -395 874 -418 821 -418 795 c 0
 -418 766 -391 722 -355 722 c 0
 -345 722 -337 727 -332 738 c 2
 -282 817 l 1
 -276 809 -244 760 -244 760 c 1
 -244 804 -205 840 -174 840 c 0x7e
-205 715 m 0
 -170 715 -151 776 -151 798 c 0
 -151 815 -162 819 -169 819 c 0
 -200 819 -226 772 -226 740 c 0
 -226 729 -222 715 -205 715 c 0
EndSplineSet
Validated: 1
Substitution2: "Single Substitution lookup 22 subtable" uni0E47.alt1
Substitution2: "Single Substitution lookup 22 subtable" uni0E47.alt1
EndChar

StartChar: uni0E48
Encoding: 3656 3656 279
Width: 0
VWidth: 1467
Flags: W
HStem: 954 123<-132 -87>
VStem: -132 45<954 1077>
LayerCount: 2
Fore
SplineSet
-87 954 m 1
 -132 954 l 1
 -132 1077 l 1
 -87 1077 l 1
 -87 954 l 1
EndSplineSet
Validated: 1
Substitution2: "Single Substitution lookup 22 subtable" uni0E48.alt2
Substitution2: "Single Substitution lookup 22 subtable" uni0E48.alt2
EndChar

StartChar: uni0E49
Encoding: 3657 3657 280
Width: 0
VWidth: 1467
Flags: W
HStem: 923 26<-239 -183.75> 975 17<-195.612 -165.68> 1100 14<-173.842 -150.657>
VStem: -222 22<993.915 1072.03> -144 23<1017.91 1097.55> 1 40<1040.8 1093>
LayerCount: 2
Fore
SplineSet
-164 949 m 1
 -56 962 -22 1010 1 1093 c 1
 41 1093 l 1
 19 970 -46 923 -191 923 c 2
 -239 923 l 1
 -239 949 l 1
 -201 949 l 1
 -183 965 -176 963 -160 983 c 1
 -167 978 -175 975 -183 975 c 0
 -207 975 -222 1002 -222 1032 c 0
 -222 1064 -199 1114 -162 1114 c 0
 -153 1114 -121 1109 -121 1054 c 0
 -121 1008 -142 966 -164 949 c 1
-200 1026 m 0
 -200 1005 -196 992 -182 992 c 0
 -155 992 -144 1052 -144 1062 c 0
 -144 1079 -147 1100 -163 1100 c 0
 -172 1100 -200 1071 -200 1026 c 0
EndSplineSet
Validated: 1
Substitution2: "Single Substitution lookup 22 subtable" uni0E49.alt2
Substitution2: "Single Substitution lookup 22 subtable" uni0E49.alt2
EndChar

StartChar: uni0E4A
Encoding: 3658 3658 281
Width: 0
VWidth: 1467
Flags: W
HStem: 931 21<-210.516 -153.794> 1012 20<-232.724 -184.334>
VStem: -269 28<972.986 1035.76> -151 15<957.036 985.722> -27 29<976.78 1059.47> 79 40<1064.67 1146>
LayerCount: 2
Fore
SplineSet
-9 976 m 1
 48 1007 68 1058 79 1146 c 1
 119 1146 l 1
 105 1027 38 942 -48 939 c 1
 -48 958 l 1
 -33 974 -27 991 -27 1012 c 0
 -27 1083 -91 1087 -91 1087 c 1
 -108 1070 -117 1054 -129 1042 c 1
 -185 1089 l 1
 -200 1082 -233 1065 -233 1037 c 2
 -233 1030 l 1
 -227 1031 -221 1032 -215 1032 c 0
 -167 1032 -136 997 -136 970 c 0
 -136 948 -149 931 -174 931 c 0
 -184 931 -269 937 -269 1015 c 0
 -269 1066 -228 1115 -179 1115 c 1
 -129 1073 l 1
 -97 1115 l 1
 -60 1115 2 1095 2 1016 c 0
 2 1012 2 997 -9 976 c 1
-188 1005 m 0
 -189 1005 -205 1012 -221 1012 c 0
 -237 1012 -241 998 -241 993 c 0
 -241 974 -200 952 -173 952 c 0
 -156 952 -151 965 -151 971 c 0
 -151 988 -184 1005 -188 1005 c 0
EndSplineSet
Validated: 1
Substitution2: "Single Substitution lookup 22 subtable" uni0E4A.alt2
Substitution2: "Single Substitution lookup 22 subtable" uni0E4A.alt2
EndChar

StartChar: uni0E4B
Encoding: 3659 3659 282
Width: 0
VWidth: 1467
Flags: W
HStem: 1012 39<-222 -136 -88 -6>
VStem: -136 48<924 1012 1051 1141>
LayerCount: 2
Fore
SplineSet
-6 1012 m 1
 -88 1012 l 1
 -88 924 l 1
 -136 924 l 1
 -136 1012 l 1
 -222 1012 l 1
 -222 1051 l 1
 -136 1051 l 1
 -136 1141 l 1
 -88 1141 l 1
 -88 1051 l 1
 -6 1051 l 1
 -6 1012 l 1
EndSplineSet
Validated: 1
Substitution2: "Single Substitution lookup 22 subtable" uni0E4B.alt2
Substitution2: "Single Substitution lookup 22 subtable" uni0E4B.alt2
EndChar

StartChar: uni0E4C
Encoding: 3660 3660 283
Width: 0
VWidth: 1467
Flags: W
HStem: 936 25<-163.34 -129.615>
VStem: -207 31<968.96 1078> -118 29<969.932 1073.81> -56 34<1182.61 1234>
LayerCount: 2
Fore
SplineSet
-144 936 m 0
 -184 936 -207 985 -207 1027 c 0
 -207 1135 -76 1136 -60 1210 c 0
 -58 1217 -57 1226 -56 1237 c 1
 -22 1234 l 1
 -22 1213 l 2
 -22 1172 -109 1117 -129 1103 c 1
 -104 1089 -89 1057 -89 1027 c 0
 -89 968 -116 936 -144 936 c 0
-118 1013 m 0
 -118 1059 -136 1086 -147 1086 c 0
 -153 1086 -176 1077 -176 1021 c 0
 -176 1010 -170 961 -146 961 c 0
 -131 961 -118 991 -118 1013 c 0
EndSplineSet
Validated: 1
Substitution2: "Single Substitution lookup 22 subtable" uni0E4C.alt2
Substitution2: "Single Substitution lookup 22 subtable" uni0E4C.alt2
EndChar

StartChar: uni0E4D
Encoding: 3661 3661 284
Width: 0
VWidth: 1467
Flags: W
HStem: 717 25<-209.203 -150.513> 864 24<-212.631 -153.744>
VStem: -276 37<764.883 844.592> -123 35<763.176 840.022>
LayerCount: 2
Fore
SplineSet
-181 888 m 0
 -130 888 -88 850 -88 803 c 256
 -88 755 -129 717 -181 717 c 0
 -233 717 -276 755 -276 803 c 0
 -276 861 -221 888 -181 888 c 0
-180 742 m 0
 -153 742 -123 774 -123 803 c 0
 -123 827 -154 864 -184 864 c 0
 -217 864 -239 823 -239 803 c 0
 -239 778 -207 742 -180 742 c 0
EndSplineSet
Validated: 1
Substitution2: "Single Substitution lookup 22 subtable" uni0E4D.alt1
Substitution2: "Single Substitution lookup 22 subtable" uni0E4D.alt1
EndChar

StartChar: uni0E4E
Encoding: 3662 3662 285
Width: 0
VWidth: 1467
Flags: W
HStem: 664 44<-273.476 -167.367> 697 20G<-169 -157> 819 44<-221.275 -148> 970 44<-190.042 -38.5722>
VStem: -316 29<725.768 779.699> -258 31<875.783 932.126>
LayerCount: 2
Fore
SplineSet
-227 903 m 0xbc
 -227 879 -206 869 -178 863 c 1
 -161 863 l 2
 -145 863 -147 860 -141 860 c 1
 -148 819 l 1
 -169 819 l 2
 -208 819 -287 790 -287 752 c 0
 -287 715 -234 708 -201 708 c 0xbc
 -179 708 -175 712 -169 714 c 2
 -154 717 l 1x7c
 -160 701 -165 684 -170 666 c 1
 -179 665 -187 664 -195 664 c 0
 -254 664 -316 697 -316 757 c 0
 -316 794 -284 831 -235 850 c 1
 -246 863 -258 883 -258 905 c 0
 -258 964 -189 1014 -112 1014 c 0
 -59 1014 -29 988 -23 982 c 1
 -41 957 l 1
 -52 963 -67 970 -106 970 c 0
 -182 970 -227 928 -227 903 c 0xbc
EndSplineSet
Validated: 1
Substitution2: "Single Substitution lookup 22 subtable" uni0E4E.alt1
Substitution2: "Single Substitution lookup 22 subtable" uni0E4E.alt1
EndChar

StartChar: uni0E4F
Encoding: 3663 3663 286
Width: 660
VWidth: 1467
Flags: W
HStem: -9 50<242.017 420.595> 92 53<270.26 390.571> 333 51<270.938 390.345> 436 51<239.291 419.508>
VStem: 82 52<148.079 327.31> 185 51<178.678 297.335> 424 51<178.22 298.77> 527 51<150.584 330.462>
LayerCount: 2
Fore
SplineSet
330 145 m 256
 385 145 424 188 424 239 c 0
 424 288 386 333 330 333 c 256
 276 333 236 289 236 239 c 0
 236 185 279 145 330 145 c 256
330 384 m 256
 413 384 475 318 475 239 c 256
 475 158 411 92 330 92 c 256
 249 92 185 159 185 239 c 256
 185 322 251 384 330 384 c 256
330 41 m 0
 441 41 527 131 527 239 c 0
 527 353 437 436 330 436 c 0
 218 436 134 347 134 239 c 256
 134 127 223 41 330 41 c 0
578 239 m 0
 578 97 466 -9 330 -9 c 256
 188 -9 82 103 82 239 c 256
 82 381 194 487 330 487 c 0
 465 487 578 376 578 239 c 0
EndSplineSet
Validated: 1
EndChar

StartChar: uni0E50
Encoding: 3664 3664 287
Width: 815
VWidth: 1467
Flags: W
HStem: -1 45<316.891 522.507> 443 47<309.654 523.356>
VStem: 138 45<168.486 324.992> 653 42<166.655 328.713>
LayerCount: 2
Fore
SplineSet
417 490 m 0
 568 490 695 369 695 244 c 256
 695 126 579 -1 417 -1 c 0
 263 -1 138 117 138 244 c 256
 138 371 269 490 417 490 c 0
418 44 m 0
 554 44 653 145 653 244 c 256
 653 348 567 443 417 443 c 0
 259 443 183 332 183 244 c 256
 183 149 283 44 418 44 c 0
EndSplineSet
Validated: 1
EndChar

StartChar: uni0E51
Encoding: 3665 3665 288
Width: 815
VWidth: 1467
Flags: W
HStem: 0 39<287.23 537.187> 153 35<311.749 438.667> 278 36<345.578 477.973> 442 36<294.43 512.438>
VStem: 147 41<242.076 360.112> 282 25<201.302 241.673> 481 27<225.684 269.671> 638 43<115.094 352.562>
LayerCount: 2
Fore
SplineSet
147 285 m 0
 147 401 254 478 417 478 c 0
 517 478 657 445 676 336 c 0
 680 318 681 301 681 282 c 2
 681 180 l 2
 681 141 661 78 604 44 c 0
 538 6 447 -0 408 0 c 0
 269 0 182 54 164 88 c 1
 219 106 l 1
 232 91 l 2
 257 61 330 39 406 39 c 0
 472 39 538 53 581 76 c 0
 622 101 638 155 638 214 c 2
 638 291 l 2
 638 381 527 442 403 442 c 0
 302 442 188 400 188 291 c 0
 188 272 194 226 285 201 c 1
 283 204 282 213 282 220 c 0
 282 280 366 314 411 314 c 0
 467 314 508 287 508 246 c 0
 508 192 439 153 356 153 c 0
 269 153 147 183 147 285 c 0
307 219 m 0
 307 200 321 188 364 188 c 0
 432 188 481 225 481 251 c 0
 481 273 448 278 429 278 c 0
 354 278 307 243 307 219 c 0
EndSplineSet
Validated: 1
EndChar

StartChar: uni0E52
Encoding: 3666 3666 289
Width: 815
VWidth: 1467
Flags: W
HStem: 0 37<252.399 558.065> 244 26<285.42 327.252> 455 25<278.855 319.054>
VStem: 76 46<160.043 657> 223 35<297.462 436.956> 345 36<282.608 405.118> 691 46<162.225 382.651>
LayerCount: 2
Fore
SplineSet
223 363 m 0
 223 432 259 480 300 480 c 0
 318 480 334 472 349 456 c 2
 472 355 l 1
 496 383 557 432 584 477 c 1
 673 465 737 403 737 295 c 2
 737 238 l 2
 737 108 633 0 500 0 c 2
 313 0 l 2
 178 0 76 112 76 238 c 2
 76 657 l 1
 122 657 l 1
 122 268 l 2
 122 84 267 37 330 37 c 2
 481 37 l 2
 545 39 691 83 691 267 c 2
 691 298 l 2
 691 383 649 418 602 439 c 1
 478 305 l 1
 380 380 l 1
 381 377 381 372 381 365 c 0
 381 267 334 244 303 244 c 0
 260 244 223 294 223 363 c 0
258 361 m 0
 258 337 276 270 308 270 c 0
 330 270 345 308 345 364 c 256
 345 392 327 455 298 455 c 256
 266 455 258 379 258 361 c 0
EndSplineSet
Validated: 1
EndChar

StartChar: uni0E53
Encoding: 3667 3667 290
Width: 815
VWidth: 1467
Flags: W
HStem: -3 36<250.868 383.14> 126 34<286.379 419.654>
VStem: 122 47<108.351 373.377> 425 28<68.7849 116.364> 653 47<1 373.377>
LayerCount: 2
Fore
SplineSet
315 -3 m 0
 256 -3 122 50 122 186 c 2
 122 314 l 2
 122 421 223 481 349 493 c 1
 411 373 l 1
 436 413 448 451 472 493 c 1
 600 481 700 421 700 314 c 2
 700 1 l 1
 653 1 l 1
 653 301 l 2
 653 401 570 434 489 447 c 1
 411 293 l 1
 333 447 l 1
 287 440 169 418 169 301 c 2
 169 208 l 2
 169 110 207 85 219 73 c 1
 225 128 294 160 354 160 c 0
 401 160 453 138 453 90 c 0
 453 46 395 -3 315 -3 c 0
364 126 m 0
 304 126 245 96 245 65 c 0
 245 39 281 33 305 33 c 0
 361 33 425 63 425 93 c 0
 425 119 396 126 364 126 c 0
EndSplineSet
Validated: 1
EndChar

StartChar: uni0E54
Encoding: 3668 3668 291
Width: 815
VWidth: 1467
Flags: W
HStem: 0 41<282.918 502 547.973 712> 119 30<499 543.46> 292 30<553.314 618.825> 442 39<316.691 576.928>
VStem: 118 50<152.778 315.08> 445 28<152.295 209.038> 621 27<230.382 288.255> 663 46<574.651 654>
LayerCount: 2
Fore
SplineSet
445 159 m 0
 445 265 532 322 587 322 c 0
 623 322 648 294 648 259 c 0
 648 191 574 119 510 119 c 0
 506 119 503 120 499 120 c 1
 534 42 598 40 641 40 c 2
 712 41 l 1
 712 0 l 1
 342 0 l 2
 281 0 118 67 118 228 c 0
 118 337 204 481 401 481 c 2
 472 481 l 2
 562 481 648 502 663 654 c 1
 709 654 l 1
 687 533 639 442 496 442 c 2
 415 442 l 2
 278 442 168 342 168 234 c 0
 168 144 243 56 346 41 c 1
 502 41 l 1
 447 86 445 144 445 159 c 0
594 292 m 0
 542 292 473 209 473 172 c 0
 473 159 486 149 499 149 c 0
 555 149 621 228 621 269 c 0
 621 282 608 292 594 292 c 0
EndSplineSet
Validated: 1
EndChar

StartChar: uni0E55
Encoding: 3669 3669 292
Width: 815
VWidth: 1467
Flags: W
HStem: 0 40<292.452 492 536.172 695> 118 30<489 532.761> 286 28<542.187 604.328> 433 37<341.202 481.545> 555 35<336.55 478.277>
VStem: 123 44<141.065 300.916> 295 25<492.795 535.097> 436 27<151.049 208.067> 499 25<491.278 531.865> 607 27<224.244 283.141> 649 42<560.806 638>
LayerCount: 2
Fore
SplineSet
634 253 m 0
 634 183 555 118 500 118 c 0
 497 118 493 119 489 119 c 1
 501 84 535 56 564 45 c 0
 578 41 599 38 628 38 c 2
 695 40 l 1
 695 0 l 1
 337 0 l 1
 296 7 123 44 123 209 c 0
 123 310 190 424 323 461 c 1
 297 482 295 502 295 516 c 0
 295 558 348 590 408 590 c 0
 469 590 524 559 524 514 c 0
 524 498 518 484 506 471 c 1
 549 476 636 495 649 638 c 1
 691 638 l 1
 668 516 624 433 485 433 c 2
 404 433 l 2
 279 433 167 324 167 220 c 0
 167 103 283 60 340 40 c 1
 492 40 l 1
 452 72 436 123 436 176 c 0
 436 234 499 314 576 314 c 0
 617 314 634 280 634 253 c 0
607 261 m 0
 607 281 591 286 581 286 c 0
 541 286 463 219 463 170 c 0
 463 157 475 148 489 148 c 0
 543 148 607 222 607 261 c 0
499 512 m 256
 499 538 444 555 408 555 c 0
 386 555 320 547 320 514 c 256
 320 489 365 470 408 470 c 0
 451 470 499 487 499 512 c 256
EndSplineSet
Validated: 1
EndChar

StartChar: uni0E56
Encoding: 3670 3670 293
Width: 815
VWidth: 1459
Flags: W
HStem: -3 44<355.74 527.251> 249 26<265.403 308.635> 453 35<248.83 510.154>
VStem: 117 43<580.584 661> 218 37<113.336 244.615> 348 37<72.2817 205.727> 658 50<161.24 322.473>
LayerCount: 2
Fore
SplineSet
283 275 m 0
 338 275 385 203 385 134 c 0
 385 99 374 72 355 57 c 1
 382 45 407 41 429 41 c 0
 539 41 658 125 658 239 c 0
 658 349 553 453 425 453 c 2
 348 453 l 2
 234 453 117 495 117 661 c 1
 160 661 l 1
 182 544 206 488 357 488 c 2
 428 488 l 2
 604 488 708 356 708 238 c 0
 708 78 541 -3 436 -3 c 0
 380 -3 325 18 270 58 c 0
 246 78 218 133 218 183 c 0
 218 224 239 275 283 275 c 0
348 124 m 0
 348 192 311 249 287 249 c 0
 260 249 255 212 255 190 c 0
 255 130 291 68 316 68 c 0
 329 68 348 78 348 124 c 0
EndSplineSet
Validated: 1
EndChar

StartChar: uni0E57
Encoding: 3671 3671 294
Width: 890
VWidth: 1463
Flags: W
HStem: -5 35<202.66 337.661> 122 35<238.961 372.408>
VStem: 75 47<100.508 369.477> 379 26<67.5162 110.979> 606 46<80.006 366.666> 769 45<157.675 624>
LayerCount: 2
Fore
SplineSet
270 -5 m 0
 186 -5 75 55 75 184 c 2
 75 310 l 2
 75 418 167 474 301 490 c 1
 364 370 l 1
 391 416 392 431 424 490 c 1
 615 468 652 383 652 270 c 2
 652 144 l 2
 652 123 639 79 599 37 c 1
 623 39 666 48 716 108 c 0
 751 149 769 201 769 264 c 2
 769 624 l 1
 814 624 l 1
 814 235 l 2
 814 109 748 17 619 5 c 0
 609 4 579 0 519 0 c 1
 525 31 l 1
 545 41 600 60 606 159 c 2
 606 297 l 2
 600 388 540 421 492 432 c 2
 440 445 l 1
 364 291 l 1
 285 445 l 1
 234 432 l 2
 201 425 122 391 122 297 c 2
 122 204 l 2
 122 119 141 98 170 69 c 1
 176 129 255 157 307 157 c 0
 340 157 405 142 405 84 c 0
 405 39 340 -5 270 -5 c 0
316 122 m 0
 256 122 197 90 197 61 c 0
 197 32 241 30 266 30 c 0
 322 30 379 63 379 93 c 0
 379 116 341 122 316 122 c 0
EndSplineSet
Validated: 1
EndChar

StartChar: uni0E58
Encoding: 3672 3672 295
Width: 815
VWidth: 1464
Flags: W
HStem: 0 21G<266.5 330.981 482.767 564.5> 120 28<606.363 650.877> 287 29<531.515 596.38> 431 40<324.558 577.882>
VStem: 125 45<141.491 293.824> 503 26<227.251 283.697> 647 47<534.359 635> 673 26<151.663 208.697>
LayerCount: 2
Fore
SplineSet
562 316 m 0xfe
 620 316 699 258 699 175 c 0xfd
 699 94 633 20 496 0 c 1
 408 133 l 1
 403 124 397 114 389 103 c 2
 317 0 l 1
 216 11 125 102 125 202 c 0
 125 354 246 471 390 471 c 2
 459 471 l 2
 581 471 647 499 647 635 c 1
 694 635 l 1
 694 472 577 431 467 431 c 2
 415 431 l 2
 284 431 170 319 170 213 c 0
 170 146 238 57 301 47 c 1
 408 192 l 1
 505 47 l 1
 552 58 l 2
 595 68 634 97 651 122 c 1
 646 121 640 120 634 120 c 0
 576 120 503 187 503 256 c 0
 503 290 525 316 562 316 c 0xfe
673 173 m 0
 673 216 603 287 556 287 c 0
 541 287 529 277 529 263 c 0
 529 221 601 148 647 148 c 0xfe
 657 148 673 153 673 173 c 0
EndSplineSet
Validated: 1
EndChar

StartChar: uni0E59
Encoding: 3673 3673 296
Width: 883
VWidth: 1458
Flags: W
HStem: -3 27<270 313.212> 205 25<301.164 342.52> 444 37<572 727.939>
VStem: 75 48<119.748 308.161> 224 35<38.7194 153.474> 354 36<71.6739 200.234> 801 50<552.726 654>
LayerCount: 2
Fore
SplineSet
610 481 m 2
 748 481 801 516 801 654 c 1
 851 654 l 1
 839 502 771 444 619 444 c 2
 572 444 l 1
 474 270 l 1
 607 47 l 1
 587 1 l 1
 313 447 l 1
 196 426 123 316 123 211 c 0
 123 161 143 75 235 38 c 1
 228 53 224 70 224 92 c 0
 224 164 274 230 321 230 c 0
 376 230 390 173 390 137 c 0
 390 84 359 -3 278 -3 c 0
 225 -3 75 49 75 211 c 0
 75 328 167 480 339 488 c 1
 446 315 l 1
 487 381 503 416 546 481 c 1
 610 481 l 2
323 205 m 0
 295 205 259 134 259 84 c 0
 259 64 265 24 291 24 c 0
 316 24 354 85 354 146 c 0
 354 166 348 205 323 205 c 0
EndSplineSet
Validated: 1
EndChar

StartChar: uni0E5A
Encoding: 3674 3674 297
Width: 686
VWidth: 1467
Flags: W
HStem: -1 22G<364 414 549 599> 389 36<168.175 252.066 414 458.6> 552 30<122.516 171.085>
VStem: 89 32<482.948 551.605> 223 31<427.213 496.932> 364 50<-1 390.777 423 468> 549 50<0 470 507.891 547>
LayerCount: 2
Fore
SplineSet
414 423 m 1
 477 442 519 482 549 547 c 1
 599 547 l 1
 599 0 l 1
 549 0 l 1
 549 470 l 1
 545 466 511 403 414 386 c 1
 414 -1 l 1
 364 -1 l 1
 364 468 l 1
 329 424 288 389 211 389 c 0
 161 389 89 451 89 522 c 0
 89 570 124 582 142 582 c 0
 187 582 254 527 254 456 c 0
 254 445 252 436 249 427 c 1
 304 441 345 512 364 546 c 1
 414 546 l 1
 414 423 l 1
203 425 m 0
 210 425 223 428 223 448 c 0
 223 499 166 552 140 552 c 0
 136 552 121 549 121 528 c 0
 121 489 171 425 203 425 c 0
EndSplineSet
Validated: 1
EndChar

StartChar: uni0E5B
Encoding: 3675 3675 298
Width: 1142
VWidth: 1467
Flags: W
HStem: 12 49<242.888 441.703> 195 28<314.86 360.284> 347 29<910.353 1031.48> 402 28<344.691 386.656> 525 44<229.777 347.243>
VStem: 101 43<185.581 418.491> 271 35<227.075 356.842> 401 35<269.004 397.269> 551 45<186.303 414.165> 850 28<272.337 399.28>
LayerCount: 2
Fore
SplineSet
842 443 m 1
 860 431 895 376 977 376 c 0
 1018 376 1062 390 1097 425 c 1
 1083 397 1045 347 967 347 c 0
 953 347 924 348 876 376 c 1
 877 372 878 343 878 334 c 0
 878 268 861 246 845 224 c 1
 819 222 l 1
 794 249 777 273 769 294 c 2
 747 349 l 1
 742 251 720 219 684 191 c 1
 640 191 l 1
 641 207 642 215 642 231 c 0
 642 251 640 313 587 383 c 1
 593 356 596 329 596 302 c 0
 596 229 574 168 550 125 c 0
 491 35 431 12 346 12 c 0
 293 12 252 23 202 50 c 0
 134 86 101 186 101 289 c 0
 101 443 171 569 302 569 c 0
 409 569 436 436 436 348 c 0
 436 235 374 195 341 195 c 0
 294 195 271 245 271 290 c 0
 271 354 314 430 366 430 c 0
 375 430 385 427 387 427 c 1
 377 465 352 525 301 525 c 0
 207 525 144 431 144 304 c 0
 144 207 187 79 292 66 c 0
 314 63 335 61 355 61 c 0
 406 61 453 76 506 139 c 0
 536 180 551 258 551 321 c 0
 551 398 533 438 528 449 c 1
 522 455 519 456 515 462 c 1
 559 462 l 1
 635 404 677 317 684 230 c 1
 705 262 727 314 727 429 c 0
 727 439 727 450 726 461 c 1
 744 424 758 394 768 370 c 2
 792 314 l 2
 801 294 809 276 828 260 c 1
 847 283 850 311 850 339 c 0
 850 366 848 381 845 408 c 2
 842 443 l 1
335 223 m 0
 361 223 401 275 401 346 c 0
 401 367 397 402 371 402 c 0
 339 402 306 340 306 281 c 0
 306 263 309 223 335 223 c 0
EndSplineSet
Validated: 1
EndChar

StartChar: zerowidthnonjoiner
Encoding: 8204 8204 299
Width: 0
VWidth: 1467
Flags: W
LayerCount: 2
Back
SplineSet
26 -393 m 1
 -25 -393 l 1
 -25 411 l 1
 26 411 l 1
 26 -393 l 1
EndSplineSet
EndChar

StartChar: zerowidthjoiner
Encoding: 8205 8205 300
Width: 0
VWidth: 1467
Flags: W
LayerCount: 2
Back
SplineSet
26 -452 m 1
 -25 -452 l 1
 -25 220 l 1
 -54 189 l 1
 -81 214 l 1
 -25 270 l 1
 -81 327 l 1
 -54 352 l 1
 0 296 l 1
 56 352 l 1
 82 327 l 1
 26 270 l 1
 82 214 l 1
 56 189 l 1
 26 220 l 1
 26 -452 l 1
EndSplineSet
EndChar

StartChar: lefttorightmark
Encoding: 8206 8206 301
Width: 0
VWidth: 1467
Flags: W
LayerCount: 2
Back
SplineSet
26 -452 m 1
 -25 -452 l 1
 -25 299 l 1
 172 299 l 1
 147 326 l 1
 170 351 l 1
 248 273 l 1
 170 195 l 1
 147 222 l 1
 172 246 l 1
 26 246 l 1
 26 -452 l 1
EndSplineSet
EndChar

StartChar: righttoleftmark
Encoding: 8207 8207 302
Width: 0
VWidth: 1467
Flags: W
LayerCount: 2
Back
SplineSet
26 -452 m 1
 -25 -452 l 1
 -25 246 l 1
 -170 246 l 1
 -145 222 l 1
 -169 195 l 1
 -246 273 l 1
 -169 351 l 1
 -145 326 l 1
 -170 299 l 1
 26 299 l 1
 26 -452 l 1
EndSplineSet
EndChar

StartChar: endash
Encoding: 8211 8211 303
Width: 528
VWidth: 1467
Flags: W
HStem: 245 43<31 496>
LayerCount: 2
Fore
SplineSet
31 245 m 1
 31 288 l 1
 496 288 l 1
 496 245 l 1
 31 245 l 1
EndSplineSet
Validated: 1
EndChar

StartChar: emdash
Encoding: 8212 8212 304
Width: 1056
VWidth: 1467
Flags: W
HStem: 245 43<32 1020>
LayerCount: 2
Fore
SplineSet
32 245 m 1
 32 288 l 1
 1020 288 l 1
 1020 245 l 1
 32 245 l 1
EndSplineSet
Validated: 1
EndChar

StartChar: quoteleft
Encoding: 8216 8216 305
Width: 299
VWidth: 1467
Flags: W
HStem: 489 100<144.515 189.5>
VStem: 101 107<507.158 580.625>
LayerCount: 2
Fore
SplineSet
144 489 m 0
 121 489 101 510 101 537 c 0
 101 574 110 606 128 630 c 0
 145 656 163 674 180 685 c 1
 214 685 l 1
 182 664 150 625 144 581 c 1
 155 586 165 589 174 589 c 0
 191 589 208 578 208 555 c 0
 208 523 180 489 144 489 c 0
EndSplineSet
Validated: 1
EndChar

StartChar: quoteright
Encoding: 8217 8217 306
Width: 303
VWidth: 1467
Flags: W
HStem: 586 100<121.5 166.531>
VStem: 103 107<594.407 667.842>
LayerCount: 2
Fore
SplineSet
167 686 m 0
 190 686 210 665 210 638 c 0
 210 601 201 570 184 545 c 0
 166 520 148 502 131 490 c 1
 97 490 l 1
 128 513 161 550 167 594 c 1
 157 589 147 586 139 586 c 0
 126 586 103 593 103 620 c 0
 103 652 131 686 167 686 c 0
EndSplineSet
Validated: 1
EndChar

StartChar: quotesinglbase
Encoding: 8218 8218 307
Width: 184
VWidth: 1467
Flags: W
HStem: -12 99<64.4982 109.485>
VStem: 46 107<-3.6996 69.0883>
LayerCount: 2
Fore
SplineSet
110 87 m 0
 135 87 153 62 153 40 c 0
 153 3 144 -28 126 -54 c 0
 109 -78 91 -97 73 -109 c 1
 40 -109 l 1
 72 -86 104 -50 110 -4 c 1
 99 -9 89 -12 80 -12 c 0
 61 -12 46 0 46 22 c 0
 46 58 80 87 110 87 c 0
EndSplineSet
Validated: 1
EndChar

StartChar: quotedblleft
Encoding: 8220 8220 308
Width: 500
VWidth: 1467
Flags: W
HStem: 489 100<144.515 189.5 335.514 380.5>
VStem: 101 107<507.158 580.625> 292 107<506.608 580.593>
LayerCount: 2
Fore
SplineSet
144 489 m 0
 121 489 101 510 101 537 c 0
 101 574 110 606 128 630 c 0
 145 656 163 674 180 685 c 1
 214 685 l 1
 182 664 150 625 144 581 c 1
 155 586 165 589 174 589 c 0
 191 589 208 578 208 555 c 0
 208 523 180 489 144 489 c 0
335 489 m 0
 309 489 292 513 292 537 c 0
 292 574 301 606 318 630 c 0
 336 656 354 674 371 685 c 1
 405 685 l 1
 373 664 341 625 335 581 c 1
 346 586 355 589 364 589 c 0
 378 589 399 582 399 555 c 0
 399 523 371 489 335 489 c 0
EndSplineSet
Validated: 1
EndChar

StartChar: quotedblright
Encoding: 8221 8221 309
Width: 516
VWidth: 1467
Flags: W
HStem: 586 100<121.5 166.531 326.773 372.486>
VStem: 103 107<594.407 667.842> 309 106<594.407 667.646>
LayerCount: 2
Fore
SplineSet
167 686 m 0
 190 686 210 665 210 638 c 0
 210 601 201 570 184 545 c 0
 166 520 148 502 131 490 c 1
 97 490 l 1
 128 513 161 550 167 594 c 1
 157 589 147 586 139 586 c 0
 126 586 103 593 103 620 c 0
 103 652 131 686 167 686 c 0
372 686 m 0
 398 686 415 663 415 638 c 0
 415 601 406 570 388 545 c 0
 371 520 353 502 336 490 c 1
 302 490 l 1
 334 513 366 549 373 594 c 1
 362 589 353 586 344 586 c 0
 330 586 309 593 309 620 c 0
 309 653 338 686 372 686 c 0
EndSplineSet
Validated: 1
EndChar

StartChar: quotedblbase
Encoding: 8222 8222 310
Width: 443
VWidth: 1467
Flags: W
HStem: -12 99<87.148 133.485 278.498 323.486>
VStem: 69 107<-3.59327 68.6682> 260 107<-3.59327 69.0352>
LayerCount: 2
Fore
SplineSet
133 87 m 0
 160 87 176 63 176 40 c 0
 176 3 167 -28 150 -54 c 0
 132 -78 114 -97 97 -109 c 1
 63 -109 l 1
 95 -86 127 -49 134 -4 c 1
 123 -9 113 -12 104 -12 c 0
 92 -12 69 -5 69 22 c 0
 69 58 102 87 133 87 c 0
324 87 m 0
 348 87 367 66 367 40 c 0
 367 3 358 -28 340 -54 c 0
 323 -78 305 -97 288 -109 c 1
 254 -109 l 1
 286 -86 318 -50 324 -4 c 1
 313 -9 304 -12 295 -12 c 0
 283 -12 260 -5 260 22 c 0
 260 58 294 87 324 87 c 0
EndSplineSet
Validated: 1
EndChar

StartChar: dagger
Encoding: 8224 8224 311
Width: 450
VWidth: 1467
Flags: W
HStem: 439 35<57 207 242 395> 695 20G<207 242>
VStem: 207 35<-53 439 474 715>
LayerCount: 2
Fore
SplineSet
395 474 m 1
 395 439 l 1
 242 439 l 1
 242 -53 l 1
 207 -53 l 1
 207 439 l 1
 57 439 l 1
 57 474 l 1
 207 474 l 1
 207 715 l 1
 242 715 l 1
 242 474 l 1
 395 474 l 1
EndSplineSet
Validated: 1
EndChar

StartChar: daggerdbl
Encoding: 8225 8225 312
Width: 450
VWidth: 1467
Flags: W
HStem: 292 35<57 207 242 395> 439 35<57 207 242 395> 695 20G<207 242>
VStem: 207 35<-53 292 327 439 474 715>
LayerCount: 2
Fore
SplineSet
395 439 m 1
 242 439 l 1
 242 327 l 1
 395 327 l 1
 395 292 l 1
 242 292 l 1
 242 -53 l 1
 207 -53 l 1
 207 292 l 1
 57 292 l 1
 57 327 l 1
 207 327 l 1
 207 439 l 1
 57 439 l 1
 57 474 l 1
 207 474 l 1
 207 715 l 1
 242 715 l 1
 242 474 l 1
 395 474 l 1
 395 439 l 1
EndSplineSet
Validated: 1
EndChar

StartChar: bullet
Encoding: 8226 8226 313
Width: 463
VWidth: 1467
Flags: W
HStem: 153 383<168.943 300.622>
VStem: 94 285<244.102 445.436>
LayerCount: 2
Fore
SplineSet
236 536 m 0
 322 536 379 447 379 343 c 0
 379 246 321 153 236 153 c 0
 179 153 94 200 94 343 c 0
 94 446 151 536 236 536 c 0
EndSplineSet
Validated: 1
EndChar

StartChar: ellipsis
Encoding: 8230 8230 314
Width: 1035
VWidth: 1467
Flags: W
HStem: 3 115<142.362 209.585 492.476 559.366 838.727 904.366>
VStem: 134 85<10.3494 111.195> 484 85<10.3792 111.195> 829 85<8.40967 109.024>
LayerCount: 2
Fore
SplineSet
176 118 m 0
 202 118 219 93 219 60 c 0
 219 30 201 3 176 3 c 0
 159 3 134 15 134 60 c 0
 134 91 149 118 176 118 c 0
527 118 m 0
 552 118 569 93 569 60 c 0
 569 31 551 3 527 3 c 0
 501 3 484 27 484 60 c 0
 484 93 501 118 527 118 c 0
872 116 m 0
 897 116 914 90 914 59 c 0
 914 29 897 1 872 1 c 0
 844 1 829 25 829 59 c 0
 829 90 846 116 872 116 c 0
EndSplineSet
Validated: 1
EndChar

StartChar: perthousand
Encoding: 8240 8240 315
Width: 1203
VWidth: 1467
Flags: W
HStem: -13 21G<166 227.955> 4 41<572.716 667.295 968.895 1053.56> 289 41<138.186 229.162> 368 41<569.366 664.68 955.166 1051.74> 653 41<135.395 223.037>
VStem: 31 53<395.756 588.937> 282 53<393.984 580.375> 468 53<107.432 309.331> 720 52<107.469 301.934> 855 53<118.179 309.635> 1108 51<109.133 300.434>
LayerCount: 2
Fore
SplineSet
216 -13 m 1xbfe0
 166 -13 l 1
 591 698 l 1
 641 698 l 1
 216 -13 l 1xbfe0
180 289 m 0
 106 289 31 371 31 493 c 0
 31 603 95 694 182 694 c 0
 274 694 335 597 335 493 c 0
 335 378 271 289 180 289 c 0
185 330 m 0
 241 330 282 412 282 494 c 0
 282 559 236 653 178 653 c 0
 121 653 84 560 84 496 c 0
 84 409 126 330 185 330 c 0
772 208 m 0
 772 96 710 4 618 4 c 0x7fe0
 541 4 468 88 468 208 c 256
 468 306 524 409 619 409 c 0
 711 409 772 313 772 208 c 0
622 45 m 0
 675 45 720 119 720 210 c 0
 720 271 686 368 614 368 c 0
 561 368 521 291 521 211 c 0
 521 124 560 45 622 45 c 0
1159 211 m 0
 1159 99 1097 7 1005 7 c 0
 928 7 855 91 855 211 c 256
 855 327 926 412 1006 412 c 0
 1098 412 1159 319 1159 211 c 0
1010 48 m 0
 1067 48 1108 123 1108 213 c 0
 1108 282 1060 371 1004 371 c 256
 948 371 908 292 908 214 c 0
 908 143 949 48 1010 48 c 0
EndSplineSet
Validated: 1
EndChar

StartChar: minute
Encoding: 8242 8242 316
Width: 190
VWidth: 1467
Flags: W
HStem: 505 192<85 88>
VStem: 85 69<676.636 697>
LayerCount: 2
Fore
SplineSet
88 505 m 1
 48 505 l 1
 85 697 l 1
 154 697 l 1
 88 505 l 1
EndSplineSet
Validated: 1
EndChar

StartChar: second
Encoding: 8243 8243 317
Width: 318
VWidth: 1467
Flags: W
HStem: 503 192<85 88 213 216>
VStem: 85 69<674.636 695> 213 69<674.636 695>
LayerCount: 2
Fore
SplineSet
216 503 m 1
 176 503 l 1
 213 695 l 1
 282 695 l 1
 216 503 l 1
88 503 m 1
 48 503 l 1
 85 695 l 1
 154 695 l 1
 88 503 l 1
EndSplineSet
Validated: 1
EndChar

StartChar: guilsinglleft
Encoding: 8249 8249 318
Width: 325
VWidth: 1467
Flags: W
VStem: 22 282
LayerCount: 2
Fore
SplineSet
22 263 m 1
 93 295 189 355 255 449 c 1
 304 449 l 1
 240 356 128 276 97 266 c 1
 145 247 266 143 304 85 c 1
 258 85 l 1
 158 201 75 248 22 263 c 1
EndSplineSet
Validated: 1
EndChar

StartChar: guilsinglright
Encoding: 8250 8250 319
Width: 302
VWidth: 1467
Flags: W
VStem: 16 283
LayerCount: 2
Fore
SplineSet
299 271 m 1
 232 241 134 178 66 85 c 1
 16 85 l 1
 92 187 195 259 223 268 c 1
 181 284 57 388 18 447 c 1
 63 447 l 1
 130 367 227 291 299 271 c 1
EndSplineSet
Validated: 1
EndChar

StartChar: fraction
Encoding: 8260 8260 320
Width: 155
VWidth: 1467
Flags: W
HStem: 0 21G<-73 -22.7417>
VStem: -73 317
LayerCount: 2
Fore
SplineSet
-31 0 m 1
 -73 0 l 1
 202 666 l 1
 244 666 l 1
 -31 0 l 1
EndSplineSet
Validated: 1
EndChar

StartChar: Euro
Encoding: 8364 8364 321
Width: 664
VWidth: 1467
Flags: W
HStem: -18 36<248.932 457.583> 246 47<16 104 151 443> 412 47<16 104 151 443> 590 21G<519 577> 678 34<252.076 451.071>
VStem: 104 47<93.8642 246 293 412 459 599.856>
LayerCount: 2
Fore
SplineSet
537 590 m 1
 501 674 375 678 352 678 c 0
 200 678 151 588 151 540 c 2
 151 459 l 1
 443 459 l 1
 443 412 l 1
 151 412 l 1
 151 293 l 1
 443 293 l 1
 443 246 l 1
 151 246 l 1
 151 156 l 2
 151 101 204 18 352 18 c 0
 383 18 502 22 537 106 c 1
 577 89 l 1
 541 16 439 -18 342 -18 c 0
 183 -18 104 69 104 136 c 2
 104 246 l 1
 16 246 l 1
 16 293 l 1
 104 293 l 1
 104 412 l 1
 16 412 l 1
 16 459 l 1
 104 459 l 1
 104 559 l 2
 104 631 189 712 344 712 c 0
 442 712 542 678 577 606 c 1
 537 590 l 1
EndSplineSet
Validated: 1
EndChar

StartChar: uni2113
Encoding: 8467 8467 322
Width: 312
VWidth: 1467
Flags: W
HStem: -5 45<158.514 242.373> 628 40<173.626 226.157>
VStem: 113 44<41.7511 301 377 617.13> 232 39<465.998 624.702>
LayerCount: 2
Fore
SplineSet
171 -5 m 0
 136 -5 113 19 113 87 c 2
 113 301 l 1
 60 264 l 1
 21 298 l 1
 113 357 l 1
 113 489 l 2
 114 608 143 668 202 668 c 0
 245 664 268 631 271 568 c 0
 271 466 233 385 157 324 c 1
 157 75 l 2
 157 52 168 40 189 40 c 0
 208 40 234 48 268 65 c 1
 268 31 l 1
 240 15 209 -5 171 -5 c 0
157 377 m 1
 207 430 232 496 232 572 c 0
 232 607 222 628 201 628 c 0
 172 628 156 586 154 511 c 2
 157 377 l 1
EndSplineSet
Validated: 1
EndChar

StartChar: trademark
Encoding: 8482 8482 323
Width: 836
VWidth: 1467
Flags: W
HStem: 508 21G<568.5 601.5> 672 26<47 188 216 358>
VStem: 188 28<279 672> 403 26<279 673> 756 26<279 675>
LayerCount: 2
Fore
SplineSet
47 698 m 1
 358 698 l 1
 358 671 l 1
 216 672 l 1
 216 279 l 1
 188 279 l 1
 188 672 l 1
 47 672 l 1
 47 698 l 1
593 555 m 1
 633 616 715 685 753 701 c 1
 782 701 l 1
 782 279 l 1
 756 279 l 1
 756 675 l 1
 721 663 610 550 593 508 c 1
 544 593 469 657 429 673 c 1
 429 279 l 1
 403 279 l 1
 403 701 l 1
 430 701 l 1
 468 683 545 625 593 555 c 1
EndSplineSet
Validated: 1
EndChar

StartChar: Ohm
Encoding: 8486 8486 324
Width: 679
VWidth: 1467
Flags: W
HStem: 0 38<53 227 452 625> 630 43<256.817 435.616>
VStem: 67 52<294.574 491.563> 227 55<38 147.82> 398 54<41 147> 559 50<293.227 496.509>
LayerCount: 2
Fore
SplineSet
559 388 m 0
 559 513 481 630 348 630 c 0
 218 630 119 517 119 392 c 0
 119 307 166 216 282 153 c 1
 282 0 l 1
 53 0 l 1
 53 38 l 1
 227 38 l 1
 227 134 l 1
 115 206 67 306 67 400 c 0
 67 543 178 673 343 673 c 0
 505 673 609 544 609 403 c 0
 609 307 561 205 452 134 c 1
 452 41 l 1
 625 41 l 1
 625 0 l 1
 398 0 l 1
 398 147 l 1
 505 214 559 294 559 388 c 0
EndSplineSet
Validated: 1
EndChar

StartChar: estimated
Encoding: 8494 8494 325
Width: 468
VWidth: 1467
Flags: W
HStem: -5 38<177.803 310.212> 244 45<104 351.165> 534 40<174.571 302.664>
VStem: 65 39<107.613 244 289 457.537> 370 41<307.817 461.265>
LayerCount: 2
Fore
SplineSet
401 116 m 1
 369 21 291 -5 236 -5 c 0
 133 -5 65 84 65 156 c 2
 65 402 l 2
 65 488 146 574 236 574 c 0
 347 574 411 472 411 381 c 0
 411 268 375 244 244 244 c 2
 104 244 l 1
 104 176 l 2
 104 110 161 33 244 33 c 0
 291 33 350 58 371 135 c 1
 401 116 l 1
244 289 m 2
 344 289 370 294 370 387 c 0
 365 469 312 534 239 534 c 0
 163 534 104 462 104 381 c 2
 104 289 l 1
 244 289 l 2
EndSplineSet
Validated: 1
EndChar

StartChar: partialdiff
Encoding: 8706 8706 326
Width: 473
VWidth: 1467
Flags: W
HStem: -11 52<113.863 268.015> 634 51<162.46 343.193>
VStem: 27 53<76.6396 237.041> 397 46<366.44 577.888>
LayerCount: 2
Fore
SplineSet
392 399 m 1
 363 369 333 343 283 332 c 2
 220 314 l 2
 126 288 80 237 80 154 c 0
 80 48 148 41 191 41 c 0
 247 41 296 68 330 104 c 2
 368 142 l 1
 370 147 l 1
 392 399 l 1
181 -11 m 0
 126 -11 27 20 27 148 c 0
 27 355 192 348 289 379 c 0
 300 381 397 417 397 499 c 0
 397 542 378 634 265 634 c 0
 205 634 138 607 92 575 c 1
 107 637 l 1
 159 671 211 685 258 685 c 0
 337 685 443 651 443 505 c 0
 443 497 443 489 442 481 c 2
 415 141 l 1
 412 130 408 122 403 117 c 2
 362 76 l 2
 282 -4 198 -11 181 -11 c 0
EndSplineSet
Validated: 1
EndChar

StartChar: Delta
Encoding: 8710 8710 327
Width: 582
VWidth: 1467
Flags: W
HStem: 0 47<75 514> 571 20G<294.678 314.374>
LayerCount: 2
Fore
SplineSet
582 0 m 1
 0 0 l 1
 305 591 l 1
 582 0 l 1
514 47 m 1
 307 493 l 1
 75 47 l 1
 514 47 l 1
EndSplineSet
Validated: 1
EndChar

StartChar: product
Encoding: 8719 8719 328
Width: 704
VWidth: 1467
Flags: W
HStem: 612 53<135 568>
VStem: 81 54<-153 612> 568 54<-153 612>
LayerCount: 2
Fore
SplineSet
622 -153 m 1
 568 -153 l 1
 568 612 l 1
 135 612 l 1
 135 -153 l 1
 81 -153 l 1
 81 665 l 1
 622 665 l 1
 622 -153 l 1
EndSplineSet
Validated: 1
EndChar

StartChar: summation
Encoding: 8721 8721 329
Width: 827
VWidth: 1467
Flags: W
HStem: -226 46<126 776> 607 43<125 776>
LayerCount: 2
Fore
SplineSet
527 236 m 1
 348 247 107 519 63 607 c 1
 63 650 l 1
 776 651 l 1
 776 607 l 1
 125 607 l 1
 193 458 447 265 631 242 c 1
 475 227 134 -86 126 -182 c 1
 172 -181 223 -180 280 -180 c 2
 776 -180 l 1
 776 -226 l 1
 63 -226 l 1
 63 -183 l 1
 115 -52 362 197 527 236 c 1
EndSplineSet
Validated: 1
EndChar

StartChar: minus
Encoding: 8722 8722 330
Width: 494
VWidth: 1467
Flags: W
HStem: 264 49<48 445>
LayerCount: 2
Fore
SplineSet
445 264 m 1
 48 264 l 1
 48 313 l 1
 445 313 l 1
 445 264 l 1
EndSplineSet
Validated: 1
EndChar

StartChar: radical
Encoding: 8730 8730 331
Width: 539
VWidth: 1467
Flags: W
HStem: 337 43<34 110>
LayerCount: 2
Fore
SplineSet
263 15 m 1
 216 15 l 1
 110 337 l 1
 34 337 l 1
 34 380 l 1
 144 380 l 1
 242 81 l 1
 464 665 l 1
 509 665 l 1
 263 15 l 1
EndSplineSet
Validated: 1
EndChar

StartChar: infinity
Encoding: 8734 8734 332
Width: 774
VWidth: 1467
Flags: W
HStem: 137 46<472.714 608.261> 158 40<168.389 302.658> 519 39<166.748 291.762> 531 50<470.986 596.849>
VStem: 72 33<278.898 446.22> 355 53<280.04 442.597> 657 46<238.847 453.747>
LayerCount: 2
Fore
SplineSet
703 354 m 0x1e
 703 176 600 137 531 137 c 0x9e
 473 137 408 168 381 279 c 1
 354 163 267 158 244 158 c 0
 154 158 72 231 72 358 c 0
 72 472 133 558 225 558 c 0x6e
 287 558 334 537 380 445 c 1
 405 573 505 581 535 581 c 0
 650 581 703 469 703 354 c 0x1e
105 364 m 0
 105 300 132 198 237 198 c 0
 284 198 355 224 355 347 c 0
 355 449 305 519 229 519 c 0x6e
 173 519 105 476 105 364 c 0
408 361 m 0
 408 254 461 183 542 183 c 0
 588 183 657 205 657 343 c 0
 657 419 628 531 535 531 c 0x9e
 470 531 408 473 408 361 c 0
EndSplineSet
Validated: 1
EndChar

StartChar: integral
Encoding: 8747 8747 333
Width: 362
VWidth: 1467
Flags: W
HStem: -147 40<-51.6857 42.0976> 620 43<251.859 350.125>
LayerCount: 2
Fore
SplineSet
126 -16 m 2
 114 -99 73 -147 2 -147 c 0
 -16 -147 -37 -146 -59 -142 c 1
 -51 -103 l 1
 -39 -105 -28 -107 -17 -107 c 0
 36 -107 69 -76 81 -15 c 2
 166 531 l 2
 179 619 230 663 319 663 c 0
 331 663 344 662 358 660 c 1
 349 618 l 1
 338 620 328 620 319 620 c 0
 261 620 226 590 213 530 c 2
 126 -16 l 2
EndSplineSet
Validated: 1
EndChar

StartChar: approxequal
Encoding: 8776 8776 334
Width: 570
VWidth: 1467
Flags: W
HStem: 144 50<317.712 450.723> 204 50<125.74 267.666> 302 51<313.961 448.638> 364 48<124.5 262.202>
LayerCount: 2
Fore
SplineSet
186 412 m 0
 276 412 326 353 386 353 c 0
 414 353 444 366 483 402 c 1
 483 351 l 1
 452 318 418 302 381 302 c 0
 339 302 234 364 185 364 c 0
 154 364 122 346 88 311 c 1
 88 361 l 1
 113 400 150 412 186 412 c 0
197 254 m 0
 273 254 332 194 390 194 c 0
 421 194 452 211 483 245 c 1
 483 194 l 1
 452 158 424 144 392 144 c 0
 326 144 248 204 190 204 c 0
 160 204 130 190 88 154 c 1
 88 202 l 1
 113 237 149 254 197 254 c 0
EndSplineSet
Validated: 1
EndChar

StartChar: notequal
Encoding: 8800 8800 335
Width: 513
VWidth: 1467
Flags: W
HStem: -10 21G<156 210.065> 144 54<67 194 257 443> 352 53<67 244 308 443>
LayerCount: 2
Fore
SplineSet
443 144 m 1
 244 144 l 1
 205 -10 l 1
 156 -10 l 1
 194 144 l 1
 67 144 l 1
 67 198 l 1
 205 198 l 1
 244 352 l 1
 67 352 l 1
 67 405 l 1
 258 405 l 1
 293 546 l 1
 343 546 l 1
 308 405 l 1
 443 405 l 1
 443 352 l 1
 295 352 l 1
 257 198 l 1
 443 198 l 1
 443 144 l 1
EndSplineSet
Validated: 1
EndChar

StartChar: lessequal
Encoding: 8804 8804 336
Width: 534
VWidth: 1467
Flags: W
HStem: 23 43<51 475>
LayerCount: 2
Fore
SplineSet
156 326 m 1
 293 292 410 207 475 147 c 1
 475 91 l 1
 351 225 144 304 54 324 c 1
 281 392 411 495 475 562 c 1
 475 508 l 1
 310 368 194 336 156 326 c 1
51 23 m 1
 51 66 l 1
 475 66 l 1
 475 23 l 1
 51 23 l 1
EndSplineSet
Validated: 1
EndChar

StartChar: greaterequal
Encoding: 8805 8805 337
Width: 514
VWidth: 1467
Flags: W
HStem: 25 42<45 470>
LayerCount: 2
Fore
SplineSet
365 329 m 1
 228 361 110 448 45 508 c 1
 45 563 l 1
 170 429 377 351 467 330 c 1
 354 297 175 225 45 92 c 1
 45 147 l 1
 213 285 323 317 365 329 c 1
470 67 m 1
 470 25 l 1
 45 25 l 1
 45 67 l 1
 470 67 l 1
EndSplineSet
Validated: 1
EndChar

StartChar: lozenge
Encoding: 9674 9674 338
Width: 573
VWidth: 1467
Flags: W
HStem: -23 21G<263 313.5>
LayerCount: 2
Fore
SplineSet
286 687 m 1
 320 589 403 434 534 332 c 1
 452 271 338 134 289 -23 c 1
 237 113 150 244 40 332 c 1
 132 399 244 549 286 687 c 1
288 616 m 1
 245 490 140 377 87 332 c 1
 111 306 243 178 286 47 c 1
 310 131 397 254 487 332 c 1
 439 376 322 506 288 616 c 1
EndSplineSet
Validated: 1
EndChar

StartChar: dottedcircle
Encoding: 9676 9676 339
Width: 630
VWidth: 1467
Flags: W
HStem: -26 62<292.916 335.919> -6 62<199.072 242.812 388.188 431.928> 47 62<120.211 162.92 466.259 509.714> 126 62<66.9163 110.911 518.916 561.75> 220 62<46.1875 90.7499 539.259 582.429> 314 62<67.0721 110.812 519.516 561.75> 396 62<120.074 162.92 465.25 507.928> 449 62<199.072 242.812 387.516 429.75> 467 61<293.072 336.077>
VStem: 45 47<220.161 281.828> 66 46<126.161 187.909 314.172 375.839> 119 45<47.0549 108.954 396.055 457.956> 198 46<-5.82764 55.8386 449.172 510.839> 292 45<-25.9537 35.9621 467.041 527.956> 387 46<-5.82764 55.8386 447.304 508.732> 465 46<47.1724 108.817 396.172 457.806> 518 45<126.049 187.959 313.046 373.956> 538 46<222.172 282.883>
LayerCount: 2
Fore
SplineSet
69 282 m 0x1c5f
 83 282 92 268 92 251 c 0
 92 237 83 220 69 220 c 256
 55 220 45 234 45 251 c 0
 45 267 55 282 69 282 c 0x1c5f
112 345 m 0x1c3f
 112 329 102 314 88 314 c 256
 79 314 66 320 66 345 c 0
 66 361 75 376 88 376 c 0
 102 376 112 362 112 345 c 0x1c3f
164 427 m 0
 164 411 155 396 141 396 c 256
 121 396 119 415 119 427 c 0
 119 443 128 458 141 458 c 0x1e1f
 155 458 164 444 164 427 c 0
244 480 m 0
 244 464 234 449 220 449 c 256
 211 449 198 455 198 480 c 0
 198 496 207 511 220 511 c 0x1d1f
 234 511 244 497 244 480 c 0
337 497 m 0
 337 481 328 467 314 467 c 256
 305 467 292 472 292 497 c 0
 292 513 301 528 314 528 c 0x1c9f
 328 528 337 514 337 497 c 0
431 478 m 0
 431 463 422 447 408 447 c 256
 402 447 386 450 386 478 c 0
 386 494 394 509 408 509 c 0
 422 509 431 497 431 478 c 0
509 427 m 0
 509 411 500 396 487 396 c 0
 473 396 464 411 464 427 c 0
 464 441 473 458 487 458 c 0x1e1f
 500 458 509 443 509 427 c 0
563 343 m 0x1c1f80
 563 329 554 313 540 313 c 256
 534 313 518 316 518 343 c 0
 518 359 526 374 540 374 c 0
 554 374 563 362 563 343 c 0x1c1f80
538 252 m 0x1c1f40
 538 273 551 283 560 283 c 0
 576 283 584 269 584 252 c 0
 584 237 574 222 560 222 c 256
 547 222 538 235 538 252 c 0x1c1f40
540 188 m 0
 554 188 563 174 563 157 c 0
 563 143 554 126 540 126 c 256
 531 126 518 131 518 157 c 0x1c1f80
 518 174 527 188 540 188 c 0
465 78 m 0
 465 93 475 109 487 109 c 0
 500 109 511 94 511 78 c 0
 511 62 501 47 487 47 c 256x3c1f
 478 47 465 53 465 78 c 0
387 25 m 0
 387 42 397 56 411 56 c 0
 424 56 433 41 433 25 c 0
 433 9 424 -6 411 -6 c 0x5c1f
 397 -6 387 9 387 25 c 0
314 36 m 0x9c1f
 328 36 337 23 337 4 c 0
 337 -10 328 -26 314 -26 c 256
 301 -26 292 -13 292 4 c 0
 292 23 301 36 314 36 c 0x9c1f
198 25 m 0
 198 41 207 56 220 56 c 0
 234 56 244 42 244 25 c 0
 244 9 234 -6 220 -6 c 256x5c1f
 211 -6 198 0 198 25 c 0
119 78 m 0
 119 93 129 109 141 109 c 0
 155 109 164 93 164 78 c 0
 164 62 155 47 141 47 c 256x3c1f
 121 47 119 66 119 78 c 0
88 188 m 0
 103 188 112 174 112 157 c 0
 112 140 102 126 88 126 c 256
 75 126 66 138 66 157 c 0x1c3f
 66 174 75 188 88 188 c 0
EndSplineSet
Validated: 1
EndChar

StartChar: uni0E10.alt1
Encoding: 63232 63232 340
Width: 591
VWidth: 1467
Flags: W
HStem: 1 21G<313 375> 96 24<255.445 294.64> 296 24<224.943 265.92> 550 36<185.571 477.678>
VStem: 109 42<469.914 524.19> 179 36<163.996 291.253> 450 45<96.9727 331.059>
LayerCount: 2
Fore
SplineSet
357 50 m 1
 390 60 450 92 450 156 c 2
 450 299 l 2
 450 385 109 392 109 487 c 0
 109 513 131 586 315 586 c 0
 394 586 473 574 511 565 c 1
 518 521 l 1
 466 540 361 550 302 550 c 0
 175 550 151 513 151 495 c 0
 151 431 495 399 495 310 c 2
 495 156 l 2
 495 120 481 88 468 66 c 0
 446 26 393 15 357 1 c 1
 313 1 l 1
 313 24 314 69 317 114 c 1
 300 96 285 96 276 96 c 0
 228 96 179 161 179 231 c 0
 179 276 201 320 246 320 c 0
 284 320 331 275 346 202 c 0
 353 168 357 135 357 104 c 2
 357 50 l 1
276 120 m 0
 288 120 305 131 305 184 c 0
 305 247 265 296 246 296 c 0
 233 296 215 285 215 242 c 0
 215 176 252 120 276 120 c 0
EndSplineSet
Validated: 1
EndChar

StartChar: uni0E48.alt2
Encoding: 63242 63242 350
Width: 0
VWidth: 1467
Flags: W
HStem: 697 176<-128 -87>
VStem: -128 41<697 873>
LayerCount: 2
Fore
SplineSet
-87 697 m 1
 -128 697 l 1
 -128 873 l 1
 -87 873 l 1
 -87 697 l 1
EndSplineSet
Validated: 1
Substitution2: "Single Substitution lookup 20 subtable" uni0E48.alt3
Substitution2: "Single Substitution lookup 21 subtable" uni0E48
Substitution2: "Single Substitution lookup 22 subtable" uni0E48.alt1
Substitution2: "Single Substitution lookup 20 subtable" uni0E48.alt3
Substitution2: "Single Substitution lookup 21 subtable" uni0E48
Substitution2: "Single Substitution lookup 22 subtable" uni0E48.alt1
EndChar

StartChar: uni0E49.alt2
Encoding: 63243 63243 351
Width: 0
VWidth: 1467
Flags: W
HStem: 668 30<-445 -378.556 -358 -250.167> 728 18<-394.251 -361.515> 872 18<-370.315 -341.911>
VStem: -425 25<748.207 839.243> -335 28<774.437 869.951> -142 45<795.611 866>
LayerCount: 2
Fore
SplineSet
-348 698 m 2
 -216 698 -159 755 -142 866 c 1
 -97 866 l 1
 -112 694 -208 668 -389 668 c 2
 -445 668 l 1
 -445 698 l 1
 -401 698 l 1
 -371 720 -370 712 -354 737 c 1
 -364 729 -369 728 -378 728 c 0
 -407 728 -425 755 -425 792 c 0
 -425 842 -391 890 -355 890 c 0
 -346 890 -307 880 -307 820 c 0
 -307 770 -331 720 -358 698 c 1
 -348 698 l 2
-379 746 m 0
 -354 746 -335 799 -335 831 c 0
 -335 863 -347 872 -355 872 c 0
 -371 872 -400 835 -400 785 c 0
 -400 764 -396 746 -379 746 c 0
EndSplineSet
Validated: 1
Substitution2: "Single Substitution lookup 20 subtable" uni0E49.alt3
Substitution2: "Single Substitution lookup 21 subtable" uni0E49
Substitution2: "Single Substitution lookup 22 subtable" uni0E49.alt1
Substitution2: "Single Substitution lookup 20 subtable" uni0E49.alt3
Substitution2: "Single Substitution lookup 21 subtable" uni0E49
Substitution2: "Single Substitution lookup 22 subtable" uni0E49.alt1
EndChar

StartChar: uni0E4A.alt2
Encoding: 63244 63244 352
Width: 0
VWidth: 1467
Flags: W
HStem: 667 23<-363.807 -299.625> 755 23<-386.679 -328.47> 838 31<-238 -192.138>
VStem: -427 32<711.523 781.879> -297 17<694.712 726.812> -162 33<716.724 810.193> -44 43<814.859 902>
LayerCount: 2
Fore
SplineSet
-141 716 m 1
 -110 732 -62 759 -44 902 c 1
 -1 902 l 1
 -16 759 -103 682 -183 675 c 1
 -183 697 l 1
 -169 711 -162 730 -162 755 c 0
 -162 815 -197 827 -206 830 c 0
 -220 836 -228 838 -230 838 c 1
 -230 838 -260 801 -273 788 c 1
 -335 839 l 1
 -384 817 -387 793 -387 782 c 2
 -387 775 l 1
 -381 777 -375 778 -368 778 c 0
 -336 778 -280 754 -280 709 c 0
 -280 697 -288 667 -322 667 c 0
 -336 667 -427 676 -427 758 c 0
 -427 813 -383 869 -327 869 c 1
 -273 822 l 1
 -238 869 l 1
 -181 869 -129 827 -129 765 c 0
 -129 750 -132 734 -141 716 c 1
-297 711 m 0
 -297 728 -335 755 -372 755 c 0
 -393 755 -395 738 -395 735 c 0
 -395 716 -355 690 -322 690 c 0
 -308 690 -297 697 -297 711 c 0
EndSplineSet
Validated: 1
Substitution2: "Single Substitution lookup 20 subtable" uni0E4A.alt3
Substitution2: "Single Substitution lookup 21 subtable" uni0E4A
Substitution2: "Single Substitution lookup 22 subtable" uni0E4A.alt1
Substitution2: "Single Substitution lookup 20 subtable" uni0E4A.alt3
Substitution2: "Single Substitution lookup 21 subtable" uni0E4A
Substitution2: "Single Substitution lookup 22 subtable" uni0E4A.alt1
EndChar

StartChar: uni0E4B.alt2
Encoding: 63245 63245 353
Width: 0
VWidth: 1467
Flags: W
HStem: 763 42<-233 -141 -88 3>
VStem: -141 53<668 763 805 905>
LayerCount: 2
Fore
SplineSet
3 763 m 1
 -88 763 l 1
 -88 668 l 1
 -141 668 l 1
 -141 763 l 1
 -233 763 l 1
 -233 805 l 1
 -141 805 l 1
 -141 905 l 1
 -88 905 l 1
 -88 805 l 1
 3 805 l 1
 3 763 l 1
EndSplineSet
Validated: 1
Substitution2: "Single Substitution lookup 20 subtable" uni0E4B.alt3
Substitution2: "Single Substitution lookup 21 subtable" uni0E4B
Substitution2: "Single Substitution lookup 22 subtable" uni0E4B.alt1
Substitution2: "Single Substitution lookup 20 subtable" uni0E4B.alt3
Substitution2: "Single Substitution lookup 21 subtable" uni0E4B
Substitution2: "Single Substitution lookup 22 subtable" uni0E4B.alt1
EndChar

StartChar: uni0E4C.alt2
Encoding: 63246 63246 354
Width: 0
VWidth: 1467
Flags: W
HStem: 668 30<-252.617 -213.906>
VStem: -304 36<709.194 835.575> -201 35<706.508 829.859> -128 41<959.246 1018>
LayerCount: 2
Fore
SplineSet
-213 866 m 1
 -205 860 -171 840 -166 775 c 0
 -166 693 -206 668 -233 668 c 0
 -276 668 -304 727 -304 778 c 0
 -304 806 -297 829 -283 847 c 2
 -283 848 -262 875 -241 888 c 0
 -131 958 -131 973 -128 1021 c 1
 -87 1018 l 1
 -87 994 l 2
 -87 943 -203 872 -213 866 c 1
-201 767 m 0
 -201 800 -218 844 -236 844 c 0
 -242 844 -268 833 -268 769 c 0
 -268 744 -256 698 -232 698 c 0
 -213 698 -201 740 -201 767 c 0
EndSplineSet
Validated: 1
Substitution2: "Single Substitution lookup 20 subtable" uni0E4C.alt3
Substitution2: "Single Substitution lookup 21 subtable" uni0E4C
Substitution2: "Single Substitution lookup 22 subtable" uni0E4C.alt1
Substitution2: "Single Substitution lookup 20 subtable" uni0E4C.alt3
Substitution2: "Single Substitution lookup 21 subtable" uni0E4C
Substitution2: "Single Substitution lookup 22 subtable" uni0E4C.alt1
EndChar

StartChar: uni0E0D.alt1
Encoding: 63247 63247 355
Width: 908
VWidth: 1467
Flags: W
HStem: -1 35<528 640.141> -1 25<146.713 186.562> 200 25<174.84 216.759> 551 36<142 374.499>
VStem: 100 37<27.7361 159> 101 43<198 396.083> 228 34<72.6539 195.293> 483 45<-3 -1 34 445.925> 761 50<140.888 587>
LayerCount: 2
Fore
SplineSet
101 267 m 2x7780
 101 359 118 434 176 471 c 1
 97 544 l 1
 97 585 l 1
 187 587 198 587 209 587 c 0
 351 587 448 586 502 482 c 0
 519 447 528 397 528 332 c 2
 528 34 l 1
 660 34 761 78 761 253 c 2
 761 587 l 1
 811 587 l 1
 811 268 l 2
 811 33 689 -1 528 -1 c 1
 528 -3 l 1
 483 -3 l 1
 478 333 l 2
 478 384 475 458 422 504 c 0
 378 544 320 551 264 551 c 0
 215 551 203 546 142 546 c 1
 145 540 179 516 208 487 c 1
 208 442 l 1
 198 434 144 407 144 308 c 2
 144 198 l 1xb780
 158 213 177 225 199 225 c 0
 243 225 262 176 262 133 c 0
 262 62 213 -1 167 -1 c 0
 121 -1 100 54 100 91 c 2x7b80
 101 267 l 2x7780
200 200 m 0
 164 200 137 131 137 79 c 0
 137 56 143 24 166 24 c 0x7b80
 189 24 228 84 228 141 c 0
 228 159 222 200 200 200 c 0
EndSplineSet
Validated: 1
EndChar

StartChar: uni0E0E.alt1
Encoding: 63259 63259 367
Width: 657
VWidth: 1467
Flags: W
HStem: -233 28<202.628 319.409> -130 27<205.22 346.357> -1 25<161.12 202.294> 201 24<131.98 172.715> 550 35<180 410.949>
VStem: 85 35<72.9202 195.086> 156 32<-191.513 -144.757> 204 44<200 480> 212 36<28.4162 321.186> 392 41<-116.441 -54> 519 47<-248 -220.702 -192 453.216>
LayerCount: 2
Fore
SplineSet
150 225 m 0xfee0
 172 225 192 212 204 200 c 1xff60
 205 480 l 1
 134 543 l 1
 134 584 l 1
 239 585 l 2
 392 585 424 580 468 556 c 0
 563 506 566 383 566 339 c 2
 566 -248 l 1
 519 -248 l 1
 519 -244 l 1
 504 -222 464 -189 399 -163 c 1
 358 -225 291 -233 266 -233 c 0
 207 -233 156 -207 156 -167 c 0
 156 -136 199 -103 264 -103 c 0
 300 -103 339 -104 381 -117 c 1
 384 -105 388 -98 392 -54 c 1
 433 -54 l 1
 430 -81 424 -106 415 -129 c 1
 455 -145 490 -165 519 -192 c 1
 516 332 l 2
 516 397 507 445 484 476 c 0
 446 527 392 550 311 550 c 0
 285 550 272 548 180 544 c 1
 185 536 203 529 246 486 c 1
 246 486 248 98 248 94 c 0
 248 67 235 -1 181 -1 c 0
 136 -1 85 62 85 134 c 0
 85 166 98 225 150 225 c 0xfee0
183 24 m 0
 208 24 212 59 212 79 c 0xfee0
 212 141 176 201 152 201 c 0
 133 201 120 178 120 143 c 0
 120 89 156 24 183 24 c 0
188 -167 m 0
 188 -198 236 -205 262 -205 c 0
 333 -205 364 -153 364 -153 c 1
 364 -152 363 -150 361 -148 c 1
 315 -133 284 -130 264 -130 c 0
 224 -130 188 -145 188 -167 c 0
EndSplineSet
Validated: 1
EndChar

